M48
; DRILL file {KiCad (5.1.4-0-10_14)} date Sunday 29 December 2019 at 23:54:47
; FORMAT={-:-/ absolute / inch / decimal}
; #@! TF.CreationDate,2019-12-29T23:54:47-08:00
; #@! TF.GenerationSoftware,Kicad,Pcbnew,(5.1.4-0-10_14)
FMAT,2
INCH
T1C0.0157
T2C0.0299
T3C0.0315
T4C0.0394
T5C0.0433
T6C0.0472
T7C0.0454
T8C0.1260
%
G90
G05
T1
X2.0846Y-4.0748
X2.0846Y-4.1535
X2.0846Y-4.2323
X2.0846Y-4.311
X2.0846Y-4.3898
X2.0886Y-0.9843
X2.0886Y-1.063
X2.0886Y-1.1417
X2.0886Y-1.2205
X2.0886Y-1.2992
X2.1634Y-4.1535
X2.1634Y-4.2323
X2.1634Y-4.311
X2.1634Y-4.3898
X2.1673Y-0.9843
X2.1673Y-1.063
X2.1673Y-1.1417
X2.1673Y-1.2205
X2.2421Y-4.1535
X2.2421Y-4.2323
X2.2421Y-4.311
X2.2421Y-4.3898
X2.2461Y-0.9843
X2.2461Y-1.063
X2.2461Y-1.1417
X2.2461Y-1.2205
X2.3209Y-4.1535
X2.3209Y-4.2323
X2.3209Y-4.311
X2.3209Y-4.3898
X2.3248Y-0.9843
X2.3248Y-1.063
X2.3248Y-1.1417
X2.3248Y-1.2205
X2.3996Y-4.0748
X2.3996Y-4.1535
X2.3996Y-4.2323
X2.3996Y-4.311
X2.3996Y-4.3898
X2.4035Y-0.9843
X2.4035Y-1.063
X2.4035Y-1.1417
X2.4035Y-1.2205
X2.4035Y-1.2992
X2.6181Y-3.4843
X2.6575Y-1.624
X2.6575Y-1.6634
X2.6575Y-1.7028
X2.7535Y-3.285
X2.774Y-2.0965
X2.774Y-2.2343
X2.8035Y-3.2858
X2.8535Y-3.1398
X2.8535Y-3.2776
X2.924Y-2.0965
X2.924Y-2.2343
X2.974Y-2.0882
X3.0035Y-3.1398
X3.0035Y-3.2776
X3.024Y-2.089
X3.1201Y-3.6713
X3.1201Y-3.7106
X3.1201Y-3.75
X3.1594Y-1.8898
X3.2874Y-3.4843
X3.3268Y-1.624
X3.3268Y-1.6634
X3.3268Y-1.7028
X3.4228Y-3.285
X3.4433Y-2.0965
X3.4433Y-2.2343
X3.4728Y-3.2858
X3.5228Y-3.1398
X3.5228Y-3.2776
X3.5933Y-2.0965
X3.5933Y-2.2343
X3.6433Y-2.0882
X3.6728Y-3.1407
X3.6728Y-3.2776
X3.6933Y-2.089
X3.7894Y-3.6713
X3.7894Y-3.7106
X3.7894Y-3.75
X3.8287Y-1.8898
X3.9567Y-3.4843
X3.9961Y-1.624
X3.9961Y-1.6634
X3.9961Y-1.7028
X4.0921Y-3.285
X4.1043Y-2.6319
X4.1043Y-2.7461
X4.1126Y-2.0965
X4.1126Y-2.2343
X4.1421Y-3.2858
X4.1921Y-3.1398
X4.1921Y-3.2776
X4.2626Y-2.0965
X4.2626Y-2.2343
X4.3126Y-2.0882
X4.3421Y-3.1398
X4.3421Y-3.2776
X4.3626Y-2.089
X4.4587Y-3.6713
X4.4587Y-3.7106
X4.4587Y-3.75
X4.498Y-1.8898
X4.626Y-3.4843
X4.6654Y-1.624
X4.6654Y-1.6634
X4.6654Y-1.7028
X4.7047Y-2.6319
X4.7047Y-2.7461
X4.7614Y-3.285
X4.7819Y-2.0965
X4.7819Y-2.2343
X4.8031Y-2.6319
X4.8031Y-2.7461
X4.8114Y-3.2858
X4.8614Y-3.1406
X4.8614Y-3.2783
X4.9319Y-2.0965
X4.9319Y-2.2343
X4.9819Y-2.0882
X5.0114Y-3.1398
X5.0114Y-3.2776
X5.0319Y-2.089
X5.128Y-3.6713
X5.128Y-3.7106
X5.128Y-3.75
X5.1673Y-1.8898
T2
X3.376Y-3.9567
X3.426Y-3.8567
X3.476Y-3.9567
X3.526Y-3.8567
X3.576Y-3.9567
X3.626Y-3.8567
X3.676Y-3.9567
X3.726Y-3.8567
X4.0453Y-3.9567
X4.0953Y-3.8567
X4.1453Y-3.9567
X4.1953Y-3.8567
X4.2453Y-3.9567
X4.2953Y-3.8567
X2.7209Y-1.5173
X3.4402Y-1.4173
X3.4902Y-1.5173
X3.5402Y-1.4173
X3.5902Y-1.5173
X4.3453Y-3.9567
X4.3953Y-3.8567
X3.6402Y-1.4173
X3.6902Y-1.5173
X3.7402Y-1.4173
X4.0594Y-1.5173
X4.1094Y-1.4173
X4.1594Y-1.5173
X4.2094Y-1.4173
X4.2594Y-1.5173
X4.3094Y-1.4173
X3.3902Y-1.5173
X4.4094Y-1.4173
X4.3594Y-1.5173
X2.7709Y-1.4173
X2.8209Y-1.5173
X2.8709Y-1.4173
X2.9209Y-1.5173
X2.9709Y-1.4173
X3.0209Y-1.5173
X3.0709Y-1.4173
X2.7067Y-3.9567
X2.7567Y-3.8567
X2.8067Y-3.9567
X2.8567Y-3.8567
X2.9067Y-3.9567
X2.9567Y-3.8567
X3.0067Y-3.9567
X3.0567Y-3.8567
X4.7146Y-3.9567
X4.7646Y-3.8567
X4.8146Y-3.9567
X4.8646Y-3.8567
X4.9146Y-3.9567
X4.9646Y-3.8567
X5.0146Y-3.9567
X5.0646Y-3.8567
X4.7287Y-1.5173
X4.7787Y-1.4173
X4.8287Y-1.5173
X4.8787Y-1.4173
X4.9287Y-1.5173
X4.9787Y-1.4173
X5.0287Y-1.5173
X5.0787Y-1.4173
T3
X2.1555Y-1.6201
X2.2146Y-1.6831
X2.3425Y-3.6555
X2.3425Y-3.7441
X2.6142Y-2.2835
X2.6437Y-3.0906
X2.7028Y-2.2835
X2.7323Y-3.0906
T4
X1.9646Y-1.8008
X1.9646Y-1.9008
X1.9646Y-2.0008
X1.9646Y-2.1008
X1.9646Y-2.2008
X1.9646Y-2.3008
X1.9646Y-3.3008
X1.9646Y-3.4008
X1.9646Y-3.5008
X1.9646Y-3.6008
X1.9646Y-3.7008
T5
X2.6083Y-2.387
X2.6083Y-2.987
X2.7083Y-2.387
X2.7083Y-2.987
X2.8083Y-2.387
X2.8083Y-2.987
X2.9083Y-2.387
X2.9083Y-2.987
X3.0083Y-2.387
X3.0083Y-2.987
X3.1083Y-2.387
X3.1083Y-2.987
X3.2083Y-2.387
X3.2083Y-2.987
X3.3083Y-2.387
X3.3083Y-2.987
X3.4083Y-2.387
X3.4083Y-2.987
X3.5083Y-2.387
X3.5083Y-2.987
X3.6083Y-2.387
X3.6083Y-2.987
X3.7083Y-2.387
X3.7083Y-2.987
X3.8083Y-2.387
X3.8083Y-2.987
X3.9083Y-2.387
X3.9083Y-2.987
X4.0083Y-2.387
X4.0083Y-2.987
X4.1083Y-2.387
X4.1083Y-2.987
X4.2083Y-2.387
X4.2083Y-2.987
X4.3083Y-2.387
X4.3083Y-2.987
X4.4083Y-2.387
X4.4083Y-2.987
X4.5083Y-2.387
X4.5083Y-2.987
X4.6083Y-2.387
X4.6083Y-2.987
X4.7083Y-2.387
X4.7083Y-2.987
X4.8083Y-2.387
X4.8083Y-2.987
X4.9083Y-2.387
X4.9083Y-2.987
T6
X1.6831Y-1.4783
X1.6831Y-1.6161
T7
X1.5846Y-4.4291
X5.4035Y-0.9449
X5.4035Y-4.4291
T8
X4.6646Y-4.2067
X3.326Y-4.2067
X3.776Y-4.2067
X3.9953Y-4.2067
X4.4453Y-4.2067
X2.6709Y-1.1673
X3.1209Y-1.1673
X4.0094Y-1.1673
X4.4594Y-1.1673
X3.3402Y-1.1673
X3.7902Y-1.1673
X5.3642Y-1.1811
X2.6567Y-4.2067
X3.1067Y-4.2067
X5.1146Y-4.2067
X1.6929Y-3.8976
X5.3642Y-4.1929
X1.9587Y-1.5354
X4.6787Y-1.1673
X5.1287Y-1.1673
T0
M30
