G04 #@! TF.GenerationSoftware,KiCad,Pcbnew,(5.1.4-0-10_14)*
G04 #@! TF.CreationDate,2019-12-30T09:37:17-08:00*
G04 #@! TF.ProjectId,Mothership,4d6f7468-6572-4736-9869-702e6b696361,rev?*
G04 #@! TF.SameCoordinates,Original*
G04 #@! TF.FileFunction,Legend,Top*
G04 #@! TF.FilePolarity,Positive*
%FSLAX46Y46*%
G04 Gerber Fmt 4.6, Leading zero omitted, Abs format (unit mm)*
G04 Created by KiCad (PCBNEW (5.1.4-0-10_14)) date 2019-12-30 09:37:17*
%MOMM*%
%LPD*%
G04 APERTURE LIST*
%ADD10C,0.050000*%
%ADD11C,0.120000*%
%ADD12C,0.150000*%
G04 APERTURE END LIST*
D10*
X139750000Y-21500000D02*
X37750000Y-21500000D01*
X37750000Y-21500000D02*
X37750000Y-115000000D01*
X139750000Y-115000000D02*
X37750000Y-115000000D01*
X139750000Y-21500000D02*
X139750000Y-115000000D01*
D11*
X118500000Y-83200000D02*
X118500000Y-87300000D01*
X118500000Y-87300000D02*
X116500000Y-87300000D01*
X116500000Y-87300000D02*
X116500000Y-83200000D01*
X116500000Y-83200000D02*
X118500000Y-83200000D01*
X130250000Y-53300000D02*
X130250000Y-49200000D01*
X130250000Y-49200000D02*
X132250000Y-49200000D01*
X132250000Y-49200000D02*
X132250000Y-53300000D01*
X132250000Y-53300000D02*
X130250000Y-53300000D01*
X130250000Y-46800000D02*
X130250000Y-42700000D01*
X130250000Y-42700000D02*
X132250000Y-42700000D01*
X132250000Y-42700000D02*
X132250000Y-46800000D01*
X132250000Y-46800000D02*
X130250000Y-46800000D01*
X113250000Y-46800000D02*
X113250000Y-42700000D01*
X113250000Y-42700000D02*
X115250000Y-42700000D01*
X115250000Y-42700000D02*
X115250000Y-46800000D01*
X115250000Y-46800000D02*
X113250000Y-46800000D01*
X113250000Y-53300000D02*
X113250000Y-49200000D01*
X113250000Y-49200000D02*
X115250000Y-49200000D01*
X115250000Y-49200000D02*
X115250000Y-53300000D01*
X115250000Y-53300000D02*
X113250000Y-53300000D01*
X79250000Y-53300000D02*
X79250000Y-49200000D01*
X79250000Y-49200000D02*
X81250000Y-49200000D01*
X81250000Y-49200000D02*
X81250000Y-53300000D01*
X81250000Y-53300000D02*
X79250000Y-53300000D01*
X79250000Y-46800000D02*
X79250000Y-42700000D01*
X79250000Y-42700000D02*
X81250000Y-42700000D01*
X81250000Y-42700000D02*
X81250000Y-46800000D01*
X81250000Y-46800000D02*
X79250000Y-46800000D01*
X96250000Y-53300000D02*
X96250000Y-49200000D01*
X96250000Y-49200000D02*
X98250000Y-49200000D01*
X98250000Y-49200000D02*
X98250000Y-53300000D01*
X98250000Y-53300000D02*
X96250000Y-53300000D01*
X96250000Y-46800000D02*
X96250000Y-42700000D01*
X96250000Y-42700000D02*
X98250000Y-42700000D01*
X98250000Y-42700000D02*
X98250000Y-46800000D01*
X98250000Y-46800000D02*
X96250000Y-46800000D01*
X101500000Y-83200000D02*
X101500000Y-87300000D01*
X101500000Y-87300000D02*
X99500000Y-87300000D01*
X99500000Y-87300000D02*
X99500000Y-83200000D01*
X99500000Y-83200000D02*
X101500000Y-83200000D01*
X67500000Y-89700000D02*
X67500000Y-93800000D01*
X67500000Y-93800000D02*
X65500000Y-93800000D01*
X65500000Y-93800000D02*
X65500000Y-89700000D01*
X65500000Y-89700000D02*
X67500000Y-89700000D01*
X67500000Y-83200000D02*
X67500000Y-87300000D01*
X67500000Y-87300000D02*
X65500000Y-87300000D01*
X65500000Y-87300000D02*
X65500000Y-83200000D01*
X65500000Y-83200000D02*
X67500000Y-83200000D01*
X84500000Y-89700000D02*
X84500000Y-93800000D01*
X84500000Y-93800000D02*
X82500000Y-93800000D01*
X82500000Y-93800000D02*
X82500000Y-89700000D01*
X82500000Y-89700000D02*
X84500000Y-89700000D01*
X118500000Y-89700000D02*
X118500000Y-93800000D01*
X118500000Y-93800000D02*
X116500000Y-93800000D01*
X116500000Y-93800000D02*
X116500000Y-89700000D01*
X116500000Y-89700000D02*
X118500000Y-89700000D01*
X84500000Y-83200000D02*
X84500000Y-87300000D01*
X84500000Y-87300000D02*
X82500000Y-87300000D01*
X82500000Y-87300000D02*
X82500000Y-83200000D01*
X82500000Y-83200000D02*
X84500000Y-83200000D01*
X101500000Y-89700000D02*
X101500000Y-93800000D01*
X101500000Y-93800000D02*
X99500000Y-93800000D01*
X99500000Y-93800000D02*
X99500000Y-89700000D01*
X99500000Y-89700000D02*
X101500000Y-89700000D01*
X108720000Y-71741422D02*
X108720000Y-72258578D01*
X110140000Y-71741422D02*
X110140000Y-72258578D01*
X111260000Y-71741422D02*
X111260000Y-72258578D01*
X112680000Y-71741422D02*
X112680000Y-72258578D01*
X102520000Y-72258578D02*
X102520000Y-71741422D01*
X101100000Y-72258578D02*
X101100000Y-71741422D01*
X99980000Y-72258578D02*
X99980000Y-71741422D01*
X98560000Y-72258578D02*
X98560000Y-71741422D01*
X94900000Y-72258578D02*
X94900000Y-71741422D01*
X93480000Y-72258578D02*
X93480000Y-71741422D01*
X90940000Y-63991422D02*
X90940000Y-64508578D01*
X92360000Y-63991422D02*
X92360000Y-64508578D01*
X96020000Y-63991422D02*
X96020000Y-64508578D01*
X97440000Y-63991422D02*
X97440000Y-64508578D01*
X101100000Y-63991422D02*
X101100000Y-64508578D01*
X102520000Y-63991422D02*
X102520000Y-64508578D01*
X103640000Y-63991422D02*
X103640000Y-64508578D01*
X105060000Y-63991422D02*
X105060000Y-64508578D01*
X106180000Y-63991422D02*
X106180000Y-64508578D01*
X107600000Y-63991422D02*
X107600000Y-64508578D01*
X108720000Y-63991422D02*
X108720000Y-64508578D01*
X110140000Y-63991422D02*
X110140000Y-64508578D01*
X111260000Y-63991422D02*
X111260000Y-64508578D01*
X112680000Y-63991422D02*
X112680000Y-64508578D01*
X113800000Y-63991422D02*
X113800000Y-64508578D01*
X115220000Y-63991422D02*
X115220000Y-64508578D01*
X116340000Y-63991422D02*
X116340000Y-64508578D01*
X117760000Y-63991422D02*
X117760000Y-64508578D01*
X118880000Y-63991422D02*
X118880000Y-64508578D01*
X120300000Y-63991422D02*
X120300000Y-64508578D01*
X121420000Y-63991422D02*
X121420000Y-64508578D01*
X122840000Y-63991422D02*
X122840000Y-64508578D01*
X127254564Y-92840000D02*
X126050436Y-92840000D01*
X127254564Y-94660000D02*
X126050436Y-94660000D01*
X122089564Y-92840000D02*
X120885436Y-92840000D01*
X122089564Y-94660000D02*
X120885436Y-94660000D01*
X110254564Y-92840000D02*
X109050436Y-92840000D01*
X110254564Y-94660000D02*
X109050436Y-94660000D01*
X105089564Y-92840000D02*
X103885436Y-92840000D01*
X105089564Y-94660000D02*
X103885436Y-94660000D01*
X93254564Y-92840000D02*
X92050436Y-92840000D01*
X93254564Y-94660000D02*
X92050436Y-94660000D01*
X88089564Y-92840000D02*
X86885436Y-92840000D01*
X88089564Y-94660000D02*
X86885436Y-94660000D01*
X76254564Y-92840000D02*
X75050436Y-92840000D01*
X76254564Y-94660000D02*
X75050436Y-94660000D01*
X71089564Y-92840000D02*
X69885436Y-92840000D01*
X71089564Y-94660000D02*
X69885436Y-94660000D01*
X70495436Y-43660000D02*
X71699564Y-43660000D01*
X70495436Y-41840000D02*
X71699564Y-41840000D01*
X75660436Y-43660000D02*
X76864564Y-43660000D01*
X75660436Y-41840000D02*
X76864564Y-41840000D01*
X87495436Y-43660000D02*
X88699564Y-43660000D01*
X87495436Y-41840000D02*
X88699564Y-41840000D01*
X92660436Y-43660000D02*
X93864564Y-43660000D01*
X92660436Y-41840000D02*
X93864564Y-41840000D01*
X104495436Y-43660000D02*
X105699564Y-43660000D01*
X104495436Y-41840000D02*
X105699564Y-41840000D01*
X109660436Y-43660000D02*
X110864564Y-43660000D01*
X109660436Y-41840000D02*
X110864564Y-41840000D01*
X121495436Y-43660000D02*
X122699564Y-43660000D01*
X121495436Y-41840000D02*
X122699564Y-41840000D01*
X126660436Y-43660000D02*
X127864564Y-43660000D01*
X126660436Y-41840000D02*
X127864564Y-41840000D01*
X57760000Y-87960000D02*
X57760000Y-83750000D01*
X54740000Y-87960000D02*
X57760000Y-87960000D01*
X54740000Y-83750000D02*
X54740000Y-87960000D01*
X65760000Y-82460000D02*
X65760000Y-78250000D01*
X62740000Y-82460000D02*
X65760000Y-82460000D01*
X62740000Y-78250000D02*
X62740000Y-82460000D01*
X62240000Y-54290000D02*
X62240000Y-58500000D01*
X65260000Y-54290000D02*
X62240000Y-54290000D01*
X65260000Y-58500000D02*
X65260000Y-54290000D01*
X130760000Y-91287779D02*
X130760000Y-90962221D01*
X129740000Y-91287779D02*
X129740000Y-90962221D01*
X113760000Y-91287779D02*
X113760000Y-90962221D01*
X112740000Y-91287779D02*
X112740000Y-90962221D01*
X96760000Y-91287779D02*
X96760000Y-90962221D01*
X95740000Y-91287779D02*
X95740000Y-90962221D01*
X79760000Y-91287779D02*
X79760000Y-90962221D01*
X78740000Y-91287779D02*
X78740000Y-90962221D01*
X66990000Y-45212221D02*
X66990000Y-45537779D01*
X68010000Y-45212221D02*
X68010000Y-45537779D01*
X83990000Y-45212221D02*
X83990000Y-45537779D01*
X85010000Y-45212221D02*
X85010000Y-45537779D01*
X100990000Y-45212221D02*
X100990000Y-45537779D01*
X102010000Y-45212221D02*
X102010000Y-45537779D01*
X117990000Y-45212221D02*
X117990000Y-45537779D01*
X119010000Y-45212221D02*
X119010000Y-45537779D01*
X51900000Y-95420000D02*
X47900000Y-95420000D01*
X54020000Y-95040000D02*
X43080000Y-95040000D01*
X43080000Y-95040000D02*
X43080000Y-44000000D01*
X43080000Y-44000000D02*
X54020000Y-44000000D01*
X54020000Y-44000000D02*
X54020000Y-95040000D01*
D12*
X125940000Y-59360000D02*
X125940000Y-77140000D01*
X64980000Y-77140000D02*
X64980000Y-59360000D01*
X120860000Y-64440000D02*
X125940000Y-64440000D01*
X120860000Y-72060000D02*
X125940000Y-72060000D01*
X120860000Y-64440000D02*
X120860000Y-72060000D01*
X127210000Y-72060000D02*
X125940000Y-72060000D01*
X127210000Y-64440000D02*
X127210000Y-72060000D01*
X125940000Y-64440000D02*
X127210000Y-64440000D01*
X125940000Y-59360000D02*
X64980000Y-59360000D01*
X64980000Y-77140000D02*
X125940000Y-77140000D01*
X77680000Y-61900000D02*
X64980000Y-61900000D01*
X77680000Y-74600000D02*
X77680000Y-61900000D01*
X64980000Y-74600000D02*
X77680000Y-74600000D01*
X66250000Y-73330000D02*
X64980000Y-74600000D01*
X66250000Y-63170000D02*
X66250000Y-73330000D01*
X64980000Y-61900000D02*
X66250000Y-63170000D01*
X66250000Y-73330000D02*
X64980000Y-73330000D01*
X66250000Y-72060000D02*
X64980000Y-72060000D01*
X66250000Y-70790000D02*
X64980000Y-70790000D01*
X66250000Y-69520000D02*
X64980000Y-69520000D01*
X66250000Y-68250000D02*
X64980000Y-68250000D01*
X66250000Y-66980000D02*
X64980000Y-66980000D01*
X66250000Y-65710000D02*
X64980000Y-65710000D01*
X66250000Y-64440000D02*
X64980000Y-64440000D01*
X66250000Y-63170000D02*
X64980000Y-63170000D01*
D11*
X60410000Y-34090000D02*
X59150000Y-34090000D01*
X53590000Y-34090000D02*
X54850000Y-34090000D01*
X60410000Y-37850000D02*
X60410000Y-34090000D01*
X53590000Y-40100000D02*
X53590000Y-34090000D01*
X60410000Y-96400000D02*
X60410000Y-102410000D01*
X53590000Y-98650000D02*
X53590000Y-102410000D01*
X60410000Y-102410000D02*
X59150000Y-102410000D01*
X53590000Y-102410000D02*
X54850000Y-102410000D01*
X85565000Y-48750000D02*
X85565000Y-52200000D01*
X85565000Y-48750000D02*
X85565000Y-46800000D01*
X94435000Y-48750000D02*
X94435000Y-50700000D01*
X94435000Y-48750000D02*
X94435000Y-46800000D01*
X68565000Y-48750000D02*
X68565000Y-52200000D01*
X68565000Y-48750000D02*
X68565000Y-46800000D01*
X77435000Y-48750000D02*
X77435000Y-50700000D01*
X77435000Y-48750000D02*
X77435000Y-46800000D01*
X98315000Y-39880000D02*
X98315000Y-21920000D01*
X82795000Y-39880000D02*
X98315000Y-39880000D01*
X82795000Y-39880000D02*
X82795000Y-21920000D01*
X98315000Y-21920000D02*
X82795000Y-21920000D01*
X98500000Y-36000000D02*
X99000000Y-36500000D01*
X99000000Y-36500000D02*
X99000000Y-35500000D01*
X99000000Y-35500000D02*
X98500000Y-36000000D01*
X115315000Y-39880000D02*
X115315000Y-21920000D01*
X99795000Y-39880000D02*
X115315000Y-39880000D01*
X99795000Y-39880000D02*
X99795000Y-21920000D01*
X115315000Y-21920000D02*
X99795000Y-21920000D01*
X115500000Y-36000000D02*
X116000000Y-36500000D01*
X116000000Y-36500000D02*
X116000000Y-35500000D01*
X116000000Y-35500000D02*
X115500000Y-36000000D01*
X81315000Y-39880000D02*
X81315000Y-21920000D01*
X65795000Y-39880000D02*
X81315000Y-39880000D01*
X65795000Y-39880000D02*
X65795000Y-21920000D01*
X81315000Y-21920000D02*
X65795000Y-21920000D01*
X81500000Y-36000000D02*
X82000000Y-36500000D01*
X82000000Y-36500000D02*
X82000000Y-35500000D01*
X82000000Y-35500000D02*
X81500000Y-36000000D01*
X102565000Y-48750000D02*
X102565000Y-52200000D01*
X102565000Y-48750000D02*
X102565000Y-46800000D01*
X111435000Y-48750000D02*
X111435000Y-50700000D01*
X111435000Y-48750000D02*
X111435000Y-46800000D01*
X99435000Y-96620000D02*
X99435000Y-114580000D01*
X114955000Y-96620000D02*
X99435000Y-96620000D01*
X114955000Y-96620000D02*
X114955000Y-114580000D01*
X99435000Y-114580000D02*
X114955000Y-114580000D01*
X99250000Y-100500000D02*
X98750000Y-100000000D01*
X98750000Y-100000000D02*
X98750000Y-101000000D01*
X98750000Y-101000000D02*
X99250000Y-100500000D01*
X86315000Y-87750000D02*
X86315000Y-89700000D01*
X86315000Y-87750000D02*
X86315000Y-85800000D01*
X95185000Y-87750000D02*
X95185000Y-89700000D01*
X95185000Y-87750000D02*
X95185000Y-84300000D01*
X82435000Y-96620000D02*
X82435000Y-114580000D01*
X97955000Y-96620000D02*
X82435000Y-96620000D01*
X97955000Y-96620000D02*
X97955000Y-114580000D01*
X82435000Y-114580000D02*
X97955000Y-114580000D01*
X82250000Y-100500000D02*
X81750000Y-100000000D01*
X81750000Y-100000000D02*
X81750000Y-101000000D01*
X81750000Y-101000000D02*
X82250000Y-100500000D01*
X116435000Y-96620000D02*
X116435000Y-114580000D01*
X131955000Y-96620000D02*
X116435000Y-96620000D01*
X131955000Y-96620000D02*
X131955000Y-114580000D01*
X116435000Y-114580000D02*
X131955000Y-114580000D01*
X116250000Y-100500000D02*
X115750000Y-100000000D01*
X115750000Y-100000000D02*
X115750000Y-101000000D01*
X115750000Y-101000000D02*
X116250000Y-100500000D01*
X69315000Y-87750000D02*
X69315000Y-89700000D01*
X69315000Y-87750000D02*
X69315000Y-85800000D01*
X78185000Y-87750000D02*
X78185000Y-89700000D01*
X78185000Y-87750000D02*
X78185000Y-84300000D01*
X65435000Y-96620000D02*
X65435000Y-114580000D01*
X80955000Y-96620000D02*
X65435000Y-96620000D01*
X80955000Y-96620000D02*
X80955000Y-114580000D01*
X65435000Y-114580000D02*
X80955000Y-114580000D01*
X65250000Y-100500000D02*
X64750000Y-100000000D01*
X64750000Y-100000000D02*
X64750000Y-101000000D01*
X64750000Y-101000000D02*
X65250000Y-100500000D01*
X103315000Y-87750000D02*
X103315000Y-89700000D01*
X103315000Y-87750000D02*
X103315000Y-85800000D01*
X112185000Y-87750000D02*
X112185000Y-89700000D01*
X112185000Y-87750000D02*
X112185000Y-84300000D01*
X120315000Y-87750000D02*
X120315000Y-89700000D01*
X120315000Y-87750000D02*
X120315000Y-85800000D01*
X129185000Y-87750000D02*
X129185000Y-89700000D01*
X129185000Y-87750000D02*
X129185000Y-84300000D01*
X37950000Y-35500000D02*
X37950000Y-35900000D01*
X38590000Y-35500000D02*
X37950000Y-35500000D01*
X41809000Y-39905000D02*
X41681000Y-39776000D01*
X44025000Y-42120000D02*
X43931000Y-42026000D01*
X41569000Y-40075000D02*
X41476000Y-39981000D01*
X43819000Y-42325000D02*
X43691000Y-42196000D01*
X45910000Y-42860000D02*
X38190000Y-42860000D01*
X45910000Y-35740000D02*
X38190000Y-35740000D01*
X38190000Y-35740000D02*
X38190000Y-42860000D01*
X45910000Y-35740000D02*
X45910000Y-42860000D01*
X39750000Y-35740000D02*
X39750000Y-42860000D01*
X38650000Y-35740000D02*
X38650000Y-42860000D01*
X44430000Y-41050000D02*
G75*
G03X44430000Y-41050000I-1680000J0D01*
G01*
X41069901Y-37578674D02*
G75*
G02X41310000Y-36684000I1680099J28674D01*
G01*
X41860106Y-36124642D02*
G75*
G02X43616000Y-36110000I889894J-1425358D01*
G01*
X44175358Y-36660106D02*
G75*
G02X44190000Y-38416000I-1425358J-889894D01*
G01*
X43640193Y-38975505D02*
G75*
G02X41859000Y-38975000I-890193J1425505D01*
G01*
X41325279Y-38440264D02*
G75*
G02X41070000Y-37550000I1424721J890264D01*
G01*
X119565000Y-48750000D02*
X119565000Y-52200000D01*
X119565000Y-48750000D02*
X119565000Y-46800000D01*
X128435000Y-48750000D02*
X128435000Y-50700000D01*
X128435000Y-48750000D02*
X128435000Y-46800000D01*
X132315000Y-39880000D02*
X132315000Y-21920000D01*
X116795000Y-39880000D02*
X132315000Y-39880000D01*
X116795000Y-39880000D02*
X116795000Y-21920000D01*
X132315000Y-21920000D02*
X116795000Y-21920000D01*
X132500000Y-36000000D02*
X133000000Y-36500000D01*
X133000000Y-36500000D02*
X133000000Y-35500000D01*
X133000000Y-35500000D02*
X132500000Y-36000000D01*
X54740000Y-72510000D02*
X57490000Y-72510000D01*
X63260000Y-72510000D02*
X60510000Y-72510000D01*
X63260000Y-65054437D02*
X63260000Y-72510000D01*
X54740000Y-65054437D02*
X54740000Y-72510000D01*
X55804437Y-63990000D02*
X57490000Y-63990000D01*
X62195563Y-63990000D02*
X60510000Y-63990000D01*
X62195563Y-63990000D02*
X63260000Y-65054437D01*
X55804437Y-63990000D02*
X54740000Y-65054437D01*
X61510000Y-62750000D02*
X61510000Y-63750000D01*
X62010000Y-63250000D02*
X61010000Y-63250000D01*
D12*
X116259523Y-82802380D02*
X116259523Y-81802380D01*
X116497619Y-81802380D01*
X116640476Y-81850000D01*
X116735714Y-81945238D01*
X116783333Y-82040476D01*
X116830952Y-82230952D01*
X116830952Y-82373809D01*
X116783333Y-82564285D01*
X116735714Y-82659523D01*
X116640476Y-82754761D01*
X116497619Y-82802380D01*
X116259523Y-82802380D01*
X117259523Y-82278571D02*
X117592857Y-82278571D01*
X117735714Y-82802380D02*
X117259523Y-82802380D01*
X117259523Y-81802380D01*
X117735714Y-81802380D01*
X118640476Y-81802380D02*
X118164285Y-81802380D01*
X118116666Y-82278571D01*
X118164285Y-82230952D01*
X118259523Y-82183333D01*
X118497619Y-82183333D01*
X118592857Y-82230952D01*
X118640476Y-82278571D01*
X118688095Y-82373809D01*
X118688095Y-82611904D01*
X118640476Y-82707142D01*
X118592857Y-82754761D01*
X118497619Y-82802380D01*
X118259523Y-82802380D01*
X118164285Y-82754761D01*
X118116666Y-82707142D01*
X113797619Y-86002380D02*
X113988095Y-86002380D01*
X114083333Y-86050000D01*
X114178571Y-86145238D01*
X114226190Y-86335714D01*
X114226190Y-86669047D01*
X114178571Y-86859523D01*
X114083333Y-86954761D01*
X113988095Y-87002380D01*
X113797619Y-87002380D01*
X113702380Y-86954761D01*
X113607142Y-86859523D01*
X113559523Y-86669047D01*
X113559523Y-86335714D01*
X113607142Y-86145238D01*
X113702380Y-86050000D01*
X113797619Y-86002380D01*
X114988095Y-86478571D02*
X114654761Y-86478571D01*
X114654761Y-87002380D02*
X114654761Y-86002380D01*
X115130952Y-86002380D01*
X115845238Y-86478571D02*
X115511904Y-86478571D01*
X115511904Y-87002380D02*
X115511904Y-86002380D01*
X115988095Y-86002380D01*
X114630952Y-83402380D02*
X114821428Y-83402380D01*
X114916666Y-83450000D01*
X115011904Y-83545238D01*
X115059523Y-83735714D01*
X115059523Y-84069047D01*
X115011904Y-84259523D01*
X114916666Y-84354761D01*
X114821428Y-84402380D01*
X114630952Y-84402380D01*
X114535714Y-84354761D01*
X114440476Y-84259523D01*
X114392857Y-84069047D01*
X114392857Y-83735714D01*
X114440476Y-83545238D01*
X114535714Y-83450000D01*
X114630952Y-83402380D01*
X115488095Y-84402380D02*
X115488095Y-83402380D01*
X116059523Y-84402380D01*
X116059523Y-83402380D01*
X130009523Y-54652380D02*
X130009523Y-53652380D01*
X130247619Y-53652380D01*
X130390476Y-53700000D01*
X130485714Y-53795238D01*
X130533333Y-53890476D01*
X130580952Y-54080952D01*
X130580952Y-54223809D01*
X130533333Y-54414285D01*
X130485714Y-54509523D01*
X130390476Y-54604761D01*
X130247619Y-54652380D01*
X130009523Y-54652380D01*
X131009523Y-54128571D02*
X131342857Y-54128571D01*
X131485714Y-54652380D02*
X131009523Y-54652380D01*
X131009523Y-53652380D01*
X131485714Y-53652380D01*
X132342857Y-53985714D02*
X132342857Y-54652380D01*
X132104761Y-53604761D02*
X131866666Y-54319047D01*
X132485714Y-54319047D01*
X132452380Y-50902380D02*
X132452380Y-50711904D01*
X132500000Y-50616666D01*
X132595238Y-50521428D01*
X132785714Y-50473809D01*
X133119047Y-50473809D01*
X133309523Y-50521428D01*
X133404761Y-50616666D01*
X133452380Y-50711904D01*
X133452380Y-50902380D01*
X133404761Y-50997619D01*
X133309523Y-51092857D01*
X133119047Y-51140476D01*
X132785714Y-51140476D01*
X132595238Y-51092857D01*
X132500000Y-50997619D01*
X132452380Y-50902380D01*
X132928571Y-49711904D02*
X132928571Y-50045238D01*
X133452380Y-50045238D02*
X132452380Y-50045238D01*
X132452380Y-49569047D01*
X132928571Y-48854761D02*
X132928571Y-49188095D01*
X133452380Y-49188095D02*
X132452380Y-49188095D01*
X132452380Y-48711904D01*
X132452380Y-53119047D02*
X132452380Y-52928571D01*
X132500000Y-52833333D01*
X132595238Y-52738095D01*
X132785714Y-52690476D01*
X133119047Y-52690476D01*
X133309523Y-52738095D01*
X133404761Y-52833333D01*
X133452380Y-52928571D01*
X133452380Y-53119047D01*
X133404761Y-53214285D01*
X133309523Y-53309523D01*
X133119047Y-53357142D01*
X132785714Y-53357142D01*
X132595238Y-53309523D01*
X132500000Y-53214285D01*
X132452380Y-53119047D01*
X133452380Y-52261904D02*
X132452380Y-52261904D01*
X133452380Y-51690476D01*
X132452380Y-51690476D01*
X130380952Y-42202380D02*
X130047619Y-41726190D01*
X129809523Y-42202380D02*
X129809523Y-41202380D01*
X130190476Y-41202380D01*
X130285714Y-41250000D01*
X130333333Y-41297619D01*
X130380952Y-41392857D01*
X130380952Y-41535714D01*
X130333333Y-41630952D01*
X130285714Y-41678571D01*
X130190476Y-41726190D01*
X129809523Y-41726190D01*
X130809523Y-41678571D02*
X131142857Y-41678571D01*
X131285714Y-42202380D02*
X130809523Y-42202380D01*
X130809523Y-41202380D01*
X131285714Y-41202380D01*
X132142857Y-41535714D02*
X132142857Y-42202380D01*
X131904761Y-41154761D02*
X131666666Y-41869047D01*
X132285714Y-41869047D01*
X132452380Y-43202380D02*
X132452380Y-43011904D01*
X132500000Y-42916666D01*
X132595238Y-42821428D01*
X132785714Y-42773809D01*
X133119047Y-42773809D01*
X133309523Y-42821428D01*
X133404761Y-42916666D01*
X133452380Y-43011904D01*
X133452380Y-43202380D01*
X133404761Y-43297619D01*
X133309523Y-43392857D01*
X133119047Y-43440476D01*
X132785714Y-43440476D01*
X132595238Y-43392857D01*
X132500000Y-43297619D01*
X132452380Y-43202380D01*
X132928571Y-42011904D02*
X132928571Y-42345238D01*
X133452380Y-42345238D02*
X132452380Y-42345238D01*
X132452380Y-41869047D01*
X132928571Y-41154761D02*
X132928571Y-41488095D01*
X133452380Y-41488095D02*
X132452380Y-41488095D01*
X132452380Y-41011904D01*
X132452380Y-47619047D02*
X132452380Y-47428571D01*
X132500000Y-47333333D01*
X132595238Y-47238095D01*
X132785714Y-47190476D01*
X133119047Y-47190476D01*
X133309523Y-47238095D01*
X133404761Y-47333333D01*
X133452380Y-47428571D01*
X133452380Y-47619047D01*
X133404761Y-47714285D01*
X133309523Y-47809523D01*
X133119047Y-47857142D01*
X132785714Y-47857142D01*
X132595238Y-47809523D01*
X132500000Y-47714285D01*
X132452380Y-47619047D01*
X133452380Y-46761904D02*
X132452380Y-46761904D01*
X133452380Y-46190476D01*
X132452380Y-46190476D01*
X113630952Y-42302380D02*
X113297619Y-41826190D01*
X113059523Y-42302380D02*
X113059523Y-41302380D01*
X113440476Y-41302380D01*
X113535714Y-41350000D01*
X113583333Y-41397619D01*
X113630952Y-41492857D01*
X113630952Y-41635714D01*
X113583333Y-41730952D01*
X113535714Y-41778571D01*
X113440476Y-41826190D01*
X113059523Y-41826190D01*
X114059523Y-41778571D02*
X114392857Y-41778571D01*
X114535714Y-42302380D02*
X114059523Y-42302380D01*
X114059523Y-41302380D01*
X114535714Y-41302380D01*
X114869047Y-41302380D02*
X115488095Y-41302380D01*
X115154761Y-41683333D01*
X115297619Y-41683333D01*
X115392857Y-41730952D01*
X115440476Y-41778571D01*
X115488095Y-41873809D01*
X115488095Y-42111904D01*
X115440476Y-42207142D01*
X115392857Y-42254761D01*
X115297619Y-42302380D01*
X115011904Y-42302380D01*
X114916666Y-42254761D01*
X114869047Y-42207142D01*
X115797619Y-41902380D02*
X115988095Y-41902380D01*
X116083333Y-41950000D01*
X116178571Y-42045238D01*
X116226190Y-42235714D01*
X116226190Y-42569047D01*
X116178571Y-42759523D01*
X116083333Y-42854761D01*
X115988095Y-42902380D01*
X115797619Y-42902380D01*
X115702380Y-42854761D01*
X115607142Y-42759523D01*
X115559523Y-42569047D01*
X115559523Y-42235714D01*
X115607142Y-42045238D01*
X115702380Y-41950000D01*
X115797619Y-41902380D01*
X116988095Y-42378571D02*
X116654761Y-42378571D01*
X116654761Y-42902380D02*
X116654761Y-41902380D01*
X117130952Y-41902380D01*
X117845238Y-42378571D02*
X117511904Y-42378571D01*
X117511904Y-42902380D02*
X117511904Y-41902380D01*
X117988095Y-41902380D01*
X115780952Y-46502380D02*
X115971428Y-46502380D01*
X116066666Y-46550000D01*
X116161904Y-46645238D01*
X116209523Y-46835714D01*
X116209523Y-47169047D01*
X116161904Y-47359523D01*
X116066666Y-47454761D01*
X115971428Y-47502380D01*
X115780952Y-47502380D01*
X115685714Y-47454761D01*
X115590476Y-47359523D01*
X115542857Y-47169047D01*
X115542857Y-46835714D01*
X115590476Y-46645238D01*
X115685714Y-46550000D01*
X115780952Y-46502380D01*
X116638095Y-47502380D02*
X116638095Y-46502380D01*
X117209523Y-47502380D01*
X117209523Y-46502380D01*
X112959523Y-54702380D02*
X112959523Y-53702380D01*
X113197619Y-53702380D01*
X113340476Y-53750000D01*
X113435714Y-53845238D01*
X113483333Y-53940476D01*
X113530952Y-54130952D01*
X113530952Y-54273809D01*
X113483333Y-54464285D01*
X113435714Y-54559523D01*
X113340476Y-54654761D01*
X113197619Y-54702380D01*
X112959523Y-54702380D01*
X113959523Y-54178571D02*
X114292857Y-54178571D01*
X114435714Y-54702380D02*
X113959523Y-54702380D01*
X113959523Y-53702380D01*
X114435714Y-53702380D01*
X114769047Y-53702380D02*
X115388095Y-53702380D01*
X115054761Y-54083333D01*
X115197619Y-54083333D01*
X115292857Y-54130952D01*
X115340476Y-54178571D01*
X115388095Y-54273809D01*
X115388095Y-54511904D01*
X115340476Y-54607142D01*
X115292857Y-54654761D01*
X115197619Y-54702380D01*
X114911904Y-54702380D01*
X114816666Y-54654761D01*
X114769047Y-54607142D01*
X115797619Y-49402380D02*
X115988095Y-49402380D01*
X116083333Y-49450000D01*
X116178571Y-49545238D01*
X116226190Y-49735714D01*
X116226190Y-50069047D01*
X116178571Y-50259523D01*
X116083333Y-50354761D01*
X115988095Y-50402380D01*
X115797619Y-50402380D01*
X115702380Y-50354761D01*
X115607142Y-50259523D01*
X115559523Y-50069047D01*
X115559523Y-49735714D01*
X115607142Y-49545238D01*
X115702380Y-49450000D01*
X115797619Y-49402380D01*
X116988095Y-49878571D02*
X116654761Y-49878571D01*
X116654761Y-50402380D02*
X116654761Y-49402380D01*
X117130952Y-49402380D01*
X117845238Y-49878571D02*
X117511904Y-49878571D01*
X117511904Y-50402380D02*
X117511904Y-49402380D01*
X117988095Y-49402380D01*
X115780952Y-52002380D02*
X115971428Y-52002380D01*
X116066666Y-52050000D01*
X116161904Y-52145238D01*
X116209523Y-52335714D01*
X116209523Y-52669047D01*
X116161904Y-52859523D01*
X116066666Y-52954761D01*
X115971428Y-53002380D01*
X115780952Y-53002380D01*
X115685714Y-52954761D01*
X115590476Y-52859523D01*
X115542857Y-52669047D01*
X115542857Y-52335714D01*
X115590476Y-52145238D01*
X115685714Y-52050000D01*
X115780952Y-52002380D01*
X116638095Y-53002380D02*
X116638095Y-52002380D01*
X117209523Y-53002380D01*
X117209523Y-52002380D01*
X78959523Y-54702380D02*
X78959523Y-53702380D01*
X79197619Y-53702380D01*
X79340476Y-53750000D01*
X79435714Y-53845238D01*
X79483333Y-53940476D01*
X79530952Y-54130952D01*
X79530952Y-54273809D01*
X79483333Y-54464285D01*
X79435714Y-54559523D01*
X79340476Y-54654761D01*
X79197619Y-54702380D01*
X78959523Y-54702380D01*
X79959523Y-54178571D02*
X80292857Y-54178571D01*
X80435714Y-54702380D02*
X79959523Y-54702380D01*
X79959523Y-53702380D01*
X80435714Y-53702380D01*
X81388095Y-54702380D02*
X80816666Y-54702380D01*
X81102380Y-54702380D02*
X81102380Y-53702380D01*
X81007142Y-53845238D01*
X80911904Y-53940476D01*
X80816666Y-53988095D01*
X81797619Y-49402380D02*
X81988095Y-49402380D01*
X82083333Y-49450000D01*
X82178571Y-49545238D01*
X82226190Y-49735714D01*
X82226190Y-50069047D01*
X82178571Y-50259523D01*
X82083333Y-50354761D01*
X81988095Y-50402380D01*
X81797619Y-50402380D01*
X81702380Y-50354761D01*
X81607142Y-50259523D01*
X81559523Y-50069047D01*
X81559523Y-49735714D01*
X81607142Y-49545238D01*
X81702380Y-49450000D01*
X81797619Y-49402380D01*
X82988095Y-49878571D02*
X82654761Y-49878571D01*
X82654761Y-50402380D02*
X82654761Y-49402380D01*
X83130952Y-49402380D01*
X83845238Y-49878571D02*
X83511904Y-49878571D01*
X83511904Y-50402380D02*
X83511904Y-49402380D01*
X83988095Y-49402380D01*
X81780952Y-52002380D02*
X81971428Y-52002380D01*
X82066666Y-52050000D01*
X82161904Y-52145238D01*
X82209523Y-52335714D01*
X82209523Y-52669047D01*
X82161904Y-52859523D01*
X82066666Y-52954761D01*
X81971428Y-53002380D01*
X81780952Y-53002380D01*
X81685714Y-52954761D01*
X81590476Y-52859523D01*
X81542857Y-52669047D01*
X81542857Y-52335714D01*
X81590476Y-52145238D01*
X81685714Y-52050000D01*
X81780952Y-52002380D01*
X82638095Y-53002380D02*
X82638095Y-52002380D01*
X83209523Y-53002380D01*
X83209523Y-52002380D01*
X79630952Y-42302380D02*
X79297619Y-41826190D01*
X79059523Y-42302380D02*
X79059523Y-41302380D01*
X79440476Y-41302380D01*
X79535714Y-41350000D01*
X79583333Y-41397619D01*
X79630952Y-41492857D01*
X79630952Y-41635714D01*
X79583333Y-41730952D01*
X79535714Y-41778571D01*
X79440476Y-41826190D01*
X79059523Y-41826190D01*
X80059523Y-41778571D02*
X80392857Y-41778571D01*
X80535714Y-42302380D02*
X80059523Y-42302380D01*
X80059523Y-41302380D01*
X80535714Y-41302380D01*
X81488095Y-42302380D02*
X80916666Y-42302380D01*
X81202380Y-42302380D02*
X81202380Y-41302380D01*
X81107142Y-41445238D01*
X81011904Y-41540476D01*
X80916666Y-41588095D01*
X81797619Y-41902380D02*
X81988095Y-41902380D01*
X82083333Y-41950000D01*
X82178571Y-42045238D01*
X82226190Y-42235714D01*
X82226190Y-42569047D01*
X82178571Y-42759523D01*
X82083333Y-42854761D01*
X81988095Y-42902380D01*
X81797619Y-42902380D01*
X81702380Y-42854761D01*
X81607142Y-42759523D01*
X81559523Y-42569047D01*
X81559523Y-42235714D01*
X81607142Y-42045238D01*
X81702380Y-41950000D01*
X81797619Y-41902380D01*
X82988095Y-42378571D02*
X82654761Y-42378571D01*
X82654761Y-42902380D02*
X82654761Y-41902380D01*
X83130952Y-41902380D01*
X83845238Y-42378571D02*
X83511904Y-42378571D01*
X83511904Y-42902380D02*
X83511904Y-41902380D01*
X83988095Y-41902380D01*
X81780952Y-46502380D02*
X81971428Y-46502380D01*
X82066666Y-46550000D01*
X82161904Y-46645238D01*
X82209523Y-46835714D01*
X82209523Y-47169047D01*
X82161904Y-47359523D01*
X82066666Y-47454761D01*
X81971428Y-47502380D01*
X81780952Y-47502380D01*
X81685714Y-47454761D01*
X81590476Y-47359523D01*
X81542857Y-47169047D01*
X81542857Y-46835714D01*
X81590476Y-46645238D01*
X81685714Y-46550000D01*
X81780952Y-46502380D01*
X82638095Y-47502380D02*
X82638095Y-46502380D01*
X83209523Y-47502380D01*
X83209523Y-46502380D01*
X95959523Y-54702380D02*
X95959523Y-53702380D01*
X96197619Y-53702380D01*
X96340476Y-53750000D01*
X96435714Y-53845238D01*
X96483333Y-53940476D01*
X96530952Y-54130952D01*
X96530952Y-54273809D01*
X96483333Y-54464285D01*
X96435714Y-54559523D01*
X96340476Y-54654761D01*
X96197619Y-54702380D01*
X95959523Y-54702380D01*
X96959523Y-54178571D02*
X97292857Y-54178571D01*
X97435714Y-54702380D02*
X96959523Y-54702380D01*
X96959523Y-53702380D01*
X97435714Y-53702380D01*
X97816666Y-53797619D02*
X97864285Y-53750000D01*
X97959523Y-53702380D01*
X98197619Y-53702380D01*
X98292857Y-53750000D01*
X98340476Y-53797619D01*
X98388095Y-53892857D01*
X98388095Y-53988095D01*
X98340476Y-54130952D01*
X97769047Y-54702380D01*
X98388095Y-54702380D01*
X98797619Y-49402380D02*
X98988095Y-49402380D01*
X99083333Y-49450000D01*
X99178571Y-49545238D01*
X99226190Y-49735714D01*
X99226190Y-50069047D01*
X99178571Y-50259523D01*
X99083333Y-50354761D01*
X98988095Y-50402380D01*
X98797619Y-50402380D01*
X98702380Y-50354761D01*
X98607142Y-50259523D01*
X98559523Y-50069047D01*
X98559523Y-49735714D01*
X98607142Y-49545238D01*
X98702380Y-49450000D01*
X98797619Y-49402380D01*
X99988095Y-49878571D02*
X99654761Y-49878571D01*
X99654761Y-50402380D02*
X99654761Y-49402380D01*
X100130952Y-49402380D01*
X100845238Y-49878571D02*
X100511904Y-49878571D01*
X100511904Y-50402380D02*
X100511904Y-49402380D01*
X100988095Y-49402380D01*
X98780952Y-52002380D02*
X98971428Y-52002380D01*
X99066666Y-52050000D01*
X99161904Y-52145238D01*
X99209523Y-52335714D01*
X99209523Y-52669047D01*
X99161904Y-52859523D01*
X99066666Y-52954761D01*
X98971428Y-53002380D01*
X98780952Y-53002380D01*
X98685714Y-52954761D01*
X98590476Y-52859523D01*
X98542857Y-52669047D01*
X98542857Y-52335714D01*
X98590476Y-52145238D01*
X98685714Y-52050000D01*
X98780952Y-52002380D01*
X99638095Y-53002380D02*
X99638095Y-52002380D01*
X100209523Y-53002380D01*
X100209523Y-52002380D01*
X96630952Y-42302380D02*
X96297619Y-41826190D01*
X96059523Y-42302380D02*
X96059523Y-41302380D01*
X96440476Y-41302380D01*
X96535714Y-41350000D01*
X96583333Y-41397619D01*
X96630952Y-41492857D01*
X96630952Y-41635714D01*
X96583333Y-41730952D01*
X96535714Y-41778571D01*
X96440476Y-41826190D01*
X96059523Y-41826190D01*
X97059523Y-41778571D02*
X97392857Y-41778571D01*
X97535714Y-42302380D02*
X97059523Y-42302380D01*
X97059523Y-41302380D01*
X97535714Y-41302380D01*
X97916666Y-41397619D02*
X97964285Y-41350000D01*
X98059523Y-41302380D01*
X98297619Y-41302380D01*
X98392857Y-41350000D01*
X98440476Y-41397619D01*
X98488095Y-41492857D01*
X98488095Y-41588095D01*
X98440476Y-41730952D01*
X97869047Y-42302380D01*
X98488095Y-42302380D01*
X98797619Y-41902380D02*
X98988095Y-41902380D01*
X99083333Y-41950000D01*
X99178571Y-42045238D01*
X99226190Y-42235714D01*
X99226190Y-42569047D01*
X99178571Y-42759523D01*
X99083333Y-42854761D01*
X98988095Y-42902380D01*
X98797619Y-42902380D01*
X98702380Y-42854761D01*
X98607142Y-42759523D01*
X98559523Y-42569047D01*
X98559523Y-42235714D01*
X98607142Y-42045238D01*
X98702380Y-41950000D01*
X98797619Y-41902380D01*
X99988095Y-42378571D02*
X99654761Y-42378571D01*
X99654761Y-42902380D02*
X99654761Y-41902380D01*
X100130952Y-41902380D01*
X100845238Y-42378571D02*
X100511904Y-42378571D01*
X100511904Y-42902380D02*
X100511904Y-41902380D01*
X100988095Y-41902380D01*
X98780952Y-46452380D02*
X98971428Y-46452380D01*
X99066666Y-46500000D01*
X99161904Y-46595238D01*
X99209523Y-46785714D01*
X99209523Y-47119047D01*
X99161904Y-47309523D01*
X99066666Y-47404761D01*
X98971428Y-47452380D01*
X98780952Y-47452380D01*
X98685714Y-47404761D01*
X98590476Y-47309523D01*
X98542857Y-47119047D01*
X98542857Y-46785714D01*
X98590476Y-46595238D01*
X98685714Y-46500000D01*
X98780952Y-46452380D01*
X99638095Y-47452380D02*
X99638095Y-46452380D01*
X100209523Y-47452380D01*
X100209523Y-46452380D01*
X99259523Y-82802380D02*
X99259523Y-81802380D01*
X99497619Y-81802380D01*
X99640476Y-81850000D01*
X99735714Y-81945238D01*
X99783333Y-82040476D01*
X99830952Y-82230952D01*
X99830952Y-82373809D01*
X99783333Y-82564285D01*
X99735714Y-82659523D01*
X99640476Y-82754761D01*
X99497619Y-82802380D01*
X99259523Y-82802380D01*
X100259523Y-82278571D02*
X100592857Y-82278571D01*
X100735714Y-82802380D02*
X100259523Y-82802380D01*
X100259523Y-81802380D01*
X100735714Y-81802380D01*
X101592857Y-81802380D02*
X101402380Y-81802380D01*
X101307142Y-81850000D01*
X101259523Y-81897619D01*
X101164285Y-82040476D01*
X101116666Y-82230952D01*
X101116666Y-82611904D01*
X101164285Y-82707142D01*
X101211904Y-82754761D01*
X101307142Y-82802380D01*
X101497619Y-82802380D01*
X101592857Y-82754761D01*
X101640476Y-82707142D01*
X101688095Y-82611904D01*
X101688095Y-82373809D01*
X101640476Y-82278571D01*
X101592857Y-82230952D01*
X101497619Y-82183333D01*
X101307142Y-82183333D01*
X101211904Y-82230952D01*
X101164285Y-82278571D01*
X101116666Y-82373809D01*
X96797619Y-86002380D02*
X96988095Y-86002380D01*
X97083333Y-86050000D01*
X97178571Y-86145238D01*
X97226190Y-86335714D01*
X97226190Y-86669047D01*
X97178571Y-86859523D01*
X97083333Y-86954761D01*
X96988095Y-87002380D01*
X96797619Y-87002380D01*
X96702380Y-86954761D01*
X96607142Y-86859523D01*
X96559523Y-86669047D01*
X96559523Y-86335714D01*
X96607142Y-86145238D01*
X96702380Y-86050000D01*
X96797619Y-86002380D01*
X97988095Y-86478571D02*
X97654761Y-86478571D01*
X97654761Y-87002380D02*
X97654761Y-86002380D01*
X98130952Y-86002380D01*
X98845238Y-86478571D02*
X98511904Y-86478571D01*
X98511904Y-87002380D02*
X98511904Y-86002380D01*
X98988095Y-86002380D01*
X97630952Y-83402380D02*
X97821428Y-83402380D01*
X97916666Y-83450000D01*
X98011904Y-83545238D01*
X98059523Y-83735714D01*
X98059523Y-84069047D01*
X98011904Y-84259523D01*
X97916666Y-84354761D01*
X97821428Y-84402380D01*
X97630952Y-84402380D01*
X97535714Y-84354761D01*
X97440476Y-84259523D01*
X97392857Y-84069047D01*
X97392857Y-83735714D01*
X97440476Y-83545238D01*
X97535714Y-83450000D01*
X97630952Y-83402380D01*
X98488095Y-84402380D02*
X98488095Y-83402380D01*
X99059523Y-84402380D01*
X99059523Y-83402380D01*
X65930952Y-95202380D02*
X65597619Y-94726190D01*
X65359523Y-95202380D02*
X65359523Y-94202380D01*
X65740476Y-94202380D01*
X65835714Y-94250000D01*
X65883333Y-94297619D01*
X65930952Y-94392857D01*
X65930952Y-94535714D01*
X65883333Y-94630952D01*
X65835714Y-94678571D01*
X65740476Y-94726190D01*
X65359523Y-94726190D01*
X66359523Y-94678571D02*
X66692857Y-94678571D01*
X66835714Y-95202380D02*
X66359523Y-95202380D01*
X66359523Y-94202380D01*
X66835714Y-94202380D01*
X67407142Y-94630952D02*
X67311904Y-94583333D01*
X67264285Y-94535714D01*
X67216666Y-94440476D01*
X67216666Y-94392857D01*
X67264285Y-94297619D01*
X67311904Y-94250000D01*
X67407142Y-94202380D01*
X67597619Y-94202380D01*
X67692857Y-94250000D01*
X67740476Y-94297619D01*
X67788095Y-94392857D01*
X67788095Y-94440476D01*
X67740476Y-94535714D01*
X67692857Y-94583333D01*
X67597619Y-94630952D01*
X67407142Y-94630952D01*
X67311904Y-94678571D01*
X67264285Y-94726190D01*
X67216666Y-94821428D01*
X67216666Y-95011904D01*
X67264285Y-95107142D01*
X67311904Y-95154761D01*
X67407142Y-95202380D01*
X67597619Y-95202380D01*
X67692857Y-95154761D01*
X67740476Y-95107142D01*
X67788095Y-95011904D01*
X67788095Y-94821428D01*
X67740476Y-94726190D01*
X67692857Y-94678571D01*
X67597619Y-94630952D01*
X62997619Y-93252380D02*
X63188095Y-93252380D01*
X63283333Y-93300000D01*
X63378571Y-93395238D01*
X63426190Y-93585714D01*
X63426190Y-93919047D01*
X63378571Y-94109523D01*
X63283333Y-94204761D01*
X63188095Y-94252380D01*
X62997619Y-94252380D01*
X62902380Y-94204761D01*
X62807142Y-94109523D01*
X62759523Y-93919047D01*
X62759523Y-93585714D01*
X62807142Y-93395238D01*
X62902380Y-93300000D01*
X62997619Y-93252380D01*
X64188095Y-93728571D02*
X63854761Y-93728571D01*
X63854761Y-94252380D02*
X63854761Y-93252380D01*
X64330952Y-93252380D01*
X65045238Y-93728571D02*
X64711904Y-93728571D01*
X64711904Y-94252380D02*
X64711904Y-93252380D01*
X65188095Y-93252380D01*
X63730952Y-88902380D02*
X63921428Y-88902380D01*
X64016666Y-88950000D01*
X64111904Y-89045238D01*
X64159523Y-89235714D01*
X64159523Y-89569047D01*
X64111904Y-89759523D01*
X64016666Y-89854761D01*
X63921428Y-89902380D01*
X63730952Y-89902380D01*
X63635714Y-89854761D01*
X63540476Y-89759523D01*
X63492857Y-89569047D01*
X63492857Y-89235714D01*
X63540476Y-89045238D01*
X63635714Y-88950000D01*
X63730952Y-88902380D01*
X64588095Y-89902380D02*
X64588095Y-88902380D01*
X65159523Y-89902380D01*
X65159523Y-88902380D01*
X66059523Y-82802380D02*
X66059523Y-81802380D01*
X66297619Y-81802380D01*
X66440476Y-81850000D01*
X66535714Y-81945238D01*
X66583333Y-82040476D01*
X66630952Y-82230952D01*
X66630952Y-82373809D01*
X66583333Y-82564285D01*
X66535714Y-82659523D01*
X66440476Y-82754761D01*
X66297619Y-82802380D01*
X66059523Y-82802380D01*
X67059523Y-82278571D02*
X67392857Y-82278571D01*
X67535714Y-82802380D02*
X67059523Y-82802380D01*
X67059523Y-81802380D01*
X67535714Y-81802380D01*
X68107142Y-82230952D02*
X68011904Y-82183333D01*
X67964285Y-82135714D01*
X67916666Y-82040476D01*
X67916666Y-81992857D01*
X67964285Y-81897619D01*
X68011904Y-81850000D01*
X68107142Y-81802380D01*
X68297619Y-81802380D01*
X68392857Y-81850000D01*
X68440476Y-81897619D01*
X68488095Y-81992857D01*
X68488095Y-82040476D01*
X68440476Y-82135714D01*
X68392857Y-82183333D01*
X68297619Y-82230952D01*
X68107142Y-82230952D01*
X68011904Y-82278571D01*
X67964285Y-82326190D01*
X67916666Y-82421428D01*
X67916666Y-82611904D01*
X67964285Y-82707142D01*
X68011904Y-82754761D01*
X68107142Y-82802380D01*
X68297619Y-82802380D01*
X68392857Y-82754761D01*
X68440476Y-82707142D01*
X68488095Y-82611904D01*
X68488095Y-82421428D01*
X68440476Y-82326190D01*
X68392857Y-82278571D01*
X68297619Y-82230952D01*
X62797619Y-86002380D02*
X62988095Y-86002380D01*
X63083333Y-86050000D01*
X63178571Y-86145238D01*
X63226190Y-86335714D01*
X63226190Y-86669047D01*
X63178571Y-86859523D01*
X63083333Y-86954761D01*
X62988095Y-87002380D01*
X62797619Y-87002380D01*
X62702380Y-86954761D01*
X62607142Y-86859523D01*
X62559523Y-86669047D01*
X62559523Y-86335714D01*
X62607142Y-86145238D01*
X62702380Y-86050000D01*
X62797619Y-86002380D01*
X63988095Y-86478571D02*
X63654761Y-86478571D01*
X63654761Y-87002380D02*
X63654761Y-86002380D01*
X64130952Y-86002380D01*
X64845238Y-86478571D02*
X64511904Y-86478571D01*
X64511904Y-87002380D02*
X64511904Y-86002380D01*
X64988095Y-86002380D01*
X63630952Y-83402380D02*
X63821428Y-83402380D01*
X63916666Y-83450000D01*
X64011904Y-83545238D01*
X64059523Y-83735714D01*
X64059523Y-84069047D01*
X64011904Y-84259523D01*
X63916666Y-84354761D01*
X63821428Y-84402380D01*
X63630952Y-84402380D01*
X63535714Y-84354761D01*
X63440476Y-84259523D01*
X63392857Y-84069047D01*
X63392857Y-83735714D01*
X63440476Y-83545238D01*
X63535714Y-83450000D01*
X63630952Y-83402380D01*
X64488095Y-84402380D02*
X64488095Y-83402380D01*
X65059523Y-84402380D01*
X65059523Y-83402380D01*
X82880952Y-95202380D02*
X82547619Y-94726190D01*
X82309523Y-95202380D02*
X82309523Y-94202380D01*
X82690476Y-94202380D01*
X82785714Y-94250000D01*
X82833333Y-94297619D01*
X82880952Y-94392857D01*
X82880952Y-94535714D01*
X82833333Y-94630952D01*
X82785714Y-94678571D01*
X82690476Y-94726190D01*
X82309523Y-94726190D01*
X83309523Y-94678571D02*
X83642857Y-94678571D01*
X83785714Y-95202380D02*
X83309523Y-95202380D01*
X83309523Y-94202380D01*
X83785714Y-94202380D01*
X84119047Y-94202380D02*
X84785714Y-94202380D01*
X84357142Y-95202380D01*
X80047619Y-93252380D02*
X80238095Y-93252380D01*
X80333333Y-93300000D01*
X80428571Y-93395238D01*
X80476190Y-93585714D01*
X80476190Y-93919047D01*
X80428571Y-94109523D01*
X80333333Y-94204761D01*
X80238095Y-94252380D01*
X80047619Y-94252380D01*
X79952380Y-94204761D01*
X79857142Y-94109523D01*
X79809523Y-93919047D01*
X79809523Y-93585714D01*
X79857142Y-93395238D01*
X79952380Y-93300000D01*
X80047619Y-93252380D01*
X81238095Y-93728571D02*
X80904761Y-93728571D01*
X80904761Y-94252380D02*
X80904761Y-93252380D01*
X81380952Y-93252380D01*
X82095238Y-93728571D02*
X81761904Y-93728571D01*
X81761904Y-94252380D02*
X81761904Y-93252380D01*
X82238095Y-93252380D01*
X80680952Y-88902380D02*
X80871428Y-88902380D01*
X80966666Y-88950000D01*
X81061904Y-89045238D01*
X81109523Y-89235714D01*
X81109523Y-89569047D01*
X81061904Y-89759523D01*
X80966666Y-89854761D01*
X80871428Y-89902380D01*
X80680952Y-89902380D01*
X80585714Y-89854761D01*
X80490476Y-89759523D01*
X80442857Y-89569047D01*
X80442857Y-89235714D01*
X80490476Y-89045238D01*
X80585714Y-88950000D01*
X80680952Y-88902380D01*
X81538095Y-89902380D02*
X81538095Y-88902380D01*
X82109523Y-89902380D01*
X82109523Y-88902380D01*
X116930952Y-95202380D02*
X116597619Y-94726190D01*
X116359523Y-95202380D02*
X116359523Y-94202380D01*
X116740476Y-94202380D01*
X116835714Y-94250000D01*
X116883333Y-94297619D01*
X116930952Y-94392857D01*
X116930952Y-94535714D01*
X116883333Y-94630952D01*
X116835714Y-94678571D01*
X116740476Y-94726190D01*
X116359523Y-94726190D01*
X117359523Y-94678571D02*
X117692857Y-94678571D01*
X117835714Y-95202380D02*
X117359523Y-95202380D01*
X117359523Y-94202380D01*
X117835714Y-94202380D01*
X118740476Y-94202380D02*
X118264285Y-94202380D01*
X118216666Y-94678571D01*
X118264285Y-94630952D01*
X118359523Y-94583333D01*
X118597619Y-94583333D01*
X118692857Y-94630952D01*
X118740476Y-94678571D01*
X118788095Y-94773809D01*
X118788095Y-95011904D01*
X118740476Y-95107142D01*
X118692857Y-95154761D01*
X118597619Y-95202380D01*
X118359523Y-95202380D01*
X118264285Y-95154761D01*
X118216666Y-95107142D01*
X113997619Y-93252380D02*
X114188095Y-93252380D01*
X114283333Y-93300000D01*
X114378571Y-93395238D01*
X114426190Y-93585714D01*
X114426190Y-93919047D01*
X114378571Y-94109523D01*
X114283333Y-94204761D01*
X114188095Y-94252380D01*
X113997619Y-94252380D01*
X113902380Y-94204761D01*
X113807142Y-94109523D01*
X113759523Y-93919047D01*
X113759523Y-93585714D01*
X113807142Y-93395238D01*
X113902380Y-93300000D01*
X113997619Y-93252380D01*
X115188095Y-93728571D02*
X114854761Y-93728571D01*
X114854761Y-94252380D02*
X114854761Y-93252380D01*
X115330952Y-93252380D01*
X116045238Y-93728571D02*
X115711904Y-93728571D01*
X115711904Y-94252380D02*
X115711904Y-93252380D01*
X116188095Y-93252380D01*
X114680952Y-88902380D02*
X114871428Y-88902380D01*
X114966666Y-88950000D01*
X115061904Y-89045238D01*
X115109523Y-89235714D01*
X115109523Y-89569047D01*
X115061904Y-89759523D01*
X114966666Y-89854761D01*
X114871428Y-89902380D01*
X114680952Y-89902380D01*
X114585714Y-89854761D01*
X114490476Y-89759523D01*
X114442857Y-89569047D01*
X114442857Y-89235714D01*
X114490476Y-89045238D01*
X114585714Y-88950000D01*
X114680952Y-88902380D01*
X115538095Y-89902380D02*
X115538095Y-88902380D01*
X116109523Y-89902380D01*
X116109523Y-88902380D01*
X82259523Y-82802380D02*
X82259523Y-81802380D01*
X82497619Y-81802380D01*
X82640476Y-81850000D01*
X82735714Y-81945238D01*
X82783333Y-82040476D01*
X82830952Y-82230952D01*
X82830952Y-82373809D01*
X82783333Y-82564285D01*
X82735714Y-82659523D01*
X82640476Y-82754761D01*
X82497619Y-82802380D01*
X82259523Y-82802380D01*
X83259523Y-82278571D02*
X83592857Y-82278571D01*
X83735714Y-82802380D02*
X83259523Y-82802380D01*
X83259523Y-81802380D01*
X83735714Y-81802380D01*
X84069047Y-81802380D02*
X84735714Y-81802380D01*
X84307142Y-82802380D01*
X79797619Y-86002380D02*
X79988095Y-86002380D01*
X80083333Y-86050000D01*
X80178571Y-86145238D01*
X80226190Y-86335714D01*
X80226190Y-86669047D01*
X80178571Y-86859523D01*
X80083333Y-86954761D01*
X79988095Y-87002380D01*
X79797619Y-87002380D01*
X79702380Y-86954761D01*
X79607142Y-86859523D01*
X79559523Y-86669047D01*
X79559523Y-86335714D01*
X79607142Y-86145238D01*
X79702380Y-86050000D01*
X79797619Y-86002380D01*
X80988095Y-86478571D02*
X80654761Y-86478571D01*
X80654761Y-87002380D02*
X80654761Y-86002380D01*
X81130952Y-86002380D01*
X81845238Y-86478571D02*
X81511904Y-86478571D01*
X81511904Y-87002380D02*
X81511904Y-86002380D01*
X81988095Y-86002380D01*
X80630952Y-83402380D02*
X80821428Y-83402380D01*
X80916666Y-83450000D01*
X81011904Y-83545238D01*
X81059523Y-83735714D01*
X81059523Y-84069047D01*
X81011904Y-84259523D01*
X80916666Y-84354761D01*
X80821428Y-84402380D01*
X80630952Y-84402380D01*
X80535714Y-84354761D01*
X80440476Y-84259523D01*
X80392857Y-84069047D01*
X80392857Y-83735714D01*
X80440476Y-83545238D01*
X80535714Y-83450000D01*
X80630952Y-83402380D01*
X81488095Y-84402380D02*
X81488095Y-83402380D01*
X82059523Y-84402380D01*
X82059523Y-83402380D01*
X99930952Y-95202380D02*
X99597619Y-94726190D01*
X99359523Y-95202380D02*
X99359523Y-94202380D01*
X99740476Y-94202380D01*
X99835714Y-94250000D01*
X99883333Y-94297619D01*
X99930952Y-94392857D01*
X99930952Y-94535714D01*
X99883333Y-94630952D01*
X99835714Y-94678571D01*
X99740476Y-94726190D01*
X99359523Y-94726190D01*
X100359523Y-94678571D02*
X100692857Y-94678571D01*
X100835714Y-95202380D02*
X100359523Y-95202380D01*
X100359523Y-94202380D01*
X100835714Y-94202380D01*
X101692857Y-94202380D02*
X101502380Y-94202380D01*
X101407142Y-94250000D01*
X101359523Y-94297619D01*
X101264285Y-94440476D01*
X101216666Y-94630952D01*
X101216666Y-95011904D01*
X101264285Y-95107142D01*
X101311904Y-95154761D01*
X101407142Y-95202380D01*
X101597619Y-95202380D01*
X101692857Y-95154761D01*
X101740476Y-95107142D01*
X101788095Y-95011904D01*
X101788095Y-94773809D01*
X101740476Y-94678571D01*
X101692857Y-94630952D01*
X101597619Y-94583333D01*
X101407142Y-94583333D01*
X101311904Y-94630952D01*
X101264285Y-94678571D01*
X101216666Y-94773809D01*
X96997619Y-93252380D02*
X97188095Y-93252380D01*
X97283333Y-93300000D01*
X97378571Y-93395238D01*
X97426190Y-93585714D01*
X97426190Y-93919047D01*
X97378571Y-94109523D01*
X97283333Y-94204761D01*
X97188095Y-94252380D01*
X96997619Y-94252380D01*
X96902380Y-94204761D01*
X96807142Y-94109523D01*
X96759523Y-93919047D01*
X96759523Y-93585714D01*
X96807142Y-93395238D01*
X96902380Y-93300000D01*
X96997619Y-93252380D01*
X98188095Y-93728571D02*
X97854761Y-93728571D01*
X97854761Y-94252380D02*
X97854761Y-93252380D01*
X98330952Y-93252380D01*
X99045238Y-93728571D02*
X98711904Y-93728571D01*
X98711904Y-94252380D02*
X98711904Y-93252380D01*
X99188095Y-93252380D01*
X97780952Y-88902380D02*
X97971428Y-88902380D01*
X98066666Y-88950000D01*
X98161904Y-89045238D01*
X98209523Y-89235714D01*
X98209523Y-89569047D01*
X98161904Y-89759523D01*
X98066666Y-89854761D01*
X97971428Y-89902380D01*
X97780952Y-89902380D01*
X97685714Y-89854761D01*
X97590476Y-89759523D01*
X97542857Y-89569047D01*
X97542857Y-89235714D01*
X97590476Y-89045238D01*
X97685714Y-88950000D01*
X97780952Y-88902380D01*
X98638095Y-89902380D02*
X98638095Y-88902380D01*
X99209523Y-89902380D01*
X99209523Y-88902380D01*
X108202380Y-72642857D02*
X107726190Y-72976190D01*
X108202380Y-73214285D02*
X107202380Y-73214285D01*
X107202380Y-72833333D01*
X107250000Y-72738095D01*
X107297619Y-72690476D01*
X107392857Y-72642857D01*
X107535714Y-72642857D01*
X107630952Y-72690476D01*
X107678571Y-72738095D01*
X107726190Y-72833333D01*
X107726190Y-73214285D01*
X107202380Y-72309523D02*
X107202380Y-71690476D01*
X107583333Y-72023809D01*
X107583333Y-71880952D01*
X107630952Y-71785714D01*
X107678571Y-71738095D01*
X107773809Y-71690476D01*
X108011904Y-71690476D01*
X108107142Y-71738095D01*
X108154761Y-71785714D01*
X108202380Y-71880952D01*
X108202380Y-72166666D01*
X108154761Y-72261904D01*
X108107142Y-72309523D01*
X107297619Y-71309523D02*
X107250000Y-71261904D01*
X107202380Y-71166666D01*
X107202380Y-70928571D01*
X107250000Y-70833333D01*
X107297619Y-70785714D01*
X107392857Y-70738095D01*
X107488095Y-70738095D01*
X107630952Y-70785714D01*
X108202380Y-71357142D01*
X108202380Y-70738095D01*
X114072380Y-72642857D02*
X113596190Y-72976190D01*
X114072380Y-73214285D02*
X113072380Y-73214285D01*
X113072380Y-72833333D01*
X113120000Y-72738095D01*
X113167619Y-72690476D01*
X113262857Y-72642857D01*
X113405714Y-72642857D01*
X113500952Y-72690476D01*
X113548571Y-72738095D01*
X113596190Y-72833333D01*
X113596190Y-73214285D01*
X113072380Y-72309523D02*
X113072380Y-71690476D01*
X113453333Y-72023809D01*
X113453333Y-71880952D01*
X113500952Y-71785714D01*
X113548571Y-71738095D01*
X113643809Y-71690476D01*
X113881904Y-71690476D01*
X113977142Y-71738095D01*
X114024761Y-71785714D01*
X114072380Y-71880952D01*
X114072380Y-72166666D01*
X114024761Y-72261904D01*
X113977142Y-72309523D01*
X114072380Y-70738095D02*
X114072380Y-71309523D01*
X114072380Y-71023809D02*
X113072380Y-71023809D01*
X113215238Y-71119047D01*
X113310476Y-71214285D01*
X113358095Y-71309523D01*
X104202380Y-72642857D02*
X103726190Y-72976190D01*
X104202380Y-73214285D02*
X103202380Y-73214285D01*
X103202380Y-72833333D01*
X103250000Y-72738095D01*
X103297619Y-72690476D01*
X103392857Y-72642857D01*
X103535714Y-72642857D01*
X103630952Y-72690476D01*
X103678571Y-72738095D01*
X103726190Y-72833333D01*
X103726190Y-73214285D01*
X103202380Y-72309523D02*
X103202380Y-71690476D01*
X103583333Y-72023809D01*
X103583333Y-71880952D01*
X103630952Y-71785714D01*
X103678571Y-71738095D01*
X103773809Y-71690476D01*
X104011904Y-71690476D01*
X104107142Y-71738095D01*
X104154761Y-71785714D01*
X104202380Y-71880952D01*
X104202380Y-72166666D01*
X104154761Y-72261904D01*
X104107142Y-72309523D01*
X103202380Y-71071428D02*
X103202380Y-70976190D01*
X103250000Y-70880952D01*
X103297619Y-70833333D01*
X103392857Y-70785714D01*
X103583333Y-70738095D01*
X103821428Y-70738095D01*
X104011904Y-70785714D01*
X104107142Y-70833333D01*
X104154761Y-70880952D01*
X104202380Y-70976190D01*
X104202380Y-71071428D01*
X104154761Y-71166666D01*
X104107142Y-71214285D01*
X104011904Y-71261904D01*
X103821428Y-71309523D01*
X103583333Y-71309523D01*
X103392857Y-71261904D01*
X103297619Y-71214285D01*
X103250000Y-71166666D01*
X103202380Y-71071428D01*
X98072380Y-72642857D02*
X97596190Y-72976190D01*
X98072380Y-73214285D02*
X97072380Y-73214285D01*
X97072380Y-72833333D01*
X97120000Y-72738095D01*
X97167619Y-72690476D01*
X97262857Y-72642857D01*
X97405714Y-72642857D01*
X97500952Y-72690476D01*
X97548571Y-72738095D01*
X97596190Y-72833333D01*
X97596190Y-73214285D01*
X97167619Y-72261904D02*
X97120000Y-72214285D01*
X97072380Y-72119047D01*
X97072380Y-71880952D01*
X97120000Y-71785714D01*
X97167619Y-71738095D01*
X97262857Y-71690476D01*
X97358095Y-71690476D01*
X97500952Y-71738095D01*
X98072380Y-72309523D01*
X98072380Y-71690476D01*
X98072380Y-71214285D02*
X98072380Y-71023809D01*
X98024761Y-70928571D01*
X97977142Y-70880952D01*
X97834285Y-70785714D01*
X97643809Y-70738095D01*
X97262857Y-70738095D01*
X97167619Y-70785714D01*
X97120000Y-70833333D01*
X97072380Y-70928571D01*
X97072380Y-71119047D01*
X97120000Y-71214285D01*
X97167619Y-71261904D01*
X97262857Y-71309523D01*
X97500952Y-71309523D01*
X97596190Y-71261904D01*
X97643809Y-71214285D01*
X97691428Y-71119047D01*
X97691428Y-70928571D01*
X97643809Y-70833333D01*
X97596190Y-70785714D01*
X97500952Y-70738095D01*
X92992380Y-72642857D02*
X92516190Y-72976190D01*
X92992380Y-73214285D02*
X91992380Y-73214285D01*
X91992380Y-72833333D01*
X92040000Y-72738095D01*
X92087619Y-72690476D01*
X92182857Y-72642857D01*
X92325714Y-72642857D01*
X92420952Y-72690476D01*
X92468571Y-72738095D01*
X92516190Y-72833333D01*
X92516190Y-73214285D01*
X92087619Y-72261904D02*
X92040000Y-72214285D01*
X91992380Y-72119047D01*
X91992380Y-71880952D01*
X92040000Y-71785714D01*
X92087619Y-71738095D01*
X92182857Y-71690476D01*
X92278095Y-71690476D01*
X92420952Y-71738095D01*
X92992380Y-72309523D01*
X92992380Y-71690476D01*
X92420952Y-71119047D02*
X92373333Y-71214285D01*
X92325714Y-71261904D01*
X92230476Y-71309523D01*
X92182857Y-71309523D01*
X92087619Y-71261904D01*
X92040000Y-71214285D01*
X91992380Y-71119047D01*
X91992380Y-70928571D01*
X92040000Y-70833333D01*
X92087619Y-70785714D01*
X92182857Y-70738095D01*
X92230476Y-70738095D01*
X92325714Y-70785714D01*
X92373333Y-70833333D01*
X92420952Y-70928571D01*
X92420952Y-71119047D01*
X92468571Y-71214285D01*
X92516190Y-71261904D01*
X92611428Y-71309523D01*
X92801904Y-71309523D01*
X92897142Y-71261904D01*
X92944761Y-71214285D01*
X92992380Y-71119047D01*
X92992380Y-70928571D01*
X92944761Y-70833333D01*
X92897142Y-70785714D01*
X92801904Y-70738095D01*
X92611428Y-70738095D01*
X92516190Y-70785714D01*
X92468571Y-70833333D01*
X92420952Y-70928571D01*
X93752380Y-64892857D02*
X93276190Y-65226190D01*
X93752380Y-65464285D02*
X92752380Y-65464285D01*
X92752380Y-65083333D01*
X92800000Y-64988095D01*
X92847619Y-64940476D01*
X92942857Y-64892857D01*
X93085714Y-64892857D01*
X93180952Y-64940476D01*
X93228571Y-64988095D01*
X93276190Y-65083333D01*
X93276190Y-65464285D01*
X92847619Y-64511904D02*
X92800000Y-64464285D01*
X92752380Y-64369047D01*
X92752380Y-64130952D01*
X92800000Y-64035714D01*
X92847619Y-63988095D01*
X92942857Y-63940476D01*
X93038095Y-63940476D01*
X93180952Y-63988095D01*
X93752380Y-64559523D01*
X93752380Y-63940476D01*
X92752380Y-63607142D02*
X92752380Y-62940476D01*
X93752380Y-63369047D01*
X98832380Y-64892857D02*
X98356190Y-65226190D01*
X98832380Y-65464285D02*
X97832380Y-65464285D01*
X97832380Y-65083333D01*
X97880000Y-64988095D01*
X97927619Y-64940476D01*
X98022857Y-64892857D01*
X98165714Y-64892857D01*
X98260952Y-64940476D01*
X98308571Y-64988095D01*
X98356190Y-65083333D01*
X98356190Y-65464285D01*
X97927619Y-64511904D02*
X97880000Y-64464285D01*
X97832380Y-64369047D01*
X97832380Y-64130952D01*
X97880000Y-64035714D01*
X97927619Y-63988095D01*
X98022857Y-63940476D01*
X98118095Y-63940476D01*
X98260952Y-63988095D01*
X98832380Y-64559523D01*
X98832380Y-63940476D01*
X97832380Y-63083333D02*
X97832380Y-63273809D01*
X97880000Y-63369047D01*
X97927619Y-63416666D01*
X98070476Y-63511904D01*
X98260952Y-63559523D01*
X98641904Y-63559523D01*
X98737142Y-63511904D01*
X98784761Y-63464285D01*
X98832380Y-63369047D01*
X98832380Y-63178571D01*
X98784761Y-63083333D01*
X98737142Y-63035714D01*
X98641904Y-62988095D01*
X98403809Y-62988095D01*
X98308571Y-63035714D01*
X98260952Y-63083333D01*
X98213333Y-63178571D01*
X98213333Y-63369047D01*
X98260952Y-63464285D01*
X98308571Y-63511904D01*
X98403809Y-63559523D01*
X102412380Y-68142857D02*
X101936190Y-68476190D01*
X102412380Y-68714285D02*
X101412380Y-68714285D01*
X101412380Y-68333333D01*
X101460000Y-68238095D01*
X101507619Y-68190476D01*
X101602857Y-68142857D01*
X101745714Y-68142857D01*
X101840952Y-68190476D01*
X101888571Y-68238095D01*
X101936190Y-68333333D01*
X101936190Y-68714285D01*
X101507619Y-67761904D02*
X101460000Y-67714285D01*
X101412380Y-67619047D01*
X101412380Y-67380952D01*
X101460000Y-67285714D01*
X101507619Y-67238095D01*
X101602857Y-67190476D01*
X101698095Y-67190476D01*
X101840952Y-67238095D01*
X102412380Y-67809523D01*
X102412380Y-67190476D01*
X101412380Y-66285714D02*
X101412380Y-66761904D01*
X101888571Y-66809523D01*
X101840952Y-66761904D01*
X101793333Y-66666666D01*
X101793333Y-66428571D01*
X101840952Y-66333333D01*
X101888571Y-66285714D01*
X101983809Y-66238095D01*
X102221904Y-66238095D01*
X102317142Y-66285714D01*
X102364761Y-66333333D01*
X102412380Y-66428571D01*
X102412380Y-66666666D01*
X102364761Y-66761904D01*
X102317142Y-66809523D01*
X103857142Y-68702380D02*
X103523809Y-68226190D01*
X103285714Y-68702380D02*
X103285714Y-67702380D01*
X103666666Y-67702380D01*
X103761904Y-67750000D01*
X103809523Y-67797619D01*
X103857142Y-67892857D01*
X103857142Y-68035714D01*
X103809523Y-68130952D01*
X103761904Y-68178571D01*
X103666666Y-68226190D01*
X103285714Y-68226190D01*
X104238095Y-67797619D02*
X104285714Y-67750000D01*
X104380952Y-67702380D01*
X104619047Y-67702380D01*
X104714285Y-67750000D01*
X104761904Y-67797619D01*
X104809523Y-67892857D01*
X104809523Y-67988095D01*
X104761904Y-68130952D01*
X104190476Y-68702380D01*
X104809523Y-68702380D01*
X105666666Y-68035714D02*
X105666666Y-68702380D01*
X105428571Y-67654761D02*
X105190476Y-68369047D01*
X105809523Y-68369047D01*
X107492380Y-68142857D02*
X107016190Y-68476190D01*
X107492380Y-68714285D02*
X106492380Y-68714285D01*
X106492380Y-68333333D01*
X106540000Y-68238095D01*
X106587619Y-68190476D01*
X106682857Y-68142857D01*
X106825714Y-68142857D01*
X106920952Y-68190476D01*
X106968571Y-68238095D01*
X107016190Y-68333333D01*
X107016190Y-68714285D01*
X106587619Y-67761904D02*
X106540000Y-67714285D01*
X106492380Y-67619047D01*
X106492380Y-67380952D01*
X106540000Y-67285714D01*
X106587619Y-67238095D01*
X106682857Y-67190476D01*
X106778095Y-67190476D01*
X106920952Y-67238095D01*
X107492380Y-67809523D01*
X107492380Y-67190476D01*
X106492380Y-66857142D02*
X106492380Y-66238095D01*
X106873333Y-66571428D01*
X106873333Y-66428571D01*
X106920952Y-66333333D01*
X106968571Y-66285714D01*
X107063809Y-66238095D01*
X107301904Y-66238095D01*
X107397142Y-66285714D01*
X107444761Y-66333333D01*
X107492380Y-66428571D01*
X107492380Y-66714285D01*
X107444761Y-66809523D01*
X107397142Y-66857142D01*
X110032380Y-68142857D02*
X109556190Y-68476190D01*
X110032380Y-68714285D02*
X109032380Y-68714285D01*
X109032380Y-68333333D01*
X109080000Y-68238095D01*
X109127619Y-68190476D01*
X109222857Y-68142857D01*
X109365714Y-68142857D01*
X109460952Y-68190476D01*
X109508571Y-68238095D01*
X109556190Y-68333333D01*
X109556190Y-68714285D01*
X109127619Y-67761904D02*
X109080000Y-67714285D01*
X109032380Y-67619047D01*
X109032380Y-67380952D01*
X109080000Y-67285714D01*
X109127619Y-67238095D01*
X109222857Y-67190476D01*
X109318095Y-67190476D01*
X109460952Y-67238095D01*
X110032380Y-67809523D01*
X110032380Y-67190476D01*
X109127619Y-66809523D02*
X109080000Y-66761904D01*
X109032380Y-66666666D01*
X109032380Y-66428571D01*
X109080000Y-66333333D01*
X109127619Y-66285714D01*
X109222857Y-66238095D01*
X109318095Y-66238095D01*
X109460952Y-66285714D01*
X110032380Y-66857142D01*
X110032380Y-66238095D01*
X112572380Y-68142857D02*
X112096190Y-68476190D01*
X112572380Y-68714285D02*
X111572380Y-68714285D01*
X111572380Y-68333333D01*
X111620000Y-68238095D01*
X111667619Y-68190476D01*
X111762857Y-68142857D01*
X111905714Y-68142857D01*
X112000952Y-68190476D01*
X112048571Y-68238095D01*
X112096190Y-68333333D01*
X112096190Y-68714285D01*
X111667619Y-67761904D02*
X111620000Y-67714285D01*
X111572380Y-67619047D01*
X111572380Y-67380952D01*
X111620000Y-67285714D01*
X111667619Y-67238095D01*
X111762857Y-67190476D01*
X111858095Y-67190476D01*
X112000952Y-67238095D01*
X112572380Y-67809523D01*
X112572380Y-67190476D01*
X112572380Y-66238095D02*
X112572380Y-66809523D01*
X112572380Y-66523809D02*
X111572380Y-66523809D01*
X111715238Y-66619047D01*
X111810476Y-66714285D01*
X111858095Y-66809523D01*
X115112380Y-68142857D02*
X114636190Y-68476190D01*
X115112380Y-68714285D02*
X114112380Y-68714285D01*
X114112380Y-68333333D01*
X114160000Y-68238095D01*
X114207619Y-68190476D01*
X114302857Y-68142857D01*
X114445714Y-68142857D01*
X114540952Y-68190476D01*
X114588571Y-68238095D01*
X114636190Y-68333333D01*
X114636190Y-68714285D01*
X114207619Y-67761904D02*
X114160000Y-67714285D01*
X114112380Y-67619047D01*
X114112380Y-67380952D01*
X114160000Y-67285714D01*
X114207619Y-67238095D01*
X114302857Y-67190476D01*
X114398095Y-67190476D01*
X114540952Y-67238095D01*
X115112380Y-67809523D01*
X115112380Y-67190476D01*
X114112380Y-66571428D02*
X114112380Y-66476190D01*
X114160000Y-66380952D01*
X114207619Y-66333333D01*
X114302857Y-66285714D01*
X114493333Y-66238095D01*
X114731428Y-66238095D01*
X114921904Y-66285714D01*
X115017142Y-66333333D01*
X115064761Y-66380952D01*
X115112380Y-66476190D01*
X115112380Y-66571428D01*
X115064761Y-66666666D01*
X115017142Y-66714285D01*
X114921904Y-66761904D01*
X114731428Y-66809523D01*
X114493333Y-66809523D01*
X114302857Y-66761904D01*
X114207619Y-66714285D01*
X114160000Y-66666666D01*
X114112380Y-66571428D01*
X117652380Y-68142857D02*
X117176190Y-68476190D01*
X117652380Y-68714285D02*
X116652380Y-68714285D01*
X116652380Y-68333333D01*
X116700000Y-68238095D01*
X116747619Y-68190476D01*
X116842857Y-68142857D01*
X116985714Y-68142857D01*
X117080952Y-68190476D01*
X117128571Y-68238095D01*
X117176190Y-68333333D01*
X117176190Y-68714285D01*
X117652380Y-67190476D02*
X117652380Y-67761904D01*
X117652380Y-67476190D02*
X116652380Y-67476190D01*
X116795238Y-67571428D01*
X116890476Y-67666666D01*
X116938095Y-67761904D01*
X117652380Y-66714285D02*
X117652380Y-66523809D01*
X117604761Y-66428571D01*
X117557142Y-66380952D01*
X117414285Y-66285714D01*
X117223809Y-66238095D01*
X116842857Y-66238095D01*
X116747619Y-66285714D01*
X116700000Y-66333333D01*
X116652380Y-66428571D01*
X116652380Y-66619047D01*
X116700000Y-66714285D01*
X116747619Y-66761904D01*
X116842857Y-66809523D01*
X117080952Y-66809523D01*
X117176190Y-66761904D01*
X117223809Y-66714285D01*
X117271428Y-66619047D01*
X117271428Y-66428571D01*
X117223809Y-66333333D01*
X117176190Y-66285714D01*
X117080952Y-66238095D01*
X119097142Y-68702380D02*
X118763809Y-68226190D01*
X118525714Y-68702380D02*
X118525714Y-67702380D01*
X118906666Y-67702380D01*
X119001904Y-67750000D01*
X119049523Y-67797619D01*
X119097142Y-67892857D01*
X119097142Y-68035714D01*
X119049523Y-68130952D01*
X119001904Y-68178571D01*
X118906666Y-68226190D01*
X118525714Y-68226190D01*
X120049523Y-68702380D02*
X119478095Y-68702380D01*
X119763809Y-68702380D02*
X119763809Y-67702380D01*
X119668571Y-67845238D01*
X119573333Y-67940476D01*
X119478095Y-67988095D01*
X120620952Y-68130952D02*
X120525714Y-68083333D01*
X120478095Y-68035714D01*
X120430476Y-67940476D01*
X120430476Y-67892857D01*
X120478095Y-67797619D01*
X120525714Y-67750000D01*
X120620952Y-67702380D01*
X120811428Y-67702380D01*
X120906666Y-67750000D01*
X120954285Y-67797619D01*
X121001904Y-67892857D01*
X121001904Y-67940476D01*
X120954285Y-68035714D01*
X120906666Y-68083333D01*
X120811428Y-68130952D01*
X120620952Y-68130952D01*
X120525714Y-68178571D01*
X120478095Y-68226190D01*
X120430476Y-68321428D01*
X120430476Y-68511904D01*
X120478095Y-68607142D01*
X120525714Y-68654761D01*
X120620952Y-68702380D01*
X120811428Y-68702380D01*
X120906666Y-68654761D01*
X120954285Y-68607142D01*
X121001904Y-68511904D01*
X121001904Y-68321428D01*
X120954285Y-68226190D01*
X120906666Y-68178571D01*
X120811428Y-68130952D01*
X124202380Y-64892857D02*
X123726190Y-65226190D01*
X124202380Y-65464285D02*
X123202380Y-65464285D01*
X123202380Y-65083333D01*
X123250000Y-64988095D01*
X123297619Y-64940476D01*
X123392857Y-64892857D01*
X123535714Y-64892857D01*
X123630952Y-64940476D01*
X123678571Y-64988095D01*
X123726190Y-65083333D01*
X123726190Y-65464285D01*
X124202380Y-63940476D02*
X124202380Y-64511904D01*
X124202380Y-64226190D02*
X123202380Y-64226190D01*
X123345238Y-64321428D01*
X123440476Y-64416666D01*
X123488095Y-64511904D01*
X123202380Y-63607142D02*
X123202380Y-62940476D01*
X124202380Y-63369047D01*
X127009642Y-96022380D02*
X126676309Y-95546190D01*
X126438214Y-96022380D02*
X126438214Y-95022380D01*
X126819166Y-95022380D01*
X126914404Y-95070000D01*
X126962023Y-95117619D01*
X127009642Y-95212857D01*
X127009642Y-95355714D01*
X126962023Y-95450952D01*
X126914404Y-95498571D01*
X126819166Y-95546190D01*
X126438214Y-95546190D01*
X127962023Y-96022380D02*
X127390595Y-96022380D01*
X127676309Y-96022380D02*
X127676309Y-95022380D01*
X127581071Y-95165238D01*
X127485833Y-95260476D01*
X127390595Y-95308095D01*
X128581071Y-95022380D02*
X128676309Y-95022380D01*
X128771547Y-95070000D01*
X128819166Y-95117619D01*
X128866785Y-95212857D01*
X128914404Y-95403333D01*
X128914404Y-95641428D01*
X128866785Y-95831904D01*
X128819166Y-95927142D01*
X128771547Y-95974761D01*
X128676309Y-96022380D01*
X128581071Y-96022380D01*
X128485833Y-95974761D01*
X128438214Y-95927142D01*
X128390595Y-95831904D01*
X128342976Y-95641428D01*
X128342976Y-95403333D01*
X128390595Y-95212857D01*
X128438214Y-95117619D01*
X128485833Y-95070000D01*
X128581071Y-95022380D01*
X120320833Y-96022380D02*
X119987500Y-95546190D01*
X119749404Y-96022380D02*
X119749404Y-95022380D01*
X120130357Y-95022380D01*
X120225595Y-95070000D01*
X120273214Y-95117619D01*
X120320833Y-95212857D01*
X120320833Y-95355714D01*
X120273214Y-95450952D01*
X120225595Y-95498571D01*
X120130357Y-95546190D01*
X119749404Y-95546190D01*
X120797023Y-96022380D02*
X120987500Y-96022380D01*
X121082738Y-95974761D01*
X121130357Y-95927142D01*
X121225595Y-95784285D01*
X121273214Y-95593809D01*
X121273214Y-95212857D01*
X121225595Y-95117619D01*
X121177976Y-95070000D01*
X121082738Y-95022380D01*
X120892261Y-95022380D01*
X120797023Y-95070000D01*
X120749404Y-95117619D01*
X120701785Y-95212857D01*
X120701785Y-95450952D01*
X120749404Y-95546190D01*
X120797023Y-95593809D01*
X120892261Y-95641428D01*
X121082738Y-95641428D01*
X121177976Y-95593809D01*
X121225595Y-95546190D01*
X121273214Y-95450952D01*
X110009642Y-96022380D02*
X109676309Y-95546190D01*
X109438214Y-96022380D02*
X109438214Y-95022380D01*
X109819166Y-95022380D01*
X109914404Y-95070000D01*
X109962023Y-95117619D01*
X110009642Y-95212857D01*
X110009642Y-95355714D01*
X109962023Y-95450952D01*
X109914404Y-95498571D01*
X109819166Y-95546190D01*
X109438214Y-95546190D01*
X110962023Y-96022380D02*
X110390595Y-96022380D01*
X110676309Y-96022380D02*
X110676309Y-95022380D01*
X110581071Y-95165238D01*
X110485833Y-95260476D01*
X110390595Y-95308095D01*
X111342976Y-95117619D02*
X111390595Y-95070000D01*
X111485833Y-95022380D01*
X111723928Y-95022380D01*
X111819166Y-95070000D01*
X111866785Y-95117619D01*
X111914404Y-95212857D01*
X111914404Y-95308095D01*
X111866785Y-95450952D01*
X111295357Y-96022380D01*
X111914404Y-96022380D01*
X102844642Y-96022380D02*
X102511309Y-95546190D01*
X102273214Y-96022380D02*
X102273214Y-95022380D01*
X102654166Y-95022380D01*
X102749404Y-95070000D01*
X102797023Y-95117619D01*
X102844642Y-95212857D01*
X102844642Y-95355714D01*
X102797023Y-95450952D01*
X102749404Y-95498571D01*
X102654166Y-95546190D01*
X102273214Y-95546190D01*
X103797023Y-96022380D02*
X103225595Y-96022380D01*
X103511309Y-96022380D02*
X103511309Y-95022380D01*
X103416071Y-95165238D01*
X103320833Y-95260476D01*
X103225595Y-95308095D01*
X104749404Y-96022380D02*
X104177976Y-96022380D01*
X104463690Y-96022380D02*
X104463690Y-95022380D01*
X104368452Y-95165238D01*
X104273214Y-95260476D01*
X104177976Y-95308095D01*
X93009642Y-96022380D02*
X92676309Y-95546190D01*
X92438214Y-96022380D02*
X92438214Y-95022380D01*
X92819166Y-95022380D01*
X92914404Y-95070000D01*
X92962023Y-95117619D01*
X93009642Y-95212857D01*
X93009642Y-95355714D01*
X92962023Y-95450952D01*
X92914404Y-95498571D01*
X92819166Y-95546190D01*
X92438214Y-95546190D01*
X93962023Y-96022380D02*
X93390595Y-96022380D01*
X93676309Y-96022380D02*
X93676309Y-95022380D01*
X93581071Y-95165238D01*
X93485833Y-95260476D01*
X93390595Y-95308095D01*
X94819166Y-95355714D02*
X94819166Y-96022380D01*
X94581071Y-94974761D02*
X94342976Y-95689047D01*
X94962023Y-95689047D01*
X85844642Y-96022380D02*
X85511309Y-95546190D01*
X85273214Y-96022380D02*
X85273214Y-95022380D01*
X85654166Y-95022380D01*
X85749404Y-95070000D01*
X85797023Y-95117619D01*
X85844642Y-95212857D01*
X85844642Y-95355714D01*
X85797023Y-95450952D01*
X85749404Y-95498571D01*
X85654166Y-95546190D01*
X85273214Y-95546190D01*
X86797023Y-96022380D02*
X86225595Y-96022380D01*
X86511309Y-96022380D02*
X86511309Y-95022380D01*
X86416071Y-95165238D01*
X86320833Y-95260476D01*
X86225595Y-95308095D01*
X87130357Y-95022380D02*
X87749404Y-95022380D01*
X87416071Y-95403333D01*
X87558928Y-95403333D01*
X87654166Y-95450952D01*
X87701785Y-95498571D01*
X87749404Y-95593809D01*
X87749404Y-95831904D01*
X87701785Y-95927142D01*
X87654166Y-95974761D01*
X87558928Y-96022380D01*
X87273214Y-96022380D01*
X87177976Y-95974761D01*
X87130357Y-95927142D01*
X76009642Y-96022380D02*
X75676309Y-95546190D01*
X75438214Y-96022380D02*
X75438214Y-95022380D01*
X75819166Y-95022380D01*
X75914404Y-95070000D01*
X75962023Y-95117619D01*
X76009642Y-95212857D01*
X76009642Y-95355714D01*
X75962023Y-95450952D01*
X75914404Y-95498571D01*
X75819166Y-95546190D01*
X75438214Y-95546190D01*
X76962023Y-96022380D02*
X76390595Y-96022380D01*
X76676309Y-96022380D02*
X76676309Y-95022380D01*
X76581071Y-95165238D01*
X76485833Y-95260476D01*
X76390595Y-95308095D01*
X77819166Y-95022380D02*
X77628690Y-95022380D01*
X77533452Y-95070000D01*
X77485833Y-95117619D01*
X77390595Y-95260476D01*
X77342976Y-95450952D01*
X77342976Y-95831904D01*
X77390595Y-95927142D01*
X77438214Y-95974761D01*
X77533452Y-96022380D01*
X77723928Y-96022380D01*
X77819166Y-95974761D01*
X77866785Y-95927142D01*
X77914404Y-95831904D01*
X77914404Y-95593809D01*
X77866785Y-95498571D01*
X77819166Y-95450952D01*
X77723928Y-95403333D01*
X77533452Y-95403333D01*
X77438214Y-95450952D01*
X77390595Y-95498571D01*
X77342976Y-95593809D01*
X68844642Y-96022380D02*
X68511309Y-95546190D01*
X68273214Y-96022380D02*
X68273214Y-95022380D01*
X68654166Y-95022380D01*
X68749404Y-95070000D01*
X68797023Y-95117619D01*
X68844642Y-95212857D01*
X68844642Y-95355714D01*
X68797023Y-95450952D01*
X68749404Y-95498571D01*
X68654166Y-95546190D01*
X68273214Y-95546190D01*
X69797023Y-96022380D02*
X69225595Y-96022380D01*
X69511309Y-96022380D02*
X69511309Y-95022380D01*
X69416071Y-95165238D01*
X69320833Y-95260476D01*
X69225595Y-95308095D01*
X70701785Y-95022380D02*
X70225595Y-95022380D01*
X70177976Y-95498571D01*
X70225595Y-95450952D01*
X70320833Y-95403333D01*
X70558928Y-95403333D01*
X70654166Y-95450952D01*
X70701785Y-95498571D01*
X70749404Y-95593809D01*
X70749404Y-95831904D01*
X70701785Y-95927142D01*
X70654166Y-95974761D01*
X70558928Y-96022380D01*
X70320833Y-96022380D01*
X70225595Y-95974761D01*
X70177976Y-95927142D01*
X69430833Y-41382380D02*
X69097500Y-40906190D01*
X68859404Y-41382380D02*
X68859404Y-40382380D01*
X69240357Y-40382380D01*
X69335595Y-40430000D01*
X69383214Y-40477619D01*
X69430833Y-40572857D01*
X69430833Y-40715714D01*
X69383214Y-40810952D01*
X69335595Y-40858571D01*
X69240357Y-40906190D01*
X68859404Y-40906190D01*
X69811785Y-40477619D02*
X69859404Y-40430000D01*
X69954642Y-40382380D01*
X70192738Y-40382380D01*
X70287976Y-40430000D01*
X70335595Y-40477619D01*
X70383214Y-40572857D01*
X70383214Y-40668095D01*
X70335595Y-40810952D01*
X69764166Y-41382380D01*
X70383214Y-41382380D01*
X77345833Y-41382380D02*
X77012500Y-40906190D01*
X76774404Y-41382380D02*
X76774404Y-40382380D01*
X77155357Y-40382380D01*
X77250595Y-40430000D01*
X77298214Y-40477619D01*
X77345833Y-40572857D01*
X77345833Y-40715714D01*
X77298214Y-40810952D01*
X77250595Y-40858571D01*
X77155357Y-40906190D01*
X76774404Y-40906190D01*
X78298214Y-41382380D02*
X77726785Y-41382380D01*
X78012500Y-41382380D02*
X78012500Y-40382380D01*
X77917261Y-40525238D01*
X77822023Y-40620476D01*
X77726785Y-40668095D01*
X86430833Y-41382380D02*
X86097500Y-40906190D01*
X85859404Y-41382380D02*
X85859404Y-40382380D01*
X86240357Y-40382380D01*
X86335595Y-40430000D01*
X86383214Y-40477619D01*
X86430833Y-40572857D01*
X86430833Y-40715714D01*
X86383214Y-40810952D01*
X86335595Y-40858571D01*
X86240357Y-40906190D01*
X85859404Y-40906190D01*
X87287976Y-40715714D02*
X87287976Y-41382380D01*
X87049880Y-40334761D02*
X86811785Y-41049047D01*
X87430833Y-41049047D01*
X94345833Y-41382380D02*
X94012500Y-40906190D01*
X93774404Y-41382380D02*
X93774404Y-40382380D01*
X94155357Y-40382380D01*
X94250595Y-40430000D01*
X94298214Y-40477619D01*
X94345833Y-40572857D01*
X94345833Y-40715714D01*
X94298214Y-40810952D01*
X94250595Y-40858571D01*
X94155357Y-40906190D01*
X93774404Y-40906190D01*
X94679166Y-40382380D02*
X95298214Y-40382380D01*
X94964880Y-40763333D01*
X95107738Y-40763333D01*
X95202976Y-40810952D01*
X95250595Y-40858571D01*
X95298214Y-40953809D01*
X95298214Y-41191904D01*
X95250595Y-41287142D01*
X95202976Y-41334761D01*
X95107738Y-41382380D01*
X94822023Y-41382380D01*
X94726785Y-41334761D01*
X94679166Y-41287142D01*
X103430833Y-41382380D02*
X103097500Y-40906190D01*
X102859404Y-41382380D02*
X102859404Y-40382380D01*
X103240357Y-40382380D01*
X103335595Y-40430000D01*
X103383214Y-40477619D01*
X103430833Y-40572857D01*
X103430833Y-40715714D01*
X103383214Y-40810952D01*
X103335595Y-40858571D01*
X103240357Y-40906190D01*
X102859404Y-40906190D01*
X104287976Y-40382380D02*
X104097500Y-40382380D01*
X104002261Y-40430000D01*
X103954642Y-40477619D01*
X103859404Y-40620476D01*
X103811785Y-40810952D01*
X103811785Y-41191904D01*
X103859404Y-41287142D01*
X103907023Y-41334761D01*
X104002261Y-41382380D01*
X104192738Y-41382380D01*
X104287976Y-41334761D01*
X104335595Y-41287142D01*
X104383214Y-41191904D01*
X104383214Y-40953809D01*
X104335595Y-40858571D01*
X104287976Y-40810952D01*
X104192738Y-40763333D01*
X104002261Y-40763333D01*
X103907023Y-40810952D01*
X103859404Y-40858571D01*
X103811785Y-40953809D01*
X111345833Y-41382380D02*
X111012500Y-40906190D01*
X110774404Y-41382380D02*
X110774404Y-40382380D01*
X111155357Y-40382380D01*
X111250595Y-40430000D01*
X111298214Y-40477619D01*
X111345833Y-40572857D01*
X111345833Y-40715714D01*
X111298214Y-40810952D01*
X111250595Y-40858571D01*
X111155357Y-40906190D01*
X110774404Y-40906190D01*
X112250595Y-40382380D02*
X111774404Y-40382380D01*
X111726785Y-40858571D01*
X111774404Y-40810952D01*
X111869642Y-40763333D01*
X112107738Y-40763333D01*
X112202976Y-40810952D01*
X112250595Y-40858571D01*
X112298214Y-40953809D01*
X112298214Y-41191904D01*
X112250595Y-41287142D01*
X112202976Y-41334761D01*
X112107738Y-41382380D01*
X111869642Y-41382380D01*
X111774404Y-41334761D01*
X111726785Y-41287142D01*
X120430833Y-41382380D02*
X120097500Y-40906190D01*
X119859404Y-41382380D02*
X119859404Y-40382380D01*
X120240357Y-40382380D01*
X120335595Y-40430000D01*
X120383214Y-40477619D01*
X120430833Y-40572857D01*
X120430833Y-40715714D01*
X120383214Y-40810952D01*
X120335595Y-40858571D01*
X120240357Y-40906190D01*
X119859404Y-40906190D01*
X121002261Y-40810952D02*
X120907023Y-40763333D01*
X120859404Y-40715714D01*
X120811785Y-40620476D01*
X120811785Y-40572857D01*
X120859404Y-40477619D01*
X120907023Y-40430000D01*
X121002261Y-40382380D01*
X121192738Y-40382380D01*
X121287976Y-40430000D01*
X121335595Y-40477619D01*
X121383214Y-40572857D01*
X121383214Y-40620476D01*
X121335595Y-40715714D01*
X121287976Y-40763333D01*
X121192738Y-40810952D01*
X121002261Y-40810952D01*
X120907023Y-40858571D01*
X120859404Y-40906190D01*
X120811785Y-41001428D01*
X120811785Y-41191904D01*
X120859404Y-41287142D01*
X120907023Y-41334761D01*
X121002261Y-41382380D01*
X121192738Y-41382380D01*
X121287976Y-41334761D01*
X121335595Y-41287142D01*
X121383214Y-41191904D01*
X121383214Y-41001428D01*
X121335595Y-40906190D01*
X121287976Y-40858571D01*
X121192738Y-40810952D01*
X128345833Y-41382380D02*
X128012500Y-40906190D01*
X127774404Y-41382380D02*
X127774404Y-40382380D01*
X128155357Y-40382380D01*
X128250595Y-40430000D01*
X128298214Y-40477619D01*
X128345833Y-40572857D01*
X128345833Y-40715714D01*
X128298214Y-40810952D01*
X128250595Y-40858571D01*
X128155357Y-40906190D01*
X127774404Y-40906190D01*
X128679166Y-40382380D02*
X129345833Y-40382380D01*
X128917261Y-41382380D01*
X59357142Y-86142857D02*
X59404761Y-86190476D01*
X59452380Y-86333333D01*
X59452380Y-86428571D01*
X59404761Y-86571428D01*
X59309523Y-86666666D01*
X59214285Y-86714285D01*
X59023809Y-86761904D01*
X58880952Y-86761904D01*
X58690476Y-86714285D01*
X58595238Y-86666666D01*
X58500000Y-86571428D01*
X58452380Y-86428571D01*
X58452380Y-86333333D01*
X58500000Y-86190476D01*
X58547619Y-86142857D01*
X59452380Y-85190476D02*
X59452380Y-85761904D01*
X59452380Y-85476190D02*
X58452380Y-85476190D01*
X58595238Y-85571428D01*
X58690476Y-85666666D01*
X58738095Y-85761904D01*
X58547619Y-84809523D02*
X58500000Y-84761904D01*
X58452380Y-84666666D01*
X58452380Y-84428571D01*
X58500000Y-84333333D01*
X58547619Y-84285714D01*
X58642857Y-84238095D01*
X58738095Y-84238095D01*
X58880952Y-84285714D01*
X59452380Y-84857142D01*
X59452380Y-84238095D01*
X62257142Y-80642857D02*
X62304761Y-80690476D01*
X62352380Y-80833333D01*
X62352380Y-80928571D01*
X62304761Y-81071428D01*
X62209523Y-81166666D01*
X62114285Y-81214285D01*
X61923809Y-81261904D01*
X61780952Y-81261904D01*
X61590476Y-81214285D01*
X61495238Y-81166666D01*
X61400000Y-81071428D01*
X61352380Y-80928571D01*
X61352380Y-80833333D01*
X61400000Y-80690476D01*
X61447619Y-80642857D01*
X62352380Y-79690476D02*
X62352380Y-80261904D01*
X62352380Y-79976190D02*
X61352380Y-79976190D01*
X61495238Y-80071428D01*
X61590476Y-80166666D01*
X61638095Y-80261904D01*
X61352380Y-79071428D02*
X61352380Y-78976190D01*
X61400000Y-78880952D01*
X61447619Y-78833333D01*
X61542857Y-78785714D01*
X61733333Y-78738095D01*
X61971428Y-78738095D01*
X62161904Y-78785714D01*
X62257142Y-78833333D01*
X62304761Y-78880952D01*
X62352380Y-78976190D01*
X62352380Y-79071428D01*
X62304761Y-79166666D01*
X62257142Y-79214285D01*
X62161904Y-79261904D01*
X61971428Y-79309523D01*
X61733333Y-79309523D01*
X61542857Y-79261904D01*
X61447619Y-79214285D01*
X61400000Y-79166666D01*
X61352380Y-79071428D01*
X61607142Y-56916666D02*
X61654761Y-56964285D01*
X61702380Y-57107142D01*
X61702380Y-57202380D01*
X61654761Y-57345238D01*
X61559523Y-57440476D01*
X61464285Y-57488095D01*
X61273809Y-57535714D01*
X61130952Y-57535714D01*
X60940476Y-57488095D01*
X60845238Y-57440476D01*
X60750000Y-57345238D01*
X60702380Y-57202380D01*
X60702380Y-57107142D01*
X60750000Y-56964285D01*
X60797619Y-56916666D01*
X61702380Y-56440476D02*
X61702380Y-56250000D01*
X61654761Y-56154761D01*
X61607142Y-56107142D01*
X61464285Y-56011904D01*
X61273809Y-55964285D01*
X60892857Y-55964285D01*
X60797619Y-56011904D01*
X60750000Y-56059523D01*
X60702380Y-56154761D01*
X60702380Y-56345238D01*
X60750000Y-56440476D01*
X60797619Y-56488095D01*
X60892857Y-56535714D01*
X61130952Y-56535714D01*
X61226190Y-56488095D01*
X61273809Y-56440476D01*
X61321428Y-56345238D01*
X61321428Y-56154761D01*
X61273809Y-56059523D01*
X61226190Y-56011904D01*
X61130952Y-55964285D01*
X132157142Y-91316666D02*
X132204761Y-91364285D01*
X132252380Y-91507142D01*
X132252380Y-91602380D01*
X132204761Y-91745238D01*
X132109523Y-91840476D01*
X132014285Y-91888095D01*
X131823809Y-91935714D01*
X131680952Y-91935714D01*
X131490476Y-91888095D01*
X131395238Y-91840476D01*
X131300000Y-91745238D01*
X131252380Y-91602380D01*
X131252380Y-91507142D01*
X131300000Y-91364285D01*
X131347619Y-91316666D01*
X131252380Y-90411904D02*
X131252380Y-90888095D01*
X131728571Y-90935714D01*
X131680952Y-90888095D01*
X131633333Y-90792857D01*
X131633333Y-90554761D01*
X131680952Y-90459523D01*
X131728571Y-90411904D01*
X131823809Y-90364285D01*
X132061904Y-90364285D01*
X132157142Y-90411904D01*
X132204761Y-90459523D01*
X132252380Y-90554761D01*
X132252380Y-90792857D01*
X132204761Y-90888095D01*
X132157142Y-90935714D01*
X115157142Y-91316666D02*
X115204761Y-91364285D01*
X115252380Y-91507142D01*
X115252380Y-91602380D01*
X115204761Y-91745238D01*
X115109523Y-91840476D01*
X115014285Y-91888095D01*
X114823809Y-91935714D01*
X114680952Y-91935714D01*
X114490476Y-91888095D01*
X114395238Y-91840476D01*
X114300000Y-91745238D01*
X114252380Y-91602380D01*
X114252380Y-91507142D01*
X114300000Y-91364285D01*
X114347619Y-91316666D01*
X114252380Y-90459523D02*
X114252380Y-90650000D01*
X114300000Y-90745238D01*
X114347619Y-90792857D01*
X114490476Y-90888095D01*
X114680952Y-90935714D01*
X115061904Y-90935714D01*
X115157142Y-90888095D01*
X115204761Y-90840476D01*
X115252380Y-90745238D01*
X115252380Y-90554761D01*
X115204761Y-90459523D01*
X115157142Y-90411904D01*
X115061904Y-90364285D01*
X114823809Y-90364285D01*
X114728571Y-90411904D01*
X114680952Y-90459523D01*
X114633333Y-90554761D01*
X114633333Y-90745238D01*
X114680952Y-90840476D01*
X114728571Y-90888095D01*
X114823809Y-90935714D01*
X98157142Y-91316666D02*
X98204761Y-91364285D01*
X98252380Y-91507142D01*
X98252380Y-91602380D01*
X98204761Y-91745238D01*
X98109523Y-91840476D01*
X98014285Y-91888095D01*
X97823809Y-91935714D01*
X97680952Y-91935714D01*
X97490476Y-91888095D01*
X97395238Y-91840476D01*
X97300000Y-91745238D01*
X97252380Y-91602380D01*
X97252380Y-91507142D01*
X97300000Y-91364285D01*
X97347619Y-91316666D01*
X97252380Y-90983333D02*
X97252380Y-90316666D01*
X98252380Y-90745238D01*
X81157142Y-91316666D02*
X81204761Y-91364285D01*
X81252380Y-91507142D01*
X81252380Y-91602380D01*
X81204761Y-91745238D01*
X81109523Y-91840476D01*
X81014285Y-91888095D01*
X80823809Y-91935714D01*
X80680952Y-91935714D01*
X80490476Y-91888095D01*
X80395238Y-91840476D01*
X80300000Y-91745238D01*
X80252380Y-91602380D01*
X80252380Y-91507142D01*
X80300000Y-91364285D01*
X80347619Y-91316666D01*
X80680952Y-90745238D02*
X80633333Y-90840476D01*
X80585714Y-90888095D01*
X80490476Y-90935714D01*
X80442857Y-90935714D01*
X80347619Y-90888095D01*
X80300000Y-90840476D01*
X80252380Y-90745238D01*
X80252380Y-90554761D01*
X80300000Y-90459523D01*
X80347619Y-90411904D01*
X80442857Y-90364285D01*
X80490476Y-90364285D01*
X80585714Y-90411904D01*
X80633333Y-90459523D01*
X80680952Y-90554761D01*
X80680952Y-90745238D01*
X80728571Y-90840476D01*
X80776190Y-90888095D01*
X80871428Y-90935714D01*
X81061904Y-90935714D01*
X81157142Y-90888095D01*
X81204761Y-90840476D01*
X81252380Y-90745238D01*
X81252380Y-90554761D01*
X81204761Y-90459523D01*
X81157142Y-90411904D01*
X81061904Y-90364285D01*
X80871428Y-90364285D01*
X80776190Y-90411904D01*
X80728571Y-90459523D01*
X80680952Y-90554761D01*
X66357142Y-45166666D02*
X66404761Y-45214285D01*
X66452380Y-45357142D01*
X66452380Y-45452380D01*
X66404761Y-45595238D01*
X66309523Y-45690476D01*
X66214285Y-45738095D01*
X66023809Y-45785714D01*
X65880952Y-45785714D01*
X65690476Y-45738095D01*
X65595238Y-45690476D01*
X65500000Y-45595238D01*
X65452380Y-45452380D01*
X65452380Y-45357142D01*
X65500000Y-45214285D01*
X65547619Y-45166666D01*
X66452380Y-44214285D02*
X66452380Y-44785714D01*
X66452380Y-44500000D02*
X65452380Y-44500000D01*
X65595238Y-44595238D01*
X65690476Y-44690476D01*
X65738095Y-44785714D01*
X83357142Y-45416666D02*
X83404761Y-45464285D01*
X83452380Y-45607142D01*
X83452380Y-45702380D01*
X83404761Y-45845238D01*
X83309523Y-45940476D01*
X83214285Y-45988095D01*
X83023809Y-46035714D01*
X82880952Y-46035714D01*
X82690476Y-45988095D01*
X82595238Y-45940476D01*
X82500000Y-45845238D01*
X82452380Y-45702380D01*
X82452380Y-45607142D01*
X82500000Y-45464285D01*
X82547619Y-45416666D01*
X82547619Y-45035714D02*
X82500000Y-44988095D01*
X82452380Y-44892857D01*
X82452380Y-44654761D01*
X82500000Y-44559523D01*
X82547619Y-44511904D01*
X82642857Y-44464285D01*
X82738095Y-44464285D01*
X82880952Y-44511904D01*
X83452380Y-45083333D01*
X83452380Y-44464285D01*
X100357142Y-45416666D02*
X100404761Y-45464285D01*
X100452380Y-45607142D01*
X100452380Y-45702380D01*
X100404761Y-45845238D01*
X100309523Y-45940476D01*
X100214285Y-45988095D01*
X100023809Y-46035714D01*
X99880952Y-46035714D01*
X99690476Y-45988095D01*
X99595238Y-45940476D01*
X99500000Y-45845238D01*
X99452380Y-45702380D01*
X99452380Y-45607142D01*
X99500000Y-45464285D01*
X99547619Y-45416666D01*
X99452380Y-45083333D02*
X99452380Y-44464285D01*
X99833333Y-44797619D01*
X99833333Y-44654761D01*
X99880952Y-44559523D01*
X99928571Y-44511904D01*
X100023809Y-44464285D01*
X100261904Y-44464285D01*
X100357142Y-44511904D01*
X100404761Y-44559523D01*
X100452380Y-44654761D01*
X100452380Y-44940476D01*
X100404761Y-45035714D01*
X100357142Y-45083333D01*
X117607142Y-45416666D02*
X117654761Y-45464285D01*
X117702380Y-45607142D01*
X117702380Y-45702380D01*
X117654761Y-45845238D01*
X117559523Y-45940476D01*
X117464285Y-45988095D01*
X117273809Y-46035714D01*
X117130952Y-46035714D01*
X116940476Y-45988095D01*
X116845238Y-45940476D01*
X116750000Y-45845238D01*
X116702380Y-45702380D01*
X116702380Y-45607142D01*
X116750000Y-45464285D01*
X116797619Y-45416666D01*
X117035714Y-44559523D02*
X117702380Y-44559523D01*
X116654761Y-44797619D02*
X117369047Y-45035714D01*
X117369047Y-44416666D01*
X54702380Y-47988095D02*
X55511904Y-47988095D01*
X55607142Y-47940476D01*
X55654761Y-47892857D01*
X55702380Y-47797619D01*
X55702380Y-47607142D01*
X55654761Y-47511904D01*
X55607142Y-47464285D01*
X55511904Y-47416666D01*
X54702380Y-47416666D01*
X55702380Y-46416666D02*
X55702380Y-46988095D01*
X55702380Y-46702380D02*
X54702380Y-46702380D01*
X54845238Y-46797619D01*
X54940476Y-46892857D01*
X54988095Y-46988095D01*
X55702380Y-45464285D02*
X55702380Y-46035714D01*
X55702380Y-45750000D02*
X54702380Y-45750000D01*
X54845238Y-45845238D01*
X54940476Y-45940476D01*
X54988095Y-46035714D01*
X94221904Y-77862380D02*
X94221904Y-78671904D01*
X94269523Y-78767142D01*
X94317142Y-78814761D01*
X94412380Y-78862380D01*
X94602857Y-78862380D01*
X94698095Y-78814761D01*
X94745714Y-78767142D01*
X94793333Y-78671904D01*
X94793333Y-77862380D01*
X95793333Y-78862380D02*
X95221904Y-78862380D01*
X95507619Y-78862380D02*
X95507619Y-77862380D01*
X95412380Y-78005238D01*
X95317142Y-78100476D01*
X95221904Y-78148095D01*
X96174285Y-77957619D02*
X96221904Y-77910000D01*
X96317142Y-77862380D01*
X96555238Y-77862380D01*
X96650476Y-77910000D01*
X96698095Y-77957619D01*
X96745714Y-78052857D01*
X96745714Y-78148095D01*
X96698095Y-78290952D01*
X96126666Y-78862380D01*
X96745714Y-78862380D01*
X56238095Y-40502380D02*
X56238095Y-41311904D01*
X56285714Y-41407142D01*
X56333333Y-41454761D01*
X56428571Y-41502380D01*
X56619047Y-41502380D01*
X56714285Y-41454761D01*
X56761904Y-41407142D01*
X56809523Y-41311904D01*
X56809523Y-40502380D01*
X57333333Y-41502380D02*
X57523809Y-41502380D01*
X57619047Y-41454761D01*
X57666666Y-41407142D01*
X57761904Y-41264285D01*
X57809523Y-41073809D01*
X57809523Y-40692857D01*
X57761904Y-40597619D01*
X57714285Y-40550000D01*
X57619047Y-40502380D01*
X57428571Y-40502380D01*
X57333333Y-40550000D01*
X57285714Y-40597619D01*
X57238095Y-40692857D01*
X57238095Y-40930952D01*
X57285714Y-41026190D01*
X57333333Y-41073809D01*
X57428571Y-41121428D01*
X57619047Y-41121428D01*
X57714285Y-41073809D01*
X57761904Y-41026190D01*
X57809523Y-40930952D01*
X55861904Y-94852380D02*
X55861904Y-95661904D01*
X55909523Y-95757142D01*
X55957142Y-95804761D01*
X56052380Y-95852380D01*
X56242857Y-95852380D01*
X56338095Y-95804761D01*
X56385714Y-95757142D01*
X56433333Y-95661904D01*
X56433333Y-94852380D01*
X57433333Y-95852380D02*
X56861904Y-95852380D01*
X57147619Y-95852380D02*
X57147619Y-94852380D01*
X57052380Y-94995238D01*
X56957142Y-95090476D01*
X56861904Y-95138095D01*
X58052380Y-94852380D02*
X58147619Y-94852380D01*
X58242857Y-94900000D01*
X58290476Y-94947619D01*
X58338095Y-95042857D01*
X58385714Y-95233333D01*
X58385714Y-95471428D01*
X58338095Y-95661904D01*
X58290476Y-95757142D01*
X58242857Y-95804761D01*
X58147619Y-95852380D01*
X58052380Y-95852380D01*
X57957142Y-95804761D01*
X57909523Y-95757142D01*
X57861904Y-95661904D01*
X57814285Y-95471428D01*
X57814285Y-95233333D01*
X57861904Y-95042857D01*
X57909523Y-94947619D01*
X57957142Y-94900000D01*
X58052380Y-94852380D01*
X84172380Y-49511904D02*
X84981904Y-49511904D01*
X85077142Y-49464285D01*
X85124761Y-49416666D01*
X85172380Y-49321428D01*
X85172380Y-49130952D01*
X85124761Y-49035714D01*
X85077142Y-48988095D01*
X84981904Y-48940476D01*
X84172380Y-48940476D01*
X84267619Y-48511904D02*
X84220000Y-48464285D01*
X84172380Y-48369047D01*
X84172380Y-48130952D01*
X84220000Y-48035714D01*
X84267619Y-47988095D01*
X84362857Y-47940476D01*
X84458095Y-47940476D01*
X84600952Y-47988095D01*
X85172380Y-48559523D01*
X85172380Y-47940476D01*
X67172380Y-49511904D02*
X67981904Y-49511904D01*
X68077142Y-49464285D01*
X68124761Y-49416666D01*
X68172380Y-49321428D01*
X68172380Y-49130952D01*
X68124761Y-49035714D01*
X68077142Y-48988095D01*
X67981904Y-48940476D01*
X67172380Y-48940476D01*
X68172380Y-47940476D02*
X68172380Y-48511904D01*
X68172380Y-48226190D02*
X67172380Y-48226190D01*
X67315238Y-48321428D01*
X67410476Y-48416666D01*
X67458095Y-48511904D01*
X98621666Y-36752380D02*
X98621666Y-37466666D01*
X98574047Y-37609523D01*
X98478809Y-37704761D01*
X98335952Y-37752380D01*
X98240714Y-37752380D01*
X99050238Y-36847619D02*
X99097857Y-36800000D01*
X99193095Y-36752380D01*
X99431190Y-36752380D01*
X99526428Y-36800000D01*
X99574047Y-36847619D01*
X99621666Y-36942857D01*
X99621666Y-37038095D01*
X99574047Y-37180952D01*
X99002619Y-37752380D01*
X99621666Y-37752380D01*
X115621666Y-36752380D02*
X115621666Y-37466666D01*
X115574047Y-37609523D01*
X115478809Y-37704761D01*
X115335952Y-37752380D01*
X115240714Y-37752380D01*
X116002619Y-36752380D02*
X116621666Y-36752380D01*
X116288333Y-37133333D01*
X116431190Y-37133333D01*
X116526428Y-37180952D01*
X116574047Y-37228571D01*
X116621666Y-37323809D01*
X116621666Y-37561904D01*
X116574047Y-37657142D01*
X116526428Y-37704761D01*
X116431190Y-37752380D01*
X116145476Y-37752380D01*
X116050238Y-37704761D01*
X116002619Y-37657142D01*
X81621666Y-36752380D02*
X81621666Y-37466666D01*
X81574047Y-37609523D01*
X81478809Y-37704761D01*
X81335952Y-37752380D01*
X81240714Y-37752380D01*
X82621666Y-37752380D02*
X82050238Y-37752380D01*
X82335952Y-37752380D02*
X82335952Y-36752380D01*
X82240714Y-36895238D01*
X82145476Y-36990476D01*
X82050238Y-37038095D01*
X101172380Y-49511904D02*
X101981904Y-49511904D01*
X102077142Y-49464285D01*
X102124761Y-49416666D01*
X102172380Y-49321428D01*
X102172380Y-49130952D01*
X102124761Y-49035714D01*
X102077142Y-48988095D01*
X101981904Y-48940476D01*
X101172380Y-48940476D01*
X101172380Y-48559523D02*
X101172380Y-47940476D01*
X101553333Y-48273809D01*
X101553333Y-48130952D01*
X101600952Y-48035714D01*
X101648571Y-47988095D01*
X101743809Y-47940476D01*
X101981904Y-47940476D01*
X102077142Y-47988095D01*
X102124761Y-48035714D01*
X102172380Y-48130952D01*
X102172380Y-48416666D01*
X102124761Y-48511904D01*
X102077142Y-48559523D01*
X98261666Y-98752380D02*
X98261666Y-99466666D01*
X98214047Y-99609523D01*
X98118809Y-99704761D01*
X97975952Y-99752380D01*
X97880714Y-99752380D01*
X99166428Y-98752380D02*
X98975952Y-98752380D01*
X98880714Y-98800000D01*
X98833095Y-98847619D01*
X98737857Y-98990476D01*
X98690238Y-99180952D01*
X98690238Y-99561904D01*
X98737857Y-99657142D01*
X98785476Y-99704761D01*
X98880714Y-99752380D01*
X99071190Y-99752380D01*
X99166428Y-99704761D01*
X99214047Y-99657142D01*
X99261666Y-99561904D01*
X99261666Y-99323809D01*
X99214047Y-99228571D01*
X99166428Y-99180952D01*
X99071190Y-99133333D01*
X98880714Y-99133333D01*
X98785476Y-99180952D01*
X98737857Y-99228571D01*
X98690238Y-99323809D01*
X95482380Y-88511904D02*
X96291904Y-88511904D01*
X96387142Y-88464285D01*
X96434761Y-88416666D01*
X96482380Y-88321428D01*
X96482380Y-88130952D01*
X96434761Y-88035714D01*
X96387142Y-87988095D01*
X96291904Y-87940476D01*
X95482380Y-87940476D01*
X95482380Y-87559523D02*
X95482380Y-86892857D01*
X96482380Y-87321428D01*
X81261666Y-98752380D02*
X81261666Y-99466666D01*
X81214047Y-99609523D01*
X81118809Y-99704761D01*
X80975952Y-99752380D01*
X80880714Y-99752380D01*
X81642619Y-98752380D02*
X82309285Y-98752380D01*
X81880714Y-99752380D01*
X115261666Y-98752380D02*
X115261666Y-99466666D01*
X115214047Y-99609523D01*
X115118809Y-99704761D01*
X114975952Y-99752380D01*
X114880714Y-99752380D01*
X116214047Y-98752380D02*
X115737857Y-98752380D01*
X115690238Y-99228571D01*
X115737857Y-99180952D01*
X115833095Y-99133333D01*
X116071190Y-99133333D01*
X116166428Y-99180952D01*
X116214047Y-99228571D01*
X116261666Y-99323809D01*
X116261666Y-99561904D01*
X116214047Y-99657142D01*
X116166428Y-99704761D01*
X116071190Y-99752380D01*
X115833095Y-99752380D01*
X115737857Y-99704761D01*
X115690238Y-99657142D01*
X78482380Y-88511904D02*
X79291904Y-88511904D01*
X79387142Y-88464285D01*
X79434761Y-88416666D01*
X79482380Y-88321428D01*
X79482380Y-88130952D01*
X79434761Y-88035714D01*
X79387142Y-87988095D01*
X79291904Y-87940476D01*
X78482380Y-87940476D01*
X78910952Y-87321428D02*
X78863333Y-87416666D01*
X78815714Y-87464285D01*
X78720476Y-87511904D01*
X78672857Y-87511904D01*
X78577619Y-87464285D01*
X78530000Y-87416666D01*
X78482380Y-87321428D01*
X78482380Y-87130952D01*
X78530000Y-87035714D01*
X78577619Y-86988095D01*
X78672857Y-86940476D01*
X78720476Y-86940476D01*
X78815714Y-86988095D01*
X78863333Y-87035714D01*
X78910952Y-87130952D01*
X78910952Y-87321428D01*
X78958571Y-87416666D01*
X79006190Y-87464285D01*
X79101428Y-87511904D01*
X79291904Y-87511904D01*
X79387142Y-87464285D01*
X79434761Y-87416666D01*
X79482380Y-87321428D01*
X79482380Y-87130952D01*
X79434761Y-87035714D01*
X79387142Y-86988095D01*
X79291904Y-86940476D01*
X79101428Y-86940476D01*
X79006190Y-86988095D01*
X78958571Y-87035714D01*
X78910952Y-87130952D01*
X64261666Y-98752380D02*
X64261666Y-99466666D01*
X64214047Y-99609523D01*
X64118809Y-99704761D01*
X63975952Y-99752380D01*
X63880714Y-99752380D01*
X64880714Y-99180952D02*
X64785476Y-99133333D01*
X64737857Y-99085714D01*
X64690238Y-98990476D01*
X64690238Y-98942857D01*
X64737857Y-98847619D01*
X64785476Y-98800000D01*
X64880714Y-98752380D01*
X65071190Y-98752380D01*
X65166428Y-98800000D01*
X65214047Y-98847619D01*
X65261666Y-98942857D01*
X65261666Y-98990476D01*
X65214047Y-99085714D01*
X65166428Y-99133333D01*
X65071190Y-99180952D01*
X64880714Y-99180952D01*
X64785476Y-99228571D01*
X64737857Y-99276190D01*
X64690238Y-99371428D01*
X64690238Y-99561904D01*
X64737857Y-99657142D01*
X64785476Y-99704761D01*
X64880714Y-99752380D01*
X65071190Y-99752380D01*
X65166428Y-99704761D01*
X65214047Y-99657142D01*
X65261666Y-99561904D01*
X65261666Y-99371428D01*
X65214047Y-99276190D01*
X65166428Y-99228571D01*
X65071190Y-99180952D01*
X112482380Y-88511904D02*
X113291904Y-88511904D01*
X113387142Y-88464285D01*
X113434761Y-88416666D01*
X113482380Y-88321428D01*
X113482380Y-88130952D01*
X113434761Y-88035714D01*
X113387142Y-87988095D01*
X113291904Y-87940476D01*
X112482380Y-87940476D01*
X112482380Y-87035714D02*
X112482380Y-87226190D01*
X112530000Y-87321428D01*
X112577619Y-87369047D01*
X112720476Y-87464285D01*
X112910952Y-87511904D01*
X113291904Y-87511904D01*
X113387142Y-87464285D01*
X113434761Y-87416666D01*
X113482380Y-87321428D01*
X113482380Y-87130952D01*
X113434761Y-87035714D01*
X113387142Y-86988095D01*
X113291904Y-86940476D01*
X113053809Y-86940476D01*
X112958571Y-86988095D01*
X112910952Y-87035714D01*
X112863333Y-87130952D01*
X112863333Y-87321428D01*
X112910952Y-87416666D01*
X112958571Y-87464285D01*
X113053809Y-87511904D01*
X129482380Y-88511904D02*
X130291904Y-88511904D01*
X130387142Y-88464285D01*
X130434761Y-88416666D01*
X130482380Y-88321428D01*
X130482380Y-88130952D01*
X130434761Y-88035714D01*
X130387142Y-87988095D01*
X130291904Y-87940476D01*
X129482380Y-87940476D01*
X129482380Y-86988095D02*
X129482380Y-87464285D01*
X129958571Y-87511904D01*
X129910952Y-87464285D01*
X129863333Y-87369047D01*
X129863333Y-87130952D01*
X129910952Y-87035714D01*
X129958571Y-86988095D01*
X130053809Y-86940476D01*
X130291904Y-86940476D01*
X130387142Y-86988095D01*
X130434761Y-87035714D01*
X130482380Y-87130952D01*
X130482380Y-87369047D01*
X130434761Y-87464285D01*
X130387142Y-87511904D01*
X45216666Y-33952380D02*
X45216666Y-34666666D01*
X45169047Y-34809523D01*
X45073809Y-34904761D01*
X44930952Y-34952380D01*
X44835714Y-34952380D01*
X45740476Y-34952380D02*
X45930952Y-34952380D01*
X46026190Y-34904761D01*
X46073809Y-34857142D01*
X46169047Y-34714285D01*
X46216666Y-34523809D01*
X46216666Y-34142857D01*
X46169047Y-34047619D01*
X46121428Y-34000000D01*
X46026190Y-33952380D01*
X45835714Y-33952380D01*
X45740476Y-34000000D01*
X45692857Y-34047619D01*
X45645238Y-34142857D01*
X45645238Y-34380952D01*
X45692857Y-34476190D01*
X45740476Y-34523809D01*
X45835714Y-34571428D01*
X46026190Y-34571428D01*
X46121428Y-34523809D01*
X46169047Y-34476190D01*
X46216666Y-34380952D01*
X118172380Y-49511904D02*
X118981904Y-49511904D01*
X119077142Y-49464285D01*
X119124761Y-49416666D01*
X119172380Y-49321428D01*
X119172380Y-49130952D01*
X119124761Y-49035714D01*
X119077142Y-48988095D01*
X118981904Y-48940476D01*
X118172380Y-48940476D01*
X118505714Y-48035714D02*
X119172380Y-48035714D01*
X118124761Y-48273809D02*
X118839047Y-48511904D01*
X118839047Y-47892857D01*
X132621666Y-36752380D02*
X132621666Y-37466666D01*
X132574047Y-37609523D01*
X132478809Y-37704761D01*
X132335952Y-37752380D01*
X132240714Y-37752380D01*
X133526428Y-37085714D02*
X133526428Y-37752380D01*
X133288333Y-36704761D02*
X133050238Y-37419047D01*
X133669285Y-37419047D01*
X62607142Y-73857142D02*
X62559523Y-73904761D01*
X62416666Y-73952380D01*
X62321428Y-73952380D01*
X62178571Y-73904761D01*
X62083333Y-73809523D01*
X62035714Y-73714285D01*
X61988095Y-73523809D01*
X61988095Y-73380952D01*
X62035714Y-73190476D01*
X62083333Y-73095238D01*
X62178571Y-73000000D01*
X62321428Y-72952380D01*
X62416666Y-72952380D01*
X62559523Y-73000000D01*
X62607142Y-73047619D01*
X63559523Y-73952380D02*
X62988095Y-73952380D01*
X63273809Y-73952380D02*
X63273809Y-72952380D01*
X63178571Y-73095238D01*
X63083333Y-73190476D01*
X62988095Y-73238095D01*
X64511904Y-73952380D02*
X63940476Y-73952380D01*
X64226190Y-73952380D02*
X64226190Y-72952380D01*
X64130952Y-73095238D01*
X64035714Y-73190476D01*
X63940476Y-73238095D01*
M02*
