%TF.GenerationSoftware,KiCad,Pcbnew,(5.1.4-0-10_14)*%
%TF.CreationDate,2019-12-20T01:32:49-08:00*%
%TF.ProjectId,DeskPCB,4465736b-5043-4422-9e6b-696361645f70,rev?*%
%TF.SameCoordinates,Original*%
%TF.FileFunction,Copper,L1,Top*%
%TF.FilePolarity,Positive*%
%FSLAX46Y46*%
G04 Gerber Fmt 4.6, Leading zero omitted, Abs format (unit mm)*
G04 Created by KiCad (PCBNEW (5.1.4-0-10_14)) date 2019-12-20 01:32:49*
%MOMM*%
%LPD*%
G04 APERTURE LIST*
%ADD10C,0.050000*%
%ADD11R,1.500000X1.500000*%
%ADD12C,1.500000*%
%ADD13O,1.600000X1.600000*%
%ADD14R,1.600000X1.600000*%
%ADD15C,1.600000*%
%ADD16O,2.000000X1.600000*%
%ADD17R,2.000000X2.000000*%
%ADD18R,1.350000X0.400000*%
%ADD19R,1.550000X0.400000*%
%ADD20O,1.600000X0.900000*%
%ADD21R,1.400000X1.600000*%
%ADD22R,1.900000X1.900000*%
%ADD23O,1.800000X3.000000*%
%ADD24R,1.800000X3.000000*%
%ADD25C,0.762000*%
%ADD26C,0.254000*%
%ADD27C,0.508000*%
%ADD28C,0.025400*%
G04 APERTURE END LIST*
D10*
X108712000Y-92456000D02*
X38862000Y-92456000D01*
X38862000Y-92456000D02*
X38862000Y-37528500D01*
X108712000Y-37528500D02*
X108712000Y-92456000D01*
X38862000Y-37528500D02*
X108712000Y-37528500D01*
D11*
X53594000Y-51816000D03*
D12*
X56134000Y-53086000D03*
X53594000Y-54356000D03*
X56134000Y-55626000D03*
X53594000Y-56896000D03*
X56134000Y-58166000D03*
X53594000Y-59436000D03*
X56134000Y-60706000D03*
D13*
X64770000Y-80264000D03*
X80010000Y-87884000D03*
X67310000Y-80264000D03*
X77470000Y-87884000D03*
X69850000Y-80264000D03*
X74930000Y-87884000D03*
X72390000Y-80264000D03*
X72390000Y-87884000D03*
X74930000Y-80264000D03*
X69850000Y-87884000D03*
X77470000Y-80264000D03*
X67310000Y-87884000D03*
X80010000Y-80264000D03*
D14*
X64770000Y-87884000D03*
D13*
X61468000Y-87884000D03*
D15*
X58928000Y-87884000D03*
D16*
X62230000Y-49276000D03*
D17*
X62230000Y-46736000D03*
D16*
X62230000Y-51816000D03*
X62230000Y-54356000D03*
X62230000Y-56896000D03*
X62230000Y-59436000D03*
X62230000Y-61976000D03*
X62230000Y-64516000D03*
X85090000Y-64516000D03*
X85090000Y-61976000D03*
X85090000Y-59436000D03*
X85090000Y-56896000D03*
X85090000Y-54356000D03*
X85090000Y-51816000D03*
X85090000Y-49276000D03*
X85090000Y-46736000D03*
D18*
X102481000Y-85090000D03*
X102481000Y-84440000D03*
D19*
X102381000Y-83790000D03*
D18*
X102481000Y-85740000D03*
D19*
X102381000Y-86390000D03*
D20*
X105156000Y-81790000D03*
X105156000Y-88390000D03*
D21*
X102706000Y-88290000D03*
X102706000Y-81890000D03*
D22*
X105156000Y-86290000D03*
X105156000Y-83890000D03*
D23*
X96360000Y-83900000D03*
X96360000Y-88900000D03*
X93860000Y-83900000D03*
X93860000Y-88900000D03*
X91360000Y-83900000D03*
X91360000Y-88900000D03*
X88860000Y-83900000D03*
X88860000Y-88900000D03*
D24*
X86360000Y-83900000D03*
X86360000Y-88900000D03*
D18*
X102481000Y-74168000D03*
X102481000Y-73518000D03*
D19*
X102381000Y-72868000D03*
D18*
X102481000Y-74818000D03*
D19*
X102381000Y-75468000D03*
D20*
X105156000Y-70868000D03*
X105156000Y-77468000D03*
D21*
X102706000Y-77368000D03*
X102706000Y-70968000D03*
D22*
X105156000Y-75368000D03*
X105156000Y-72968000D03*
D13*
X79756000Y-77470000D03*
D15*
X79756000Y-74930000D03*
X67564000Y-77176000D03*
X67564000Y-74676000D03*
X64770000Y-77176000D03*
X64770000Y-74676000D03*
D11*
X93726000Y-60706000D03*
D12*
X91186000Y-59436000D03*
X93726000Y-58166000D03*
X91186000Y-56896000D03*
X93726000Y-55626000D03*
X91186000Y-54356000D03*
X93726000Y-53086000D03*
X91186000Y-51816000D03*
D15*
X85344000Y-78994000D03*
D13*
X87884000Y-78994000D03*
D15*
X58928000Y-83566000D03*
D13*
X61468000Y-83566000D03*
D15*
X58928000Y-79248000D03*
D13*
X61468000Y-79248000D03*
D25*
X99923600Y-72517000D03*
X100863400Y-72517000D03*
X99923600Y-83413600D03*
X100863400Y-83413600D03*
D26*
X84509000Y-51816000D02*
X84709000Y-51816000D01*
X85090000Y-51816000D02*
X91186000Y-51816000D01*
X85159010Y-54356000D02*
X85159010Y-54169600D01*
X84509000Y-54356000D02*
X84709000Y-54356000D01*
X84709000Y-54356000D02*
X85959000Y-54356000D01*
X85159010Y-54169600D02*
X85027205Y-54037795D01*
X87614000Y-53086000D02*
X93726000Y-53086000D01*
X86344000Y-54356000D02*
X87614000Y-53086000D01*
X85090000Y-54356000D02*
X86344000Y-54356000D01*
X56134000Y-61766660D02*
X56134000Y-60706000D01*
X56134000Y-87372534D02*
X56134000Y-61766660D01*
X58207476Y-89446010D02*
X56134000Y-87372534D01*
X68287990Y-89446010D02*
X58207476Y-89446010D01*
X69850000Y-87884000D02*
X68287990Y-89446010D01*
X53594000Y-85461166D02*
X53594000Y-60496660D01*
X58023353Y-89890519D02*
X53594000Y-85461166D01*
X53594000Y-60496660D02*
X53594000Y-59436000D01*
X75463481Y-89890519D02*
X58023353Y-89890519D01*
X77470000Y-87884000D02*
X75463481Y-89890519D01*
X64730000Y-80224000D02*
X64770000Y-80264000D01*
X64770000Y-80264000D02*
X67310000Y-80264000D01*
D27*
X85090000Y-64516000D02*
X85290000Y-64516000D01*
X67564000Y-77176000D02*
X64770000Y-77176000D01*
X64770000Y-77176000D02*
X64770000Y-80264000D01*
X85290000Y-64516000D02*
X90678000Y-69904000D01*
X90678000Y-69904000D02*
X90678000Y-75565000D01*
X68565499Y-76174501D02*
X91859001Y-76174501D01*
X67564000Y-77176000D02*
X68565499Y-76174501D01*
D26*
X88860000Y-82573500D02*
X88860000Y-83900000D01*
X88860000Y-79970000D02*
X88860000Y-83900000D01*
X87884000Y-78994000D02*
X88860000Y-79970000D01*
D27*
X58928000Y-67618000D02*
X58928000Y-79248000D01*
X62030000Y-64516000D02*
X58928000Y-67618000D01*
X62230000Y-64516000D02*
X62030000Y-64516000D01*
X58928000Y-79248000D02*
X58928000Y-83566000D01*
X58928000Y-83566000D02*
X58928000Y-87884000D01*
D26*
X62030000Y-56896000D02*
X57810499Y-61115501D01*
X58391599Y-89001501D02*
X60350499Y-89001501D01*
X57810499Y-88420401D02*
X58391599Y-89001501D01*
X60350499Y-89001501D02*
X61468000Y-87884000D01*
X57810499Y-61115501D02*
X57810499Y-88420401D01*
X62230000Y-56896000D02*
X62030000Y-56896000D01*
X62599370Y-87884000D02*
X64770000Y-87884000D01*
X61468000Y-87884000D02*
X62599370Y-87884000D01*
X73812499Y-81381501D02*
X74930000Y-80264000D01*
X62470131Y-81381501D02*
X73812499Y-81381501D01*
X61468000Y-80379370D02*
X62470131Y-81381501D01*
X61468000Y-79248000D02*
X61468000Y-80379370D01*
X62430000Y-54356000D02*
X62230000Y-54356000D01*
X63992020Y-55918020D02*
X62430000Y-54356000D01*
X63992020Y-65163009D02*
X63992020Y-55918020D01*
X61468000Y-67687029D02*
X63992020Y-65163009D01*
X61468000Y-78994000D02*
X61468000Y-67687029D01*
X62230000Y-59436000D02*
X62030000Y-59436000D01*
X60350499Y-82448499D02*
X61468000Y-83566000D01*
X60350499Y-68175898D02*
X60350499Y-82448499D01*
X63547510Y-64978887D02*
X60350499Y-68175898D01*
X63547510Y-60553510D02*
X63547510Y-64978887D01*
X62430000Y-59436000D02*
X63547510Y-60553510D01*
X62230000Y-59436000D02*
X62430000Y-59436000D01*
X68072000Y-83566000D02*
X72390000Y-87884000D01*
X61468000Y-83566000D02*
X68072000Y-83566000D01*
X79756000Y-77978000D02*
X79756000Y-77470000D01*
X77470000Y-80264000D02*
X79756000Y-77978000D01*
X84890000Y-59436000D02*
X85090000Y-59436000D01*
X79756000Y-64570000D02*
X84890000Y-59436000D01*
X79756000Y-74930000D02*
X79756000Y-64570000D01*
X81280000Y-78994000D02*
X85344000Y-78994000D01*
X80010000Y-80264000D02*
X81280000Y-78994000D01*
G36*
X101929816Y-82998676D02*
G01*
X101943759Y-83002906D01*
X102006000Y-83009036D01*
X103073200Y-83009036D01*
X103073200Y-83920745D01*
X99542600Y-83897050D01*
X99542600Y-82982655D01*
X101929816Y-82998676D01*
X101929816Y-82998676D01*
G37*
X101929816Y-82998676D02*
X101943759Y-83002906D01*
X102006000Y-83009036D01*
X103073200Y-83009036D01*
X103073200Y-83920745D01*
X99542600Y-83897050D01*
X99542600Y-82982655D01*
X101929816Y-82998676D01*
G36*
X102006000Y-72087036D02*
G01*
X103073200Y-72087036D01*
X103073200Y-72998964D01*
X101806000Y-72998964D01*
X101799542Y-72999600D01*
X99364800Y-72999600D01*
X99364800Y-72085200D01*
X101987358Y-72085200D01*
X102006000Y-72087036D01*
X102006000Y-72087036D01*
G37*
X102006000Y-72087036D02*
X103073200Y-72087036D01*
X103073200Y-72998964D01*
X101806000Y-72998964D01*
X101799542Y-72999600D01*
X99364800Y-72999600D01*
X99364800Y-72085200D01*
X101987358Y-72085200D01*
X102006000Y-72087036D01*
D28*
G36*
X97256600Y-88861988D02*
G01*
X95453200Y-88874511D01*
X95453200Y-83845312D01*
X97256600Y-83832789D01*
X97256600Y-88861988D01*
X97256600Y-88861988D01*
G37*
X97256600Y-88861988D02*
X95453200Y-88874511D01*
X95453200Y-83845312D01*
X97256600Y-83832789D01*
X97256600Y-88861988D01*
D26*
G36*
X98853649Y-82498467D02*
G01*
X98894043Y-82525457D01*
X98921033Y-82565851D01*
X98933000Y-82626010D01*
X98933000Y-83954267D01*
X98936068Y-83982013D01*
X98960315Y-84090316D01*
X98968109Y-84113961D01*
X98983976Y-84140511D01*
X99052088Y-84228137D01*
X99071538Y-84248160D01*
X101448790Y-86209393D01*
X101466799Y-86221809D01*
X101542562Y-86264922D01*
X101565303Y-86275055D01*
X101583582Y-86279658D01*
X101669460Y-86294616D01*
X101691252Y-86296500D01*
X102952739Y-86296500D01*
X103000749Y-86306050D01*
X103030842Y-86326158D01*
X103050950Y-86356251D01*
X103060500Y-86404261D01*
X103060500Y-86489641D01*
X103047316Y-86552625D01*
X103009982Y-86605027D01*
X102396883Y-87170964D01*
X102006000Y-87170964D01*
X101943759Y-87177094D01*
X101883910Y-87195249D01*
X101828753Y-87224731D01*
X101780407Y-87264407D01*
X101740731Y-87312753D01*
X101711249Y-87367910D01*
X101693094Y-87427759D01*
X101686964Y-87490000D01*
X101686964Y-87826274D01*
X99055549Y-90255272D01*
X99006122Y-90286196D01*
X98948822Y-90297000D01*
X96596010Y-90297000D01*
X96535851Y-90285033D01*
X96495457Y-90258043D01*
X96468467Y-90217649D01*
X96456500Y-90157490D01*
X96456500Y-82626010D01*
X96468467Y-82565851D01*
X96495457Y-82525457D01*
X96535851Y-82498467D01*
X96596010Y-82486500D01*
X98793490Y-82486500D01*
X98853649Y-82498467D01*
X98853649Y-82498467D01*
G37*
X98853649Y-82498467D02*
X98894043Y-82525457D01*
X98921033Y-82565851D01*
X98933000Y-82626010D01*
X98933000Y-83954267D01*
X98936068Y-83982013D01*
X98960315Y-84090316D01*
X98968109Y-84113961D01*
X98983976Y-84140511D01*
X99052088Y-84228137D01*
X99071538Y-84248160D01*
X101448790Y-86209393D01*
X101466799Y-86221809D01*
X101542562Y-86264922D01*
X101565303Y-86275055D01*
X101583582Y-86279658D01*
X101669460Y-86294616D01*
X101691252Y-86296500D01*
X102952739Y-86296500D01*
X103000749Y-86306050D01*
X103030842Y-86326158D01*
X103050950Y-86356251D01*
X103060500Y-86404261D01*
X103060500Y-86489641D01*
X103047316Y-86552625D01*
X103009982Y-86605027D01*
X102396883Y-87170964D01*
X102006000Y-87170964D01*
X101943759Y-87177094D01*
X101883910Y-87195249D01*
X101828753Y-87224731D01*
X101780407Y-87264407D01*
X101740731Y-87312753D01*
X101711249Y-87367910D01*
X101693094Y-87427759D01*
X101686964Y-87490000D01*
X101686964Y-87826274D01*
X99055549Y-90255272D01*
X99006122Y-90286196D01*
X98948822Y-90297000D01*
X96596010Y-90297000D01*
X96535851Y-90285033D01*
X96495457Y-90258043D01*
X96468467Y-90217649D01*
X96456500Y-90157490D01*
X96456500Y-82626010D01*
X96468467Y-82565851D01*
X96495457Y-82525457D01*
X96535851Y-82498467D01*
X96596010Y-82486500D01*
X98793490Y-82486500D01*
X98853649Y-82498467D01*
G36*
X103000749Y-75384050D02*
G01*
X103030842Y-75404158D01*
X103050950Y-75434251D01*
X103060500Y-75482261D01*
X103060500Y-75598861D01*
X103052683Y-75647903D01*
X103030008Y-75692084D01*
X102622061Y-76248964D01*
X102006000Y-76248964D01*
X101943759Y-76255094D01*
X101883910Y-76273249D01*
X101828753Y-76302731D01*
X101780407Y-76342407D01*
X101740731Y-76390753D01*
X101711249Y-76445910D01*
X101693094Y-76505759D01*
X101686964Y-76568000D01*
X101686964Y-77525446D01*
X99169505Y-80961977D01*
X99114025Y-81009080D01*
X99043240Y-81026000D01*
X92583000Y-81026000D01*
X92558223Y-81028440D01*
X92461021Y-81047775D01*
X92437197Y-81055002D01*
X92415241Y-81066738D01*
X92332838Y-81121798D01*
X92313592Y-81137592D01*
X92297798Y-81156838D01*
X92242738Y-81239241D01*
X92231002Y-81261197D01*
X92223775Y-81285021D01*
X92204440Y-81382223D01*
X92202000Y-81407000D01*
X92202000Y-84124990D01*
X92190033Y-84185149D01*
X92163043Y-84225543D01*
X92122649Y-84252533D01*
X92062490Y-84264500D01*
X90690510Y-84264500D01*
X90630351Y-84252533D01*
X90589957Y-84225543D01*
X90562967Y-84185149D01*
X90551000Y-84124990D01*
X90551000Y-75514010D01*
X90562967Y-75453851D01*
X90589957Y-75413457D01*
X90630351Y-75386467D01*
X90690510Y-75374500D01*
X102952739Y-75374500D01*
X103000749Y-75384050D01*
X103000749Y-75384050D01*
G37*
X103000749Y-75384050D02*
X103030842Y-75404158D01*
X103050950Y-75434251D01*
X103060500Y-75482261D01*
X103060500Y-75598861D01*
X103052683Y-75647903D01*
X103030008Y-75692084D01*
X102622061Y-76248964D01*
X102006000Y-76248964D01*
X101943759Y-76255094D01*
X101883910Y-76273249D01*
X101828753Y-76302731D01*
X101780407Y-76342407D01*
X101740731Y-76390753D01*
X101711249Y-76445910D01*
X101693094Y-76505759D01*
X101686964Y-76568000D01*
X101686964Y-77525446D01*
X99169505Y-80961977D01*
X99114025Y-81009080D01*
X99043240Y-81026000D01*
X92583000Y-81026000D01*
X92558223Y-81028440D01*
X92461021Y-81047775D01*
X92437197Y-81055002D01*
X92415241Y-81066738D01*
X92332838Y-81121798D01*
X92313592Y-81137592D01*
X92297798Y-81156838D01*
X92242738Y-81239241D01*
X92231002Y-81261197D01*
X92223775Y-81285021D01*
X92204440Y-81382223D01*
X92202000Y-81407000D01*
X92202000Y-84124990D01*
X92190033Y-84185149D01*
X92163043Y-84225543D01*
X92122649Y-84252533D01*
X92062490Y-84264500D01*
X90690510Y-84264500D01*
X90630351Y-84252533D01*
X90589957Y-84225543D01*
X90562967Y-84185149D01*
X90551000Y-84124990D01*
X90551000Y-75514010D01*
X90562967Y-75453851D01*
X90589957Y-75413457D01*
X90630351Y-75386467D01*
X90690510Y-75374500D01*
X102952739Y-75374500D01*
X103000749Y-75384050D01*
G36*
X92122649Y-83323967D02*
G01*
X92163043Y-83350957D01*
X92190033Y-83391351D01*
X92202000Y-83451510D01*
X92202000Y-88760490D01*
X92190033Y-88820649D01*
X92163043Y-88861043D01*
X92122649Y-88888033D01*
X92062490Y-88900000D01*
X90690510Y-88900000D01*
X90630351Y-88888033D01*
X90589957Y-88861043D01*
X90562967Y-88820649D01*
X90551000Y-88760490D01*
X90551000Y-83451510D01*
X90562967Y-83391351D01*
X90589957Y-83350957D01*
X90630351Y-83323967D01*
X90690510Y-83312000D01*
X92062490Y-83312000D01*
X92122649Y-83323967D01*
X92122649Y-83323967D01*
G37*
X92122649Y-83323967D02*
X92163043Y-83350957D01*
X92190033Y-83391351D01*
X92202000Y-83451510D01*
X92202000Y-88760490D01*
X92190033Y-88820649D01*
X92163043Y-88861043D01*
X92122649Y-88888033D01*
X92062490Y-88900000D01*
X90690510Y-88900000D01*
X90630351Y-88888033D01*
X90589957Y-88861043D01*
X90562967Y-88820649D01*
X90551000Y-88760490D01*
X90551000Y-83451510D01*
X90562967Y-83391351D01*
X90589957Y-83350957D01*
X90630351Y-83323967D01*
X90690510Y-83312000D01*
X92062490Y-83312000D01*
X92122649Y-83323967D01*
M02*
