%TF.GenerationSoftware,KiCad,Pcbnew,(5.1.4-0-10_14)*%
%TF.CreationDate,2019-12-20T01:32:49-08:00*%
%TF.ProjectId,DeskPCB,4465736b-5043-4422-9e6b-696361645f70,rev?*%
%TF.SameCoordinates,Original*%
%TF.FileFunction,Soldermask,Bot*%
%TF.FilePolarity,Negative*%
%FSLAX46Y46*%
G04 Gerber Fmt 4.6, Leading zero omitted, Abs format (unit mm)*
G04 Created by KiCad (PCBNEW (5.1.4-0-10_14)) date 2019-12-20 01:32:49*
%MOMM*%
%LPD*%
G04 APERTURE LIST*
%ADD10C,0.050000*%
%ADD11C,0.150000*%
G04 APERTURE END LIST*
D10*
X108712000Y-92456000D02*
X38862000Y-92456000D01*
X38862000Y-92456000D02*
X38862000Y-37528500D01*
X108712000Y-37528500D02*
X108712000Y-92456000D01*
X38862000Y-37528500D02*
X108712000Y-37528500D01*
D11*
G36*
X89046424Y-87362760D02*
G01*
X89046427Y-87362761D01*
X89046428Y-87362761D01*
X89225692Y-87417140D01*
X89225695Y-87417142D01*
X89225696Y-87417142D01*
X89390903Y-87505446D01*
X89535712Y-87624288D01*
X89654554Y-87769097D01*
X89722518Y-87896250D01*
X89742860Y-87934307D01*
X89797239Y-88113571D01*
X89797240Y-88113575D01*
X89811000Y-88253282D01*
X89811000Y-89546718D01*
X89797240Y-89686425D01*
X89797239Y-89686428D01*
X89797239Y-89686429D01*
X89742860Y-89865693D01*
X89742858Y-89865696D01*
X89742858Y-89865697D01*
X89654554Y-90030903D01*
X89535712Y-90175712D01*
X89390903Y-90294554D01*
X89225697Y-90382858D01*
X89225693Y-90382860D01*
X89046429Y-90437239D01*
X89046428Y-90437239D01*
X89046425Y-90437240D01*
X88860000Y-90455601D01*
X88673576Y-90437240D01*
X88673573Y-90437239D01*
X88673572Y-90437239D01*
X88494308Y-90382860D01*
X88494304Y-90382858D01*
X88329098Y-90294554D01*
X88184289Y-90175712D01*
X88065447Y-90030903D01*
X87977140Y-89865692D01*
X87922760Y-89686430D01*
X87909000Y-89546718D01*
X87909000Y-88253283D01*
X87922760Y-88113576D01*
X87922761Y-88113572D01*
X87977140Y-87934308D01*
X87997483Y-87896249D01*
X88065446Y-87769097D01*
X88184288Y-87624288D01*
X88329097Y-87505446D01*
X88494303Y-87417142D01*
X88494304Y-87417142D01*
X88494307Y-87417140D01*
X88673571Y-87362761D01*
X88673572Y-87362761D01*
X88673575Y-87362760D01*
X88860000Y-87344399D01*
X89046424Y-87362760D01*
X89046424Y-87362760D01*
G37*
G36*
X91546424Y-87362760D02*
G01*
X91546427Y-87362761D01*
X91546428Y-87362761D01*
X91725692Y-87417140D01*
X91725695Y-87417142D01*
X91725696Y-87417142D01*
X91890903Y-87505446D01*
X92035712Y-87624288D01*
X92154554Y-87769097D01*
X92222518Y-87896250D01*
X92242860Y-87934307D01*
X92297239Y-88113571D01*
X92297240Y-88113575D01*
X92311000Y-88253282D01*
X92311000Y-89546718D01*
X92297240Y-89686425D01*
X92297239Y-89686428D01*
X92297239Y-89686429D01*
X92242860Y-89865693D01*
X92242858Y-89865696D01*
X92242858Y-89865697D01*
X92154554Y-90030903D01*
X92035712Y-90175712D01*
X91890903Y-90294554D01*
X91725697Y-90382858D01*
X91725693Y-90382860D01*
X91546429Y-90437239D01*
X91546428Y-90437239D01*
X91546425Y-90437240D01*
X91360000Y-90455601D01*
X91173576Y-90437240D01*
X91173573Y-90437239D01*
X91173572Y-90437239D01*
X90994308Y-90382860D01*
X90994304Y-90382858D01*
X90829098Y-90294554D01*
X90684289Y-90175712D01*
X90565447Y-90030903D01*
X90477140Y-89865692D01*
X90422760Y-89686430D01*
X90409000Y-89546718D01*
X90409000Y-88253283D01*
X90422760Y-88113576D01*
X90422761Y-88113572D01*
X90477140Y-87934308D01*
X90497483Y-87896249D01*
X90565446Y-87769097D01*
X90684288Y-87624288D01*
X90829097Y-87505446D01*
X90994303Y-87417142D01*
X90994304Y-87417142D01*
X90994307Y-87417140D01*
X91173571Y-87362761D01*
X91173572Y-87362761D01*
X91173575Y-87362760D01*
X91360000Y-87344399D01*
X91546424Y-87362760D01*
X91546424Y-87362760D01*
G37*
G36*
X94046424Y-87362760D02*
G01*
X94046427Y-87362761D01*
X94046428Y-87362761D01*
X94225692Y-87417140D01*
X94225695Y-87417142D01*
X94225696Y-87417142D01*
X94390903Y-87505446D01*
X94535712Y-87624288D01*
X94654554Y-87769097D01*
X94722518Y-87896250D01*
X94742860Y-87934307D01*
X94797239Y-88113571D01*
X94797240Y-88113575D01*
X94811000Y-88253282D01*
X94811000Y-89546718D01*
X94797240Y-89686425D01*
X94797239Y-89686428D01*
X94797239Y-89686429D01*
X94742860Y-89865693D01*
X94742858Y-89865696D01*
X94742858Y-89865697D01*
X94654554Y-90030903D01*
X94535712Y-90175712D01*
X94390903Y-90294554D01*
X94225697Y-90382858D01*
X94225693Y-90382860D01*
X94046429Y-90437239D01*
X94046428Y-90437239D01*
X94046425Y-90437240D01*
X93860000Y-90455601D01*
X93673576Y-90437240D01*
X93673573Y-90437239D01*
X93673572Y-90437239D01*
X93494308Y-90382860D01*
X93494304Y-90382858D01*
X93329098Y-90294554D01*
X93184289Y-90175712D01*
X93065447Y-90030903D01*
X92977140Y-89865692D01*
X92922760Y-89686430D01*
X92909000Y-89546718D01*
X92909000Y-88253283D01*
X92922760Y-88113576D01*
X92922761Y-88113572D01*
X92977140Y-87934308D01*
X92997483Y-87896249D01*
X93065446Y-87769097D01*
X93184288Y-87624288D01*
X93329097Y-87505446D01*
X93494303Y-87417142D01*
X93494304Y-87417142D01*
X93494307Y-87417140D01*
X93673571Y-87362761D01*
X93673572Y-87362761D01*
X93673575Y-87362760D01*
X93860000Y-87344399D01*
X94046424Y-87362760D01*
X94046424Y-87362760D01*
G37*
G36*
X96546424Y-87362760D02*
G01*
X96546427Y-87362761D01*
X96546428Y-87362761D01*
X96725692Y-87417140D01*
X96725695Y-87417142D01*
X96725696Y-87417142D01*
X96890903Y-87505446D01*
X97035712Y-87624288D01*
X97154554Y-87769097D01*
X97222518Y-87896250D01*
X97242860Y-87934307D01*
X97297239Y-88113571D01*
X97297240Y-88113575D01*
X97311000Y-88253282D01*
X97311000Y-89546718D01*
X97297240Y-89686425D01*
X97297239Y-89686428D01*
X97297239Y-89686429D01*
X97242860Y-89865693D01*
X97242858Y-89865696D01*
X97242858Y-89865697D01*
X97154554Y-90030903D01*
X97035712Y-90175712D01*
X96890903Y-90294554D01*
X96725697Y-90382858D01*
X96725693Y-90382860D01*
X96546429Y-90437239D01*
X96546428Y-90437239D01*
X96546425Y-90437240D01*
X96360000Y-90455601D01*
X96173576Y-90437240D01*
X96173573Y-90437239D01*
X96173572Y-90437239D01*
X95994308Y-90382860D01*
X95994304Y-90382858D01*
X95829098Y-90294554D01*
X95684289Y-90175712D01*
X95565447Y-90030903D01*
X95477140Y-89865692D01*
X95422760Y-89686430D01*
X95409000Y-89546718D01*
X95409000Y-88253283D01*
X95422760Y-88113576D01*
X95422761Y-88113572D01*
X95477140Y-87934308D01*
X95497483Y-87896249D01*
X95565446Y-87769097D01*
X95684288Y-87624288D01*
X95829097Y-87505446D01*
X95994303Y-87417142D01*
X95994304Y-87417142D01*
X95994307Y-87417140D01*
X96173571Y-87362761D01*
X96173572Y-87362761D01*
X96173575Y-87362760D01*
X96360000Y-87344399D01*
X96546424Y-87362760D01*
X96546424Y-87362760D01*
G37*
G36*
X87311000Y-90451000D02*
G01*
X85409000Y-90451000D01*
X85409000Y-87349000D01*
X87311000Y-87349000D01*
X87311000Y-90451000D01*
X87311000Y-90451000D01*
G37*
G36*
X43920256Y-86037298D02*
G01*
X44026579Y-86058447D01*
X44327042Y-86182903D01*
X44597451Y-86363585D01*
X44827415Y-86593549D01*
X45008097Y-86863958D01*
X45132553Y-87164421D01*
X45144202Y-87222985D01*
X45196000Y-87483389D01*
X45196000Y-87808611D01*
X45178567Y-87896250D01*
X45132553Y-88127579D01*
X45008097Y-88428042D01*
X44827415Y-88698451D01*
X44597451Y-88928415D01*
X44327042Y-89109097D01*
X44026579Y-89233553D01*
X43920256Y-89254702D01*
X43707611Y-89297000D01*
X43382389Y-89297000D01*
X43169744Y-89254702D01*
X43063421Y-89233553D01*
X42762958Y-89109097D01*
X42492549Y-88928415D01*
X42262585Y-88698451D01*
X42081903Y-88428042D01*
X41957447Y-88127579D01*
X41911433Y-87896250D01*
X41894000Y-87808611D01*
X41894000Y-87483389D01*
X41945798Y-87222985D01*
X41957447Y-87164421D01*
X42081903Y-86863958D01*
X42262585Y-86593549D01*
X42492549Y-86363585D01*
X42762958Y-86182903D01*
X43063421Y-86058447D01*
X43169744Y-86037298D01*
X43382389Y-85995000D01*
X43707611Y-85995000D01*
X43920256Y-86037298D01*
X43920256Y-86037298D01*
G37*
G36*
X105604213Y-87896249D02*
G01*
X105698652Y-87924897D01*
X105785687Y-87971418D01*
X105861975Y-88034025D01*
X105924582Y-88110313D01*
X105971103Y-88197348D01*
X105999751Y-88291787D01*
X106009424Y-88390000D01*
X105999751Y-88488213D01*
X105971103Y-88582652D01*
X105924582Y-88669687D01*
X105861975Y-88745975D01*
X105785687Y-88808582D01*
X105698652Y-88855103D01*
X105604213Y-88883751D01*
X105530612Y-88891000D01*
X104781388Y-88891000D01*
X104707787Y-88883751D01*
X104613348Y-88855103D01*
X104526313Y-88808582D01*
X104450025Y-88745975D01*
X104387418Y-88669687D01*
X104340897Y-88582652D01*
X104312249Y-88488213D01*
X104302576Y-88390000D01*
X104312249Y-88291787D01*
X104340897Y-88197348D01*
X104387418Y-88110313D01*
X104450025Y-88034025D01*
X104526313Y-87971418D01*
X104613348Y-87924897D01*
X104707787Y-87896249D01*
X104781388Y-87889000D01*
X105530612Y-87889000D01*
X105604213Y-87896249D01*
X105604213Y-87896249D01*
G37*
G36*
X70016823Y-87045313D02*
G01*
X70177242Y-87093976D01*
X70244361Y-87129852D01*
X70325078Y-87172996D01*
X70454659Y-87279341D01*
X70561004Y-87408922D01*
X70561005Y-87408924D01*
X70640024Y-87556758D01*
X70688687Y-87717177D01*
X70705117Y-87884000D01*
X70688687Y-88050823D01*
X70640024Y-88211242D01*
X70569114Y-88343906D01*
X70561004Y-88359078D01*
X70454659Y-88488659D01*
X70325078Y-88595004D01*
X70325076Y-88595005D01*
X70177242Y-88674024D01*
X70016823Y-88722687D01*
X69891804Y-88735000D01*
X69808196Y-88735000D01*
X69683177Y-88722687D01*
X69522758Y-88674024D01*
X69374924Y-88595005D01*
X69374922Y-88595004D01*
X69245341Y-88488659D01*
X69138996Y-88359078D01*
X69130886Y-88343906D01*
X69059976Y-88211242D01*
X69011313Y-88050823D01*
X68994883Y-87884000D01*
X69011313Y-87717177D01*
X69059976Y-87556758D01*
X69138995Y-87408924D01*
X69138996Y-87408922D01*
X69245341Y-87279341D01*
X69374922Y-87172996D01*
X69455639Y-87129852D01*
X69522758Y-87093976D01*
X69683177Y-87045313D01*
X69808196Y-87033000D01*
X69891804Y-87033000D01*
X70016823Y-87045313D01*
X70016823Y-87045313D01*
G37*
G36*
X67476823Y-87045313D02*
G01*
X67637242Y-87093976D01*
X67704361Y-87129852D01*
X67785078Y-87172996D01*
X67914659Y-87279341D01*
X68021004Y-87408922D01*
X68021005Y-87408924D01*
X68100024Y-87556758D01*
X68148687Y-87717177D01*
X68165117Y-87884000D01*
X68148687Y-88050823D01*
X68100024Y-88211242D01*
X68029114Y-88343906D01*
X68021004Y-88359078D01*
X67914659Y-88488659D01*
X67785078Y-88595004D01*
X67785076Y-88595005D01*
X67637242Y-88674024D01*
X67476823Y-88722687D01*
X67351804Y-88735000D01*
X67268196Y-88735000D01*
X67143177Y-88722687D01*
X66982758Y-88674024D01*
X66834924Y-88595005D01*
X66834922Y-88595004D01*
X66705341Y-88488659D01*
X66598996Y-88359078D01*
X66590886Y-88343906D01*
X66519976Y-88211242D01*
X66471313Y-88050823D01*
X66454883Y-87884000D01*
X66471313Y-87717177D01*
X66519976Y-87556758D01*
X66598995Y-87408924D01*
X66598996Y-87408922D01*
X66705341Y-87279341D01*
X66834922Y-87172996D01*
X66915639Y-87129852D01*
X66982758Y-87093976D01*
X67143177Y-87045313D01*
X67268196Y-87033000D01*
X67351804Y-87033000D01*
X67476823Y-87045313D01*
X67476823Y-87045313D01*
G37*
G36*
X65621000Y-88735000D02*
G01*
X63919000Y-88735000D01*
X63919000Y-87033000D01*
X65621000Y-87033000D01*
X65621000Y-88735000D01*
X65621000Y-88735000D01*
G37*
G36*
X61634823Y-87045313D02*
G01*
X61795242Y-87093976D01*
X61862361Y-87129852D01*
X61943078Y-87172996D01*
X62072659Y-87279341D01*
X62179004Y-87408922D01*
X62179005Y-87408924D01*
X62258024Y-87556758D01*
X62306687Y-87717177D01*
X62323117Y-87884000D01*
X62306687Y-88050823D01*
X62258024Y-88211242D01*
X62187114Y-88343906D01*
X62179004Y-88359078D01*
X62072659Y-88488659D01*
X61943078Y-88595004D01*
X61943076Y-88595005D01*
X61795242Y-88674024D01*
X61634823Y-88722687D01*
X61509804Y-88735000D01*
X61426196Y-88735000D01*
X61301177Y-88722687D01*
X61140758Y-88674024D01*
X60992924Y-88595005D01*
X60992922Y-88595004D01*
X60863341Y-88488659D01*
X60756996Y-88359078D01*
X60748886Y-88343906D01*
X60677976Y-88211242D01*
X60629313Y-88050823D01*
X60612883Y-87884000D01*
X60629313Y-87717177D01*
X60677976Y-87556758D01*
X60756995Y-87408924D01*
X60756996Y-87408922D01*
X60863341Y-87279341D01*
X60992922Y-87172996D01*
X61073639Y-87129852D01*
X61140758Y-87093976D01*
X61301177Y-87045313D01*
X61426196Y-87033000D01*
X61509804Y-87033000D01*
X61634823Y-87045313D01*
X61634823Y-87045313D01*
G37*
G36*
X59176228Y-87065703D02*
G01*
X59331100Y-87129853D01*
X59470481Y-87222985D01*
X59589015Y-87341519D01*
X59682147Y-87480900D01*
X59746297Y-87635772D01*
X59779000Y-87800184D01*
X59779000Y-87967816D01*
X59746297Y-88132228D01*
X59682147Y-88287100D01*
X59589015Y-88426481D01*
X59470481Y-88545015D01*
X59331100Y-88638147D01*
X59176228Y-88702297D01*
X59011816Y-88735000D01*
X58844184Y-88735000D01*
X58679772Y-88702297D01*
X58524900Y-88638147D01*
X58385519Y-88545015D01*
X58266985Y-88426481D01*
X58173853Y-88287100D01*
X58109703Y-88132228D01*
X58077000Y-87967816D01*
X58077000Y-87800184D01*
X58109703Y-87635772D01*
X58173853Y-87480900D01*
X58266985Y-87341519D01*
X58385519Y-87222985D01*
X58524900Y-87129853D01*
X58679772Y-87065703D01*
X58844184Y-87033000D01*
X59011816Y-87033000D01*
X59176228Y-87065703D01*
X59176228Y-87065703D01*
G37*
G36*
X80176823Y-87045313D02*
G01*
X80337242Y-87093976D01*
X80404361Y-87129852D01*
X80485078Y-87172996D01*
X80614659Y-87279341D01*
X80721004Y-87408922D01*
X80721005Y-87408924D01*
X80800024Y-87556758D01*
X80848687Y-87717177D01*
X80865117Y-87884000D01*
X80848687Y-88050823D01*
X80800024Y-88211242D01*
X80729114Y-88343906D01*
X80721004Y-88359078D01*
X80614659Y-88488659D01*
X80485078Y-88595004D01*
X80485076Y-88595005D01*
X80337242Y-88674024D01*
X80176823Y-88722687D01*
X80051804Y-88735000D01*
X79968196Y-88735000D01*
X79843177Y-88722687D01*
X79682758Y-88674024D01*
X79534924Y-88595005D01*
X79534922Y-88595004D01*
X79405341Y-88488659D01*
X79298996Y-88359078D01*
X79290886Y-88343906D01*
X79219976Y-88211242D01*
X79171313Y-88050823D01*
X79154883Y-87884000D01*
X79171313Y-87717177D01*
X79219976Y-87556758D01*
X79298995Y-87408924D01*
X79298996Y-87408922D01*
X79405341Y-87279341D01*
X79534922Y-87172996D01*
X79615639Y-87129852D01*
X79682758Y-87093976D01*
X79843177Y-87045313D01*
X79968196Y-87033000D01*
X80051804Y-87033000D01*
X80176823Y-87045313D01*
X80176823Y-87045313D01*
G37*
G36*
X77636823Y-87045313D02*
G01*
X77797242Y-87093976D01*
X77864361Y-87129852D01*
X77945078Y-87172996D01*
X78074659Y-87279341D01*
X78181004Y-87408922D01*
X78181005Y-87408924D01*
X78260024Y-87556758D01*
X78308687Y-87717177D01*
X78325117Y-87884000D01*
X78308687Y-88050823D01*
X78260024Y-88211242D01*
X78189114Y-88343906D01*
X78181004Y-88359078D01*
X78074659Y-88488659D01*
X77945078Y-88595004D01*
X77945076Y-88595005D01*
X77797242Y-88674024D01*
X77636823Y-88722687D01*
X77511804Y-88735000D01*
X77428196Y-88735000D01*
X77303177Y-88722687D01*
X77142758Y-88674024D01*
X76994924Y-88595005D01*
X76994922Y-88595004D01*
X76865341Y-88488659D01*
X76758996Y-88359078D01*
X76750886Y-88343906D01*
X76679976Y-88211242D01*
X76631313Y-88050823D01*
X76614883Y-87884000D01*
X76631313Y-87717177D01*
X76679976Y-87556758D01*
X76758995Y-87408924D01*
X76758996Y-87408922D01*
X76865341Y-87279341D01*
X76994922Y-87172996D01*
X77075639Y-87129852D01*
X77142758Y-87093976D01*
X77303177Y-87045313D01*
X77428196Y-87033000D01*
X77511804Y-87033000D01*
X77636823Y-87045313D01*
X77636823Y-87045313D01*
G37*
G36*
X75096823Y-87045313D02*
G01*
X75257242Y-87093976D01*
X75324361Y-87129852D01*
X75405078Y-87172996D01*
X75534659Y-87279341D01*
X75641004Y-87408922D01*
X75641005Y-87408924D01*
X75720024Y-87556758D01*
X75768687Y-87717177D01*
X75785117Y-87884000D01*
X75768687Y-88050823D01*
X75720024Y-88211242D01*
X75649114Y-88343906D01*
X75641004Y-88359078D01*
X75534659Y-88488659D01*
X75405078Y-88595004D01*
X75405076Y-88595005D01*
X75257242Y-88674024D01*
X75096823Y-88722687D01*
X74971804Y-88735000D01*
X74888196Y-88735000D01*
X74763177Y-88722687D01*
X74602758Y-88674024D01*
X74454924Y-88595005D01*
X74454922Y-88595004D01*
X74325341Y-88488659D01*
X74218996Y-88359078D01*
X74210886Y-88343906D01*
X74139976Y-88211242D01*
X74091313Y-88050823D01*
X74074883Y-87884000D01*
X74091313Y-87717177D01*
X74139976Y-87556758D01*
X74218995Y-87408924D01*
X74218996Y-87408922D01*
X74325341Y-87279341D01*
X74454922Y-87172996D01*
X74535639Y-87129852D01*
X74602758Y-87093976D01*
X74763177Y-87045313D01*
X74888196Y-87033000D01*
X74971804Y-87033000D01*
X75096823Y-87045313D01*
X75096823Y-87045313D01*
G37*
G36*
X72556823Y-87045313D02*
G01*
X72717242Y-87093976D01*
X72784361Y-87129852D01*
X72865078Y-87172996D01*
X72994659Y-87279341D01*
X73101004Y-87408922D01*
X73101005Y-87408924D01*
X73180024Y-87556758D01*
X73228687Y-87717177D01*
X73245117Y-87884000D01*
X73228687Y-88050823D01*
X73180024Y-88211242D01*
X73109114Y-88343906D01*
X73101004Y-88359078D01*
X72994659Y-88488659D01*
X72865078Y-88595004D01*
X72865076Y-88595005D01*
X72717242Y-88674024D01*
X72556823Y-88722687D01*
X72431804Y-88735000D01*
X72348196Y-88735000D01*
X72223177Y-88722687D01*
X72062758Y-88674024D01*
X71914924Y-88595005D01*
X71914922Y-88595004D01*
X71785341Y-88488659D01*
X71678996Y-88359078D01*
X71670886Y-88343906D01*
X71599976Y-88211242D01*
X71551313Y-88050823D01*
X71534883Y-87884000D01*
X71551313Y-87717177D01*
X71599976Y-87556758D01*
X71678995Y-87408924D01*
X71678996Y-87408922D01*
X71785341Y-87279341D01*
X71914922Y-87172996D01*
X71995639Y-87129852D01*
X72062758Y-87093976D01*
X72223177Y-87045313D01*
X72348196Y-87033000D01*
X72431804Y-87033000D01*
X72556823Y-87045313D01*
X72556823Y-87045313D01*
G37*
G36*
X94046424Y-82362760D02*
G01*
X94046427Y-82362761D01*
X94046428Y-82362761D01*
X94225692Y-82417140D01*
X94225695Y-82417142D01*
X94225696Y-82417142D01*
X94390903Y-82505446D01*
X94535712Y-82624288D01*
X94654554Y-82769097D01*
X94727187Y-82904985D01*
X94742860Y-82934307D01*
X94790369Y-83090924D01*
X94797240Y-83113575D01*
X94811000Y-83253282D01*
X94811000Y-84546718D01*
X94797240Y-84686425D01*
X94797239Y-84686428D01*
X94797239Y-84686429D01*
X94742860Y-84865693D01*
X94742858Y-84865696D01*
X94742858Y-84865697D01*
X94654554Y-85030903D01*
X94535712Y-85175712D01*
X94390903Y-85294554D01*
X94225697Y-85382858D01*
X94225693Y-85382860D01*
X94046429Y-85437239D01*
X94046428Y-85437239D01*
X94046425Y-85437240D01*
X93860000Y-85455601D01*
X93673576Y-85437240D01*
X93673573Y-85437239D01*
X93673572Y-85437239D01*
X93494308Y-85382860D01*
X93494304Y-85382858D01*
X93329098Y-85294554D01*
X93184289Y-85175712D01*
X93065447Y-85030903D01*
X92977140Y-84865692D01*
X92922760Y-84686430D01*
X92909000Y-84546718D01*
X92909000Y-83253283D01*
X92922760Y-83113576D01*
X92922761Y-83113572D01*
X92977140Y-82934308D01*
X93019533Y-82854996D01*
X93065446Y-82769097D01*
X93184288Y-82624288D01*
X93329097Y-82505446D01*
X93494303Y-82417142D01*
X93494304Y-82417142D01*
X93494307Y-82417140D01*
X93673571Y-82362761D01*
X93673572Y-82362761D01*
X93673575Y-82362760D01*
X93860000Y-82344399D01*
X94046424Y-82362760D01*
X94046424Y-82362760D01*
G37*
G36*
X91546424Y-82362760D02*
G01*
X91546427Y-82362761D01*
X91546428Y-82362761D01*
X91725692Y-82417140D01*
X91725695Y-82417142D01*
X91725696Y-82417142D01*
X91890903Y-82505446D01*
X92035712Y-82624288D01*
X92154554Y-82769097D01*
X92227187Y-82904985D01*
X92242860Y-82934307D01*
X92290369Y-83090924D01*
X92297240Y-83113575D01*
X92311000Y-83253282D01*
X92311000Y-84546718D01*
X92297240Y-84686425D01*
X92297239Y-84686428D01*
X92297239Y-84686429D01*
X92242860Y-84865693D01*
X92242858Y-84865696D01*
X92242858Y-84865697D01*
X92154554Y-85030903D01*
X92035712Y-85175712D01*
X91890903Y-85294554D01*
X91725697Y-85382858D01*
X91725693Y-85382860D01*
X91546429Y-85437239D01*
X91546428Y-85437239D01*
X91546425Y-85437240D01*
X91360000Y-85455601D01*
X91173576Y-85437240D01*
X91173573Y-85437239D01*
X91173572Y-85437239D01*
X90994308Y-85382860D01*
X90994304Y-85382858D01*
X90829098Y-85294554D01*
X90684289Y-85175712D01*
X90565447Y-85030903D01*
X90477140Y-84865692D01*
X90422760Y-84686430D01*
X90409000Y-84546718D01*
X90409000Y-83253283D01*
X90422760Y-83113576D01*
X90422761Y-83113572D01*
X90477140Y-82934308D01*
X90519533Y-82854996D01*
X90565446Y-82769097D01*
X90684288Y-82624288D01*
X90829097Y-82505446D01*
X90994303Y-82417142D01*
X90994304Y-82417142D01*
X90994307Y-82417140D01*
X91173571Y-82362761D01*
X91173572Y-82362761D01*
X91173575Y-82362760D01*
X91360000Y-82344399D01*
X91546424Y-82362760D01*
X91546424Y-82362760D01*
G37*
G36*
X96546424Y-82362760D02*
G01*
X96546427Y-82362761D01*
X96546428Y-82362761D01*
X96725692Y-82417140D01*
X96725695Y-82417142D01*
X96725696Y-82417142D01*
X96890903Y-82505446D01*
X97035712Y-82624288D01*
X97154554Y-82769097D01*
X97227187Y-82904985D01*
X97242860Y-82934307D01*
X97290369Y-83090924D01*
X97297240Y-83113575D01*
X97311000Y-83253282D01*
X97311000Y-84546718D01*
X97297240Y-84686425D01*
X97297239Y-84686428D01*
X97297239Y-84686429D01*
X97242860Y-84865693D01*
X97242858Y-84865696D01*
X97242858Y-84865697D01*
X97154554Y-85030903D01*
X97035712Y-85175712D01*
X96890903Y-85294554D01*
X96725697Y-85382858D01*
X96725693Y-85382860D01*
X96546429Y-85437239D01*
X96546428Y-85437239D01*
X96546425Y-85437240D01*
X96360000Y-85455601D01*
X96173576Y-85437240D01*
X96173573Y-85437239D01*
X96173572Y-85437239D01*
X95994308Y-85382860D01*
X95994304Y-85382858D01*
X95829098Y-85294554D01*
X95684289Y-85175712D01*
X95565447Y-85030903D01*
X95477140Y-84865692D01*
X95422760Y-84686430D01*
X95409000Y-84546718D01*
X95409000Y-83253283D01*
X95422760Y-83113576D01*
X95422761Y-83113572D01*
X95477140Y-82934308D01*
X95519533Y-82854996D01*
X95565446Y-82769097D01*
X95684288Y-82624288D01*
X95829097Y-82505446D01*
X95994303Y-82417142D01*
X95994304Y-82417142D01*
X95994307Y-82417140D01*
X96173571Y-82362761D01*
X96173572Y-82362761D01*
X96173575Y-82362760D01*
X96360000Y-82344399D01*
X96546424Y-82362760D01*
X96546424Y-82362760D01*
G37*
G36*
X89046424Y-82362760D02*
G01*
X89046427Y-82362761D01*
X89046428Y-82362761D01*
X89225692Y-82417140D01*
X89225695Y-82417142D01*
X89225696Y-82417142D01*
X89390903Y-82505446D01*
X89535712Y-82624288D01*
X89654554Y-82769097D01*
X89727187Y-82904985D01*
X89742860Y-82934307D01*
X89790369Y-83090924D01*
X89797240Y-83113575D01*
X89811000Y-83253282D01*
X89811000Y-84546718D01*
X89797240Y-84686425D01*
X89797239Y-84686428D01*
X89797239Y-84686429D01*
X89742860Y-84865693D01*
X89742858Y-84865696D01*
X89742858Y-84865697D01*
X89654554Y-85030903D01*
X89535712Y-85175712D01*
X89390903Y-85294554D01*
X89225697Y-85382858D01*
X89225693Y-85382860D01*
X89046429Y-85437239D01*
X89046428Y-85437239D01*
X89046425Y-85437240D01*
X88860000Y-85455601D01*
X88673576Y-85437240D01*
X88673573Y-85437239D01*
X88673572Y-85437239D01*
X88494308Y-85382860D01*
X88494304Y-85382858D01*
X88329098Y-85294554D01*
X88184289Y-85175712D01*
X88065447Y-85030903D01*
X87977140Y-84865692D01*
X87922760Y-84686430D01*
X87909000Y-84546718D01*
X87909000Y-83253283D01*
X87922760Y-83113576D01*
X87922761Y-83113572D01*
X87977140Y-82934308D01*
X88019533Y-82854996D01*
X88065446Y-82769097D01*
X88184288Y-82624288D01*
X88329097Y-82505446D01*
X88494303Y-82417142D01*
X88494304Y-82417142D01*
X88494307Y-82417140D01*
X88673571Y-82362761D01*
X88673572Y-82362761D01*
X88673575Y-82362760D01*
X88860000Y-82344399D01*
X89046424Y-82362760D01*
X89046424Y-82362760D01*
G37*
G36*
X87311000Y-85451000D02*
G01*
X85409000Y-85451000D01*
X85409000Y-82349000D01*
X87311000Y-82349000D01*
X87311000Y-85451000D01*
X87311000Y-85451000D01*
G37*
G36*
X59176228Y-82747703D02*
G01*
X59331100Y-82811853D01*
X59470481Y-82904985D01*
X59589015Y-83023519D01*
X59682147Y-83162900D01*
X59746297Y-83317772D01*
X59779000Y-83482184D01*
X59779000Y-83649816D01*
X59746297Y-83814228D01*
X59682147Y-83969100D01*
X59589015Y-84108481D01*
X59470481Y-84227015D01*
X59331100Y-84320147D01*
X59176228Y-84384297D01*
X59011816Y-84417000D01*
X58844184Y-84417000D01*
X58679772Y-84384297D01*
X58524900Y-84320147D01*
X58385519Y-84227015D01*
X58266985Y-84108481D01*
X58173853Y-83969100D01*
X58109703Y-83814228D01*
X58077000Y-83649816D01*
X58077000Y-83482184D01*
X58109703Y-83317772D01*
X58173853Y-83162900D01*
X58266985Y-83023519D01*
X58385519Y-82904985D01*
X58524900Y-82811853D01*
X58679772Y-82747703D01*
X58844184Y-82715000D01*
X59011816Y-82715000D01*
X59176228Y-82747703D01*
X59176228Y-82747703D01*
G37*
G36*
X61634823Y-82727313D02*
G01*
X61795242Y-82775976D01*
X61862361Y-82811852D01*
X61943078Y-82854996D01*
X62072659Y-82961341D01*
X62179004Y-83090922D01*
X62179005Y-83090924D01*
X62258024Y-83238758D01*
X62306687Y-83399177D01*
X62323117Y-83566000D01*
X62306687Y-83732823D01*
X62258024Y-83893242D01*
X62217477Y-83969100D01*
X62179004Y-84041078D01*
X62072659Y-84170659D01*
X61943078Y-84277004D01*
X61943076Y-84277005D01*
X61795242Y-84356024D01*
X61634823Y-84404687D01*
X61509804Y-84417000D01*
X61426196Y-84417000D01*
X61301177Y-84404687D01*
X61140758Y-84356024D01*
X60992924Y-84277005D01*
X60992922Y-84277004D01*
X60863341Y-84170659D01*
X60756996Y-84041078D01*
X60718523Y-83969100D01*
X60677976Y-83893242D01*
X60629313Y-83732823D01*
X60612883Y-83566000D01*
X60629313Y-83399177D01*
X60677976Y-83238758D01*
X60756995Y-83090924D01*
X60756996Y-83090922D01*
X60863341Y-82961341D01*
X60992922Y-82854996D01*
X61073639Y-82811852D01*
X61140758Y-82775976D01*
X61301177Y-82727313D01*
X61426196Y-82715000D01*
X61509804Y-82715000D01*
X61634823Y-82727313D01*
X61634823Y-82727313D01*
G37*
G36*
X100049609Y-82998201D02*
G01*
X100128227Y-83030766D01*
X100128229Y-83030767D01*
X100198984Y-83078044D01*
X100259156Y-83138216D01*
X100259157Y-83138218D01*
X100289567Y-83183730D01*
X100305112Y-83202672D01*
X100324054Y-83218217D01*
X100345665Y-83229768D01*
X100369114Y-83236881D01*
X100393500Y-83239283D01*
X100417886Y-83236881D01*
X100441335Y-83229768D01*
X100462946Y-83218217D01*
X100481888Y-83202672D01*
X100497433Y-83183730D01*
X100527843Y-83138218D01*
X100527844Y-83138216D01*
X100588016Y-83078044D01*
X100658771Y-83030767D01*
X100658773Y-83030766D01*
X100737391Y-82998201D01*
X100820850Y-82981600D01*
X100905950Y-82981600D01*
X100989409Y-82998201D01*
X101068027Y-83030766D01*
X101068029Y-83030767D01*
X101138784Y-83078044D01*
X101198956Y-83138216D01*
X101198957Y-83138218D01*
X101246234Y-83208973D01*
X101278799Y-83287591D01*
X101295400Y-83371050D01*
X101295400Y-83456150D01*
X101278799Y-83539609D01*
X101250063Y-83608983D01*
X101246233Y-83618229D01*
X101198956Y-83688984D01*
X101138784Y-83749156D01*
X101068029Y-83796433D01*
X101068028Y-83796434D01*
X101068027Y-83796434D01*
X100989409Y-83828999D01*
X100905950Y-83845600D01*
X100820850Y-83845600D01*
X100737391Y-83828999D01*
X100658773Y-83796434D01*
X100658772Y-83796434D01*
X100658771Y-83796433D01*
X100588016Y-83749156D01*
X100527844Y-83688984D01*
X100497430Y-83643467D01*
X100481888Y-83624528D01*
X100462946Y-83608983D01*
X100441335Y-83597432D01*
X100417886Y-83590319D01*
X100393500Y-83587917D01*
X100369114Y-83590319D01*
X100345665Y-83597432D01*
X100324054Y-83608983D01*
X100305112Y-83624528D01*
X100289570Y-83643467D01*
X100259156Y-83688984D01*
X100198984Y-83749156D01*
X100128229Y-83796433D01*
X100128228Y-83796434D01*
X100128227Y-83796434D01*
X100049609Y-83828999D01*
X99966150Y-83845600D01*
X99881050Y-83845600D01*
X99797591Y-83828999D01*
X99718973Y-83796434D01*
X99718972Y-83796434D01*
X99718971Y-83796433D01*
X99648216Y-83749156D01*
X99588044Y-83688984D01*
X99540767Y-83618229D01*
X99536937Y-83608983D01*
X99508201Y-83539609D01*
X99491600Y-83456150D01*
X99491600Y-83371050D01*
X99508201Y-83287591D01*
X99540766Y-83208973D01*
X99588043Y-83138218D01*
X99588044Y-83138216D01*
X99648216Y-83078044D01*
X99718971Y-83030767D01*
X99718973Y-83030766D01*
X99797591Y-82998201D01*
X99881050Y-82981600D01*
X99966150Y-82981600D01*
X100049609Y-82998201D01*
X100049609Y-82998201D01*
G37*
G36*
X105604213Y-81296249D02*
G01*
X105698652Y-81324897D01*
X105785687Y-81371418D01*
X105861975Y-81434025D01*
X105924582Y-81510313D01*
X105971103Y-81597348D01*
X105999751Y-81691787D01*
X106009424Y-81790000D01*
X105999751Y-81888213D01*
X105971103Y-81982652D01*
X105924582Y-82069687D01*
X105861975Y-82145975D01*
X105785687Y-82208582D01*
X105698652Y-82255103D01*
X105604213Y-82283751D01*
X105530612Y-82291000D01*
X104781388Y-82291000D01*
X104707787Y-82283751D01*
X104613348Y-82255103D01*
X104526313Y-82208582D01*
X104450025Y-82145975D01*
X104387418Y-82069687D01*
X104340897Y-81982652D01*
X104312249Y-81888213D01*
X104302576Y-81790000D01*
X104312249Y-81691787D01*
X104340897Y-81597348D01*
X104387418Y-81510313D01*
X104450025Y-81434025D01*
X104526313Y-81371418D01*
X104613348Y-81324897D01*
X104707787Y-81296249D01*
X104781388Y-81289000D01*
X105530612Y-81289000D01*
X105604213Y-81296249D01*
X105604213Y-81296249D01*
G37*
G36*
X70016823Y-79425313D02*
G01*
X70177242Y-79473976D01*
X70309906Y-79544886D01*
X70325078Y-79552996D01*
X70454659Y-79659341D01*
X70561004Y-79788922D01*
X70561005Y-79788924D01*
X70640024Y-79936758D01*
X70688687Y-80097177D01*
X70705117Y-80264000D01*
X70688687Y-80430823D01*
X70640024Y-80591242D01*
X70569114Y-80723906D01*
X70561004Y-80739078D01*
X70454659Y-80868659D01*
X70325078Y-80975004D01*
X70325076Y-80975005D01*
X70177242Y-81054024D01*
X70016823Y-81102687D01*
X69891804Y-81115000D01*
X69808196Y-81115000D01*
X69683177Y-81102687D01*
X69522758Y-81054024D01*
X69374924Y-80975005D01*
X69374922Y-80975004D01*
X69245341Y-80868659D01*
X69138996Y-80739078D01*
X69130886Y-80723906D01*
X69059976Y-80591242D01*
X69011313Y-80430823D01*
X68994883Y-80264000D01*
X69011313Y-80097177D01*
X69059976Y-79936758D01*
X69138995Y-79788924D01*
X69138996Y-79788922D01*
X69245341Y-79659341D01*
X69374922Y-79552996D01*
X69390094Y-79544886D01*
X69522758Y-79473976D01*
X69683177Y-79425313D01*
X69808196Y-79413000D01*
X69891804Y-79413000D01*
X70016823Y-79425313D01*
X70016823Y-79425313D01*
G37*
G36*
X64936823Y-79425313D02*
G01*
X65097242Y-79473976D01*
X65229906Y-79544886D01*
X65245078Y-79552996D01*
X65374659Y-79659341D01*
X65481004Y-79788922D01*
X65481005Y-79788924D01*
X65560024Y-79936758D01*
X65608687Y-80097177D01*
X65625117Y-80264000D01*
X65608687Y-80430823D01*
X65560024Y-80591242D01*
X65489114Y-80723906D01*
X65481004Y-80739078D01*
X65374659Y-80868659D01*
X65245078Y-80975004D01*
X65245076Y-80975005D01*
X65097242Y-81054024D01*
X64936823Y-81102687D01*
X64811804Y-81115000D01*
X64728196Y-81115000D01*
X64603177Y-81102687D01*
X64442758Y-81054024D01*
X64294924Y-80975005D01*
X64294922Y-80975004D01*
X64165341Y-80868659D01*
X64058996Y-80739078D01*
X64050886Y-80723906D01*
X63979976Y-80591242D01*
X63931313Y-80430823D01*
X63914883Y-80264000D01*
X63931313Y-80097177D01*
X63979976Y-79936758D01*
X64058995Y-79788924D01*
X64058996Y-79788922D01*
X64165341Y-79659341D01*
X64294922Y-79552996D01*
X64310094Y-79544886D01*
X64442758Y-79473976D01*
X64603177Y-79425313D01*
X64728196Y-79413000D01*
X64811804Y-79413000D01*
X64936823Y-79425313D01*
X64936823Y-79425313D01*
G37*
G36*
X67476823Y-79425313D02*
G01*
X67637242Y-79473976D01*
X67769906Y-79544886D01*
X67785078Y-79552996D01*
X67914659Y-79659341D01*
X68021004Y-79788922D01*
X68021005Y-79788924D01*
X68100024Y-79936758D01*
X68148687Y-80097177D01*
X68165117Y-80264000D01*
X68148687Y-80430823D01*
X68100024Y-80591242D01*
X68029114Y-80723906D01*
X68021004Y-80739078D01*
X67914659Y-80868659D01*
X67785078Y-80975004D01*
X67785076Y-80975005D01*
X67637242Y-81054024D01*
X67476823Y-81102687D01*
X67351804Y-81115000D01*
X67268196Y-81115000D01*
X67143177Y-81102687D01*
X66982758Y-81054024D01*
X66834924Y-80975005D01*
X66834922Y-80975004D01*
X66705341Y-80868659D01*
X66598996Y-80739078D01*
X66590886Y-80723906D01*
X66519976Y-80591242D01*
X66471313Y-80430823D01*
X66454883Y-80264000D01*
X66471313Y-80097177D01*
X66519976Y-79936758D01*
X66598995Y-79788924D01*
X66598996Y-79788922D01*
X66705341Y-79659341D01*
X66834922Y-79552996D01*
X66850094Y-79544886D01*
X66982758Y-79473976D01*
X67143177Y-79425313D01*
X67268196Y-79413000D01*
X67351804Y-79413000D01*
X67476823Y-79425313D01*
X67476823Y-79425313D01*
G37*
G36*
X72556823Y-79425313D02*
G01*
X72717242Y-79473976D01*
X72849906Y-79544886D01*
X72865078Y-79552996D01*
X72994659Y-79659341D01*
X73101004Y-79788922D01*
X73101005Y-79788924D01*
X73180024Y-79936758D01*
X73228687Y-80097177D01*
X73245117Y-80264000D01*
X73228687Y-80430823D01*
X73180024Y-80591242D01*
X73109114Y-80723906D01*
X73101004Y-80739078D01*
X72994659Y-80868659D01*
X72865078Y-80975004D01*
X72865076Y-80975005D01*
X72717242Y-81054024D01*
X72556823Y-81102687D01*
X72431804Y-81115000D01*
X72348196Y-81115000D01*
X72223177Y-81102687D01*
X72062758Y-81054024D01*
X71914924Y-80975005D01*
X71914922Y-80975004D01*
X71785341Y-80868659D01*
X71678996Y-80739078D01*
X71670886Y-80723906D01*
X71599976Y-80591242D01*
X71551313Y-80430823D01*
X71534883Y-80264000D01*
X71551313Y-80097177D01*
X71599976Y-79936758D01*
X71678995Y-79788924D01*
X71678996Y-79788922D01*
X71785341Y-79659341D01*
X71914922Y-79552996D01*
X71930094Y-79544886D01*
X72062758Y-79473976D01*
X72223177Y-79425313D01*
X72348196Y-79413000D01*
X72431804Y-79413000D01*
X72556823Y-79425313D01*
X72556823Y-79425313D01*
G37*
G36*
X77636823Y-79425313D02*
G01*
X77797242Y-79473976D01*
X77929906Y-79544886D01*
X77945078Y-79552996D01*
X78074659Y-79659341D01*
X78181004Y-79788922D01*
X78181005Y-79788924D01*
X78260024Y-79936758D01*
X78308687Y-80097177D01*
X78325117Y-80264000D01*
X78308687Y-80430823D01*
X78260024Y-80591242D01*
X78189114Y-80723906D01*
X78181004Y-80739078D01*
X78074659Y-80868659D01*
X77945078Y-80975004D01*
X77945076Y-80975005D01*
X77797242Y-81054024D01*
X77636823Y-81102687D01*
X77511804Y-81115000D01*
X77428196Y-81115000D01*
X77303177Y-81102687D01*
X77142758Y-81054024D01*
X76994924Y-80975005D01*
X76994922Y-80975004D01*
X76865341Y-80868659D01*
X76758996Y-80739078D01*
X76750886Y-80723906D01*
X76679976Y-80591242D01*
X76631313Y-80430823D01*
X76614883Y-80264000D01*
X76631313Y-80097177D01*
X76679976Y-79936758D01*
X76758995Y-79788924D01*
X76758996Y-79788922D01*
X76865341Y-79659341D01*
X76994922Y-79552996D01*
X77010094Y-79544886D01*
X77142758Y-79473976D01*
X77303177Y-79425313D01*
X77428196Y-79413000D01*
X77511804Y-79413000D01*
X77636823Y-79425313D01*
X77636823Y-79425313D01*
G37*
G36*
X80176823Y-79425313D02*
G01*
X80337242Y-79473976D01*
X80469906Y-79544886D01*
X80485078Y-79552996D01*
X80614659Y-79659341D01*
X80721004Y-79788922D01*
X80721005Y-79788924D01*
X80800024Y-79936758D01*
X80848687Y-80097177D01*
X80865117Y-80264000D01*
X80848687Y-80430823D01*
X80800024Y-80591242D01*
X80729114Y-80723906D01*
X80721004Y-80739078D01*
X80614659Y-80868659D01*
X80485078Y-80975004D01*
X80485076Y-80975005D01*
X80337242Y-81054024D01*
X80176823Y-81102687D01*
X80051804Y-81115000D01*
X79968196Y-81115000D01*
X79843177Y-81102687D01*
X79682758Y-81054024D01*
X79534924Y-80975005D01*
X79534922Y-80975004D01*
X79405341Y-80868659D01*
X79298996Y-80739078D01*
X79290886Y-80723906D01*
X79219976Y-80591242D01*
X79171313Y-80430823D01*
X79154883Y-80264000D01*
X79171313Y-80097177D01*
X79219976Y-79936758D01*
X79298995Y-79788924D01*
X79298996Y-79788922D01*
X79405341Y-79659341D01*
X79534922Y-79552996D01*
X79550094Y-79544886D01*
X79682758Y-79473976D01*
X79843177Y-79425313D01*
X79968196Y-79413000D01*
X80051804Y-79413000D01*
X80176823Y-79425313D01*
X80176823Y-79425313D01*
G37*
G36*
X75096823Y-79425313D02*
G01*
X75257242Y-79473976D01*
X75389906Y-79544886D01*
X75405078Y-79552996D01*
X75534659Y-79659341D01*
X75641004Y-79788922D01*
X75641005Y-79788924D01*
X75720024Y-79936758D01*
X75768687Y-80097177D01*
X75785117Y-80264000D01*
X75768687Y-80430823D01*
X75720024Y-80591242D01*
X75649114Y-80723906D01*
X75641004Y-80739078D01*
X75534659Y-80868659D01*
X75405078Y-80975004D01*
X75405076Y-80975005D01*
X75257242Y-81054024D01*
X75096823Y-81102687D01*
X74971804Y-81115000D01*
X74888196Y-81115000D01*
X74763177Y-81102687D01*
X74602758Y-81054024D01*
X74454924Y-80975005D01*
X74454922Y-80975004D01*
X74325341Y-80868659D01*
X74218996Y-80739078D01*
X74210886Y-80723906D01*
X74139976Y-80591242D01*
X74091313Y-80430823D01*
X74074883Y-80264000D01*
X74091313Y-80097177D01*
X74139976Y-79936758D01*
X74218995Y-79788924D01*
X74218996Y-79788922D01*
X74325341Y-79659341D01*
X74454922Y-79552996D01*
X74470094Y-79544886D01*
X74602758Y-79473976D01*
X74763177Y-79425313D01*
X74888196Y-79413000D01*
X74971804Y-79413000D01*
X75096823Y-79425313D01*
X75096823Y-79425313D01*
G37*
G36*
X61634823Y-78409313D02*
G01*
X61795242Y-78457976D01*
X61927906Y-78528886D01*
X61943078Y-78536996D01*
X62072659Y-78643341D01*
X62179004Y-78772922D01*
X62179005Y-78772924D01*
X62258024Y-78920758D01*
X62306687Y-79081177D01*
X62323117Y-79248000D01*
X62306687Y-79414823D01*
X62258024Y-79575242D01*
X62217477Y-79651100D01*
X62179004Y-79723078D01*
X62072659Y-79852659D01*
X61943078Y-79959004D01*
X61943076Y-79959005D01*
X61795242Y-80038024D01*
X61634823Y-80086687D01*
X61509804Y-80099000D01*
X61426196Y-80099000D01*
X61301177Y-80086687D01*
X61140758Y-80038024D01*
X60992924Y-79959005D01*
X60992922Y-79959004D01*
X60863341Y-79852659D01*
X60756996Y-79723078D01*
X60718523Y-79651100D01*
X60677976Y-79575242D01*
X60629313Y-79414823D01*
X60612883Y-79248000D01*
X60629313Y-79081177D01*
X60677976Y-78920758D01*
X60756995Y-78772924D01*
X60756996Y-78772922D01*
X60863341Y-78643341D01*
X60992922Y-78536996D01*
X61008094Y-78528886D01*
X61140758Y-78457976D01*
X61301177Y-78409313D01*
X61426196Y-78397000D01*
X61509804Y-78397000D01*
X61634823Y-78409313D01*
X61634823Y-78409313D01*
G37*
G36*
X59176228Y-78429703D02*
G01*
X59331100Y-78493853D01*
X59470481Y-78586985D01*
X59589015Y-78705519D01*
X59682147Y-78844900D01*
X59746297Y-78999772D01*
X59779000Y-79164184D01*
X59779000Y-79331816D01*
X59746297Y-79496228D01*
X59682147Y-79651100D01*
X59589015Y-79790481D01*
X59470481Y-79909015D01*
X59331100Y-80002147D01*
X59176228Y-80066297D01*
X59011816Y-80099000D01*
X58844184Y-80099000D01*
X58679772Y-80066297D01*
X58524900Y-80002147D01*
X58385519Y-79909015D01*
X58266985Y-79790481D01*
X58173853Y-79651100D01*
X58109703Y-79496228D01*
X58077000Y-79331816D01*
X58077000Y-79164184D01*
X58109703Y-78999772D01*
X58173853Y-78844900D01*
X58266985Y-78705519D01*
X58385519Y-78586985D01*
X58524900Y-78493853D01*
X58679772Y-78429703D01*
X58844184Y-78397000D01*
X59011816Y-78397000D01*
X59176228Y-78429703D01*
X59176228Y-78429703D01*
G37*
G36*
X88050823Y-78155313D02*
G01*
X88211242Y-78203976D01*
X88278361Y-78239852D01*
X88359078Y-78282996D01*
X88488659Y-78389341D01*
X88595004Y-78518922D01*
X88595005Y-78518924D01*
X88674024Y-78666758D01*
X88722687Y-78827177D01*
X88739117Y-78994000D01*
X88722687Y-79160823D01*
X88674024Y-79321242D01*
X88633477Y-79397100D01*
X88595004Y-79469078D01*
X88488659Y-79598659D01*
X88359078Y-79705004D01*
X88359076Y-79705005D01*
X88211242Y-79784024D01*
X88050823Y-79832687D01*
X87925804Y-79845000D01*
X87842196Y-79845000D01*
X87717177Y-79832687D01*
X87556758Y-79784024D01*
X87408924Y-79705005D01*
X87408922Y-79705004D01*
X87279341Y-79598659D01*
X87172996Y-79469078D01*
X87134523Y-79397100D01*
X87093976Y-79321242D01*
X87045313Y-79160823D01*
X87028883Y-78994000D01*
X87045313Y-78827177D01*
X87093976Y-78666758D01*
X87172995Y-78518924D01*
X87172996Y-78518922D01*
X87279341Y-78389341D01*
X87408922Y-78282996D01*
X87489639Y-78239852D01*
X87556758Y-78203976D01*
X87717177Y-78155313D01*
X87842196Y-78143000D01*
X87925804Y-78143000D01*
X88050823Y-78155313D01*
X88050823Y-78155313D01*
G37*
G36*
X85592228Y-78175703D02*
G01*
X85747100Y-78239853D01*
X85886481Y-78332985D01*
X86005015Y-78451519D01*
X86098147Y-78590900D01*
X86162297Y-78745772D01*
X86195000Y-78910184D01*
X86195000Y-79077816D01*
X86162297Y-79242228D01*
X86098147Y-79397100D01*
X86005015Y-79536481D01*
X85886481Y-79655015D01*
X85747100Y-79748147D01*
X85592228Y-79812297D01*
X85427816Y-79845000D01*
X85260184Y-79845000D01*
X85095772Y-79812297D01*
X84940900Y-79748147D01*
X84801519Y-79655015D01*
X84682985Y-79536481D01*
X84589853Y-79397100D01*
X84525703Y-79242228D01*
X84493000Y-79077816D01*
X84493000Y-78910184D01*
X84525703Y-78745772D01*
X84589853Y-78590900D01*
X84682985Y-78451519D01*
X84801519Y-78332985D01*
X84940900Y-78239853D01*
X85095772Y-78175703D01*
X85260184Y-78143000D01*
X85427816Y-78143000D01*
X85592228Y-78175703D01*
X85592228Y-78175703D01*
G37*
G36*
X79922823Y-76631313D02*
G01*
X80083242Y-76679976D01*
X80215906Y-76750886D01*
X80231078Y-76758996D01*
X80360659Y-76865341D01*
X80467004Y-76994922D01*
X80467005Y-76994924D01*
X80546024Y-77142758D01*
X80594687Y-77303177D01*
X80611117Y-77470000D01*
X80594687Y-77636823D01*
X80546024Y-77797242D01*
X80498272Y-77886579D01*
X80467004Y-77945078D01*
X80360659Y-78074659D01*
X80231078Y-78181004D01*
X80231076Y-78181005D01*
X80083242Y-78260024D01*
X79922823Y-78308687D01*
X79797804Y-78321000D01*
X79714196Y-78321000D01*
X79589177Y-78308687D01*
X79428758Y-78260024D01*
X79280924Y-78181005D01*
X79280922Y-78181004D01*
X79151341Y-78074659D01*
X79044996Y-77945078D01*
X79013728Y-77886579D01*
X78965976Y-77797242D01*
X78917313Y-77636823D01*
X78900883Y-77470000D01*
X78917313Y-77303177D01*
X78965976Y-77142758D01*
X79044995Y-76994924D01*
X79044996Y-76994922D01*
X79151341Y-76865341D01*
X79280922Y-76758996D01*
X79296094Y-76750886D01*
X79428758Y-76679976D01*
X79589177Y-76631313D01*
X79714196Y-76619000D01*
X79797804Y-76619000D01*
X79922823Y-76631313D01*
X79922823Y-76631313D01*
G37*
G36*
X67812228Y-76357703D02*
G01*
X67967100Y-76421853D01*
X68106481Y-76514985D01*
X68225015Y-76633519D01*
X68318147Y-76772900D01*
X68382297Y-76927772D01*
X68415000Y-77092184D01*
X68415000Y-77259816D01*
X68382297Y-77424228D01*
X68318147Y-77579100D01*
X68225015Y-77718481D01*
X68106481Y-77837015D01*
X67967100Y-77930147D01*
X67812228Y-77994297D01*
X67647816Y-78027000D01*
X67480184Y-78027000D01*
X67315772Y-77994297D01*
X67160900Y-77930147D01*
X67021519Y-77837015D01*
X66902985Y-77718481D01*
X66809853Y-77579100D01*
X66745703Y-77424228D01*
X66713000Y-77259816D01*
X66713000Y-77092184D01*
X66745703Y-76927772D01*
X66809853Y-76772900D01*
X66902985Y-76633519D01*
X67021519Y-76514985D01*
X67160900Y-76421853D01*
X67315772Y-76357703D01*
X67480184Y-76325000D01*
X67647816Y-76325000D01*
X67812228Y-76357703D01*
X67812228Y-76357703D01*
G37*
G36*
X65018228Y-76357703D02*
G01*
X65173100Y-76421853D01*
X65312481Y-76514985D01*
X65431015Y-76633519D01*
X65524147Y-76772900D01*
X65588297Y-76927772D01*
X65621000Y-77092184D01*
X65621000Y-77259816D01*
X65588297Y-77424228D01*
X65524147Y-77579100D01*
X65431015Y-77718481D01*
X65312481Y-77837015D01*
X65173100Y-77930147D01*
X65018228Y-77994297D01*
X64853816Y-78027000D01*
X64686184Y-78027000D01*
X64521772Y-77994297D01*
X64366900Y-77930147D01*
X64227519Y-77837015D01*
X64108985Y-77718481D01*
X64015853Y-77579100D01*
X63951703Y-77424228D01*
X63919000Y-77259816D01*
X63919000Y-77092184D01*
X63951703Y-76927772D01*
X64015853Y-76772900D01*
X64108985Y-76633519D01*
X64227519Y-76514985D01*
X64366900Y-76421853D01*
X64521772Y-76357703D01*
X64686184Y-76325000D01*
X64853816Y-76325000D01*
X65018228Y-76357703D01*
X65018228Y-76357703D01*
G37*
G36*
X105604213Y-76974249D02*
G01*
X105698652Y-77002897D01*
X105785687Y-77049418D01*
X105861975Y-77112025D01*
X105924582Y-77188313D01*
X105971103Y-77275348D01*
X105999751Y-77369787D01*
X106009424Y-77468000D01*
X105999751Y-77566213D01*
X105971103Y-77660652D01*
X105924582Y-77747687D01*
X105861975Y-77823975D01*
X105785687Y-77886582D01*
X105698652Y-77933103D01*
X105604213Y-77961751D01*
X105530612Y-77969000D01*
X104781388Y-77969000D01*
X104707787Y-77961751D01*
X104613348Y-77933103D01*
X104526313Y-77886582D01*
X104450025Y-77823975D01*
X104387418Y-77747687D01*
X104340897Y-77660652D01*
X104312249Y-77566213D01*
X104302576Y-77468000D01*
X104312249Y-77369787D01*
X104340897Y-77275348D01*
X104387418Y-77188313D01*
X104450025Y-77112025D01*
X104526313Y-77049418D01*
X104613348Y-77002897D01*
X104707787Y-76974249D01*
X104781388Y-76967000D01*
X105530612Y-76967000D01*
X105604213Y-76974249D01*
X105604213Y-76974249D01*
G37*
G36*
X80004228Y-74111703D02*
G01*
X80159100Y-74175853D01*
X80298481Y-74268985D01*
X80417015Y-74387519D01*
X80510147Y-74526900D01*
X80574297Y-74681772D01*
X80607000Y-74846184D01*
X80607000Y-75013816D01*
X80574297Y-75178228D01*
X80510147Y-75333100D01*
X80417015Y-75472481D01*
X80298481Y-75591015D01*
X80159100Y-75684147D01*
X80004228Y-75748297D01*
X79839816Y-75781000D01*
X79672184Y-75781000D01*
X79507772Y-75748297D01*
X79352900Y-75684147D01*
X79213519Y-75591015D01*
X79094985Y-75472481D01*
X79001853Y-75333100D01*
X78937703Y-75178228D01*
X78905000Y-75013816D01*
X78905000Y-74846184D01*
X78937703Y-74681772D01*
X79001853Y-74526900D01*
X79094985Y-74387519D01*
X79213519Y-74268985D01*
X79352900Y-74175853D01*
X79507772Y-74111703D01*
X79672184Y-74079000D01*
X79839816Y-74079000D01*
X80004228Y-74111703D01*
X80004228Y-74111703D01*
G37*
G36*
X67812228Y-73857703D02*
G01*
X67967100Y-73921853D01*
X68106481Y-74014985D01*
X68225015Y-74133519D01*
X68318147Y-74272900D01*
X68382297Y-74427772D01*
X68415000Y-74592184D01*
X68415000Y-74759816D01*
X68382297Y-74924228D01*
X68318147Y-75079100D01*
X68225015Y-75218481D01*
X68106481Y-75337015D01*
X67967100Y-75430147D01*
X67812228Y-75494297D01*
X67647816Y-75527000D01*
X67480184Y-75527000D01*
X67315772Y-75494297D01*
X67160900Y-75430147D01*
X67021519Y-75337015D01*
X66902985Y-75218481D01*
X66809853Y-75079100D01*
X66745703Y-74924228D01*
X66713000Y-74759816D01*
X66713000Y-74592184D01*
X66745703Y-74427772D01*
X66809853Y-74272900D01*
X66902985Y-74133519D01*
X67021519Y-74014985D01*
X67160900Y-73921853D01*
X67315772Y-73857703D01*
X67480184Y-73825000D01*
X67647816Y-73825000D01*
X67812228Y-73857703D01*
X67812228Y-73857703D01*
G37*
G36*
X65018228Y-73857703D02*
G01*
X65173100Y-73921853D01*
X65312481Y-74014985D01*
X65431015Y-74133519D01*
X65524147Y-74272900D01*
X65588297Y-74427772D01*
X65621000Y-74592184D01*
X65621000Y-74759816D01*
X65588297Y-74924228D01*
X65524147Y-75079100D01*
X65431015Y-75218481D01*
X65312481Y-75337015D01*
X65173100Y-75430147D01*
X65018228Y-75494297D01*
X64853816Y-75527000D01*
X64686184Y-75527000D01*
X64521772Y-75494297D01*
X64366900Y-75430147D01*
X64227519Y-75337015D01*
X64108985Y-75218481D01*
X64015853Y-75079100D01*
X63951703Y-74924228D01*
X63919000Y-74759816D01*
X63919000Y-74592184D01*
X63951703Y-74427772D01*
X64015853Y-74272900D01*
X64108985Y-74133519D01*
X64227519Y-74014985D01*
X64366900Y-73921853D01*
X64521772Y-73857703D01*
X64686184Y-73825000D01*
X64853816Y-73825000D01*
X65018228Y-73857703D01*
X65018228Y-73857703D01*
G37*
G36*
X100049609Y-72101601D02*
G01*
X100128227Y-72134166D01*
X100128229Y-72134167D01*
X100198984Y-72181444D01*
X100259156Y-72241616D01*
X100259157Y-72241618D01*
X100289567Y-72287130D01*
X100305112Y-72306072D01*
X100324054Y-72321617D01*
X100345665Y-72333168D01*
X100369114Y-72340281D01*
X100393500Y-72342683D01*
X100417886Y-72340281D01*
X100441335Y-72333168D01*
X100462946Y-72321617D01*
X100481888Y-72306072D01*
X100497433Y-72287130D01*
X100527843Y-72241618D01*
X100527844Y-72241616D01*
X100588016Y-72181444D01*
X100658771Y-72134167D01*
X100658773Y-72134166D01*
X100737391Y-72101601D01*
X100820850Y-72085000D01*
X100905950Y-72085000D01*
X100989409Y-72101601D01*
X101068027Y-72134166D01*
X101068029Y-72134167D01*
X101138784Y-72181444D01*
X101198956Y-72241616D01*
X101198957Y-72241618D01*
X101246234Y-72312373D01*
X101278799Y-72390991D01*
X101295400Y-72474450D01*
X101295400Y-72559550D01*
X101278799Y-72643009D01*
X101250063Y-72712383D01*
X101246233Y-72721629D01*
X101198956Y-72792384D01*
X101138784Y-72852556D01*
X101068029Y-72899833D01*
X101068028Y-72899834D01*
X101068027Y-72899834D01*
X100989409Y-72932399D01*
X100905950Y-72949000D01*
X100820850Y-72949000D01*
X100737391Y-72932399D01*
X100658773Y-72899834D01*
X100658772Y-72899834D01*
X100658771Y-72899833D01*
X100588016Y-72852556D01*
X100527844Y-72792384D01*
X100497430Y-72746867D01*
X100481888Y-72727928D01*
X100462946Y-72712383D01*
X100441335Y-72700832D01*
X100417886Y-72693719D01*
X100393500Y-72691317D01*
X100369114Y-72693719D01*
X100345665Y-72700832D01*
X100324054Y-72712383D01*
X100305112Y-72727928D01*
X100289570Y-72746867D01*
X100259156Y-72792384D01*
X100198984Y-72852556D01*
X100128229Y-72899833D01*
X100128228Y-72899834D01*
X100128227Y-72899834D01*
X100049609Y-72932399D01*
X99966150Y-72949000D01*
X99881050Y-72949000D01*
X99797591Y-72932399D01*
X99718973Y-72899834D01*
X99718972Y-72899834D01*
X99718971Y-72899833D01*
X99648216Y-72852556D01*
X99588044Y-72792384D01*
X99540767Y-72721629D01*
X99536937Y-72712383D01*
X99508201Y-72643009D01*
X99491600Y-72559550D01*
X99491600Y-72474450D01*
X99508201Y-72390991D01*
X99540766Y-72312373D01*
X99588043Y-72241618D01*
X99588044Y-72241616D01*
X99648216Y-72181444D01*
X99718971Y-72134167D01*
X99718973Y-72134166D01*
X99797591Y-72101601D01*
X99881050Y-72085000D01*
X99966150Y-72085000D01*
X100049609Y-72101601D01*
X100049609Y-72101601D01*
G37*
G36*
X105604213Y-70374249D02*
G01*
X105698652Y-70402897D01*
X105785687Y-70449418D01*
X105861975Y-70512025D01*
X105924582Y-70588313D01*
X105971103Y-70675348D01*
X105999751Y-70769787D01*
X106009424Y-70868000D01*
X105999751Y-70966213D01*
X105971103Y-71060652D01*
X105924582Y-71147687D01*
X105861975Y-71223975D01*
X105785687Y-71286582D01*
X105698652Y-71333103D01*
X105604213Y-71361751D01*
X105530612Y-71369000D01*
X104781388Y-71369000D01*
X104707787Y-71361751D01*
X104613348Y-71333103D01*
X104526313Y-71286582D01*
X104450025Y-71223975D01*
X104387418Y-71147687D01*
X104340897Y-71060652D01*
X104312249Y-70966213D01*
X104302576Y-70868000D01*
X104312249Y-70769787D01*
X104340897Y-70675348D01*
X104387418Y-70588313D01*
X104450025Y-70512025D01*
X104526313Y-70449418D01*
X104613348Y-70402897D01*
X104707787Y-70374249D01*
X104781388Y-70367000D01*
X105530612Y-70367000D01*
X105604213Y-70374249D01*
X105604213Y-70374249D01*
G37*
G36*
X95625256Y-67352298D02*
G01*
X95731579Y-67373447D01*
X96032042Y-67497903D01*
X96302451Y-67678585D01*
X96532415Y-67908549D01*
X96713097Y-68178958D01*
X96837553Y-68479421D01*
X96901000Y-68798391D01*
X96901000Y-69123609D01*
X96837553Y-69442579D01*
X96713097Y-69743042D01*
X96532415Y-70013451D01*
X96302451Y-70243415D01*
X96032042Y-70424097D01*
X95731579Y-70548553D01*
X95625256Y-70569702D01*
X95412611Y-70612000D01*
X95087389Y-70612000D01*
X94874744Y-70569702D01*
X94768421Y-70548553D01*
X94467958Y-70424097D01*
X94197549Y-70243415D01*
X93967585Y-70013451D01*
X93786903Y-69743042D01*
X93662447Y-69442579D01*
X93599000Y-69123609D01*
X93599000Y-68798391D01*
X93662447Y-68479421D01*
X93786903Y-68178958D01*
X93967585Y-67908549D01*
X94197549Y-67678585D01*
X94467958Y-67497903D01*
X94768421Y-67373447D01*
X94874744Y-67352298D01*
X95087389Y-67310000D01*
X95412611Y-67310000D01*
X95625256Y-67352298D01*
X95625256Y-67352298D01*
G37*
G36*
X85456823Y-63677313D02*
G01*
X85617242Y-63725976D01*
X85749906Y-63796886D01*
X85765078Y-63804996D01*
X85894659Y-63911341D01*
X86001004Y-64040922D01*
X86001005Y-64040924D01*
X86080024Y-64188758D01*
X86128687Y-64349177D01*
X86145117Y-64516000D01*
X86128687Y-64682823D01*
X86080024Y-64843242D01*
X86009114Y-64975906D01*
X86001004Y-64991078D01*
X85894659Y-65120659D01*
X85765078Y-65227004D01*
X85765076Y-65227005D01*
X85617242Y-65306024D01*
X85456823Y-65354687D01*
X85331804Y-65367000D01*
X84848196Y-65367000D01*
X84723177Y-65354687D01*
X84562758Y-65306024D01*
X84414924Y-65227005D01*
X84414922Y-65227004D01*
X84285341Y-65120659D01*
X84178996Y-64991078D01*
X84170886Y-64975906D01*
X84099976Y-64843242D01*
X84051313Y-64682823D01*
X84034883Y-64516000D01*
X84051313Y-64349177D01*
X84099976Y-64188758D01*
X84178995Y-64040924D01*
X84178996Y-64040922D01*
X84285341Y-63911341D01*
X84414922Y-63804996D01*
X84430094Y-63796886D01*
X84562758Y-63725976D01*
X84723177Y-63677313D01*
X84848196Y-63665000D01*
X85331804Y-63665000D01*
X85456823Y-63677313D01*
X85456823Y-63677313D01*
G37*
G36*
X62596823Y-63677313D02*
G01*
X62757242Y-63725976D01*
X62889906Y-63796886D01*
X62905078Y-63804996D01*
X63034659Y-63911341D01*
X63141004Y-64040922D01*
X63141005Y-64040924D01*
X63220024Y-64188758D01*
X63268687Y-64349177D01*
X63285117Y-64516000D01*
X63268687Y-64682823D01*
X63220024Y-64843242D01*
X63149114Y-64975906D01*
X63141004Y-64991078D01*
X63034659Y-65120659D01*
X62905078Y-65227004D01*
X62905076Y-65227005D01*
X62757242Y-65306024D01*
X62596823Y-65354687D01*
X62471804Y-65367000D01*
X61988196Y-65367000D01*
X61863177Y-65354687D01*
X61702758Y-65306024D01*
X61554924Y-65227005D01*
X61554922Y-65227004D01*
X61425341Y-65120659D01*
X61318996Y-64991078D01*
X61310886Y-64975906D01*
X61239976Y-64843242D01*
X61191313Y-64682823D01*
X61174883Y-64516000D01*
X61191313Y-64349177D01*
X61239976Y-64188758D01*
X61318995Y-64040924D01*
X61318996Y-64040922D01*
X61425341Y-63911341D01*
X61554922Y-63804996D01*
X61570094Y-63796886D01*
X61702758Y-63725976D01*
X61863177Y-63677313D01*
X61988196Y-63665000D01*
X62471804Y-63665000D01*
X62596823Y-63677313D01*
X62596823Y-63677313D01*
G37*
G36*
X100451256Y-60367298D02*
G01*
X100557579Y-60388447D01*
X100858042Y-60512903D01*
X101128451Y-60693585D01*
X101358415Y-60923549D01*
X101539097Y-61193958D01*
X101663553Y-61494421D01*
X101666055Y-61507000D01*
X101727000Y-61813389D01*
X101727000Y-62138611D01*
X101694253Y-62303239D01*
X101663553Y-62457579D01*
X101539097Y-62758042D01*
X101358415Y-63028451D01*
X101128451Y-63258415D01*
X100858042Y-63439097D01*
X100557579Y-63563553D01*
X100451256Y-63584702D01*
X100238611Y-63627000D01*
X99913389Y-63627000D01*
X99700744Y-63584702D01*
X99594421Y-63563553D01*
X99293958Y-63439097D01*
X99023549Y-63258415D01*
X98793585Y-63028451D01*
X98612903Y-62758042D01*
X98488447Y-62457579D01*
X98457747Y-62303239D01*
X98425000Y-62138611D01*
X98425000Y-61813389D01*
X98485945Y-61507000D01*
X98488447Y-61494421D01*
X98612903Y-61193958D01*
X98793585Y-60923549D01*
X99023549Y-60693585D01*
X99293958Y-60512903D01*
X99594421Y-60388447D01*
X99700744Y-60367298D01*
X99913389Y-60325000D01*
X100238611Y-60325000D01*
X100451256Y-60367298D01*
X100451256Y-60367298D01*
G37*
G36*
X47619256Y-60367298D02*
G01*
X47725579Y-60388447D01*
X48026042Y-60512903D01*
X48296451Y-60693585D01*
X48526415Y-60923549D01*
X48707097Y-61193958D01*
X48831553Y-61494421D01*
X48834055Y-61507000D01*
X48895000Y-61813389D01*
X48895000Y-62138611D01*
X48862253Y-62303239D01*
X48831553Y-62457579D01*
X48707097Y-62758042D01*
X48526415Y-63028451D01*
X48296451Y-63258415D01*
X48026042Y-63439097D01*
X47725579Y-63563553D01*
X47619256Y-63584702D01*
X47406611Y-63627000D01*
X47081389Y-63627000D01*
X46868744Y-63584702D01*
X46762421Y-63563553D01*
X46461958Y-63439097D01*
X46191549Y-63258415D01*
X45961585Y-63028451D01*
X45780903Y-62758042D01*
X45656447Y-62457579D01*
X45625747Y-62303239D01*
X45593000Y-62138611D01*
X45593000Y-61813389D01*
X45653945Y-61507000D01*
X45656447Y-61494421D01*
X45780903Y-61193958D01*
X45961585Y-60923549D01*
X46191549Y-60693585D01*
X46461958Y-60512903D01*
X46762421Y-60388447D01*
X46868744Y-60367298D01*
X47081389Y-60325000D01*
X47406611Y-60325000D01*
X47619256Y-60367298D01*
X47619256Y-60367298D01*
G37*
G36*
X62596823Y-61137313D02*
G01*
X62757242Y-61185976D01*
X62814550Y-61216608D01*
X62905078Y-61264996D01*
X63034659Y-61371341D01*
X63141004Y-61500922D01*
X63141005Y-61500924D01*
X63220024Y-61648758D01*
X63268687Y-61809177D01*
X63285117Y-61976000D01*
X63268687Y-62142823D01*
X63220024Y-62303242D01*
X63149114Y-62435906D01*
X63141004Y-62451078D01*
X63034659Y-62580659D01*
X62905078Y-62687004D01*
X62905076Y-62687005D01*
X62757242Y-62766024D01*
X62596823Y-62814687D01*
X62471804Y-62827000D01*
X61988196Y-62827000D01*
X61863177Y-62814687D01*
X61702758Y-62766024D01*
X61554924Y-62687005D01*
X61554922Y-62687004D01*
X61425341Y-62580659D01*
X61318996Y-62451078D01*
X61310886Y-62435906D01*
X61239976Y-62303242D01*
X61191313Y-62142823D01*
X61174883Y-61976000D01*
X61191313Y-61809177D01*
X61239976Y-61648758D01*
X61318995Y-61500924D01*
X61318996Y-61500922D01*
X61425341Y-61371341D01*
X61554922Y-61264996D01*
X61645450Y-61216608D01*
X61702758Y-61185976D01*
X61863177Y-61137313D01*
X61988196Y-61125000D01*
X62471804Y-61125000D01*
X62596823Y-61137313D01*
X62596823Y-61137313D01*
G37*
G36*
X85456823Y-61137313D02*
G01*
X85617242Y-61185976D01*
X85674550Y-61216608D01*
X85765078Y-61264996D01*
X85894659Y-61371341D01*
X86001004Y-61500922D01*
X86001005Y-61500924D01*
X86080024Y-61648758D01*
X86128687Y-61809177D01*
X86145117Y-61976000D01*
X86128687Y-62142823D01*
X86080024Y-62303242D01*
X86009114Y-62435906D01*
X86001004Y-62451078D01*
X85894659Y-62580659D01*
X85765078Y-62687004D01*
X85765076Y-62687005D01*
X85617242Y-62766024D01*
X85456823Y-62814687D01*
X85331804Y-62827000D01*
X84848196Y-62827000D01*
X84723177Y-62814687D01*
X84562758Y-62766024D01*
X84414924Y-62687005D01*
X84414922Y-62687004D01*
X84285341Y-62580659D01*
X84178996Y-62451078D01*
X84170886Y-62435906D01*
X84099976Y-62303242D01*
X84051313Y-62142823D01*
X84034883Y-61976000D01*
X84051313Y-61809177D01*
X84099976Y-61648758D01*
X84178995Y-61500924D01*
X84178996Y-61500922D01*
X84285341Y-61371341D01*
X84414922Y-61264996D01*
X84505450Y-61216608D01*
X84562758Y-61185976D01*
X84723177Y-61137313D01*
X84848196Y-61125000D01*
X85331804Y-61125000D01*
X85456823Y-61137313D01*
X85456823Y-61137313D01*
G37*
G36*
X56367642Y-59935781D02*
G01*
X56513414Y-59996162D01*
X56513416Y-59996163D01*
X56644608Y-60083822D01*
X56756178Y-60195392D01*
X56843837Y-60326584D01*
X56843838Y-60326586D01*
X56904219Y-60472358D01*
X56935000Y-60627107D01*
X56935000Y-60784893D01*
X56904219Y-60939642D01*
X56843838Y-61085414D01*
X56843837Y-61085416D01*
X56756178Y-61216608D01*
X56644608Y-61328178D01*
X56513416Y-61415837D01*
X56513415Y-61415838D01*
X56513414Y-61415838D01*
X56367642Y-61476219D01*
X56212893Y-61507000D01*
X56055107Y-61507000D01*
X55900358Y-61476219D01*
X55754586Y-61415838D01*
X55754585Y-61415838D01*
X55754584Y-61415837D01*
X55623392Y-61328178D01*
X55511822Y-61216608D01*
X55424163Y-61085416D01*
X55424162Y-61085414D01*
X55363781Y-60939642D01*
X55333000Y-60784893D01*
X55333000Y-60627107D01*
X55363781Y-60472358D01*
X55424162Y-60326586D01*
X55424163Y-60326584D01*
X55511822Y-60195392D01*
X55623392Y-60083822D01*
X55754584Y-59996163D01*
X55754586Y-59996162D01*
X55900358Y-59935781D01*
X56055107Y-59905000D01*
X56212893Y-59905000D01*
X56367642Y-59935781D01*
X56367642Y-59935781D01*
G37*
G36*
X94527000Y-61507000D02*
G01*
X92925000Y-61507000D01*
X92925000Y-59905000D01*
X94527000Y-59905000D01*
X94527000Y-61507000D01*
X94527000Y-61507000D01*
G37*
G36*
X85456823Y-58597313D02*
G01*
X85617242Y-58645976D01*
X85674550Y-58676608D01*
X85765078Y-58724996D01*
X85894659Y-58831341D01*
X86001004Y-58960922D01*
X86001005Y-58960924D01*
X86080024Y-59108758D01*
X86128687Y-59269177D01*
X86145117Y-59436000D01*
X86128687Y-59602823D01*
X86080024Y-59763242D01*
X86052137Y-59815414D01*
X86001004Y-59911078D01*
X85894659Y-60040659D01*
X85765078Y-60147004D01*
X85765076Y-60147005D01*
X85617242Y-60226024D01*
X85456823Y-60274687D01*
X85331804Y-60287000D01*
X84848196Y-60287000D01*
X84723177Y-60274687D01*
X84562758Y-60226024D01*
X84414924Y-60147005D01*
X84414922Y-60147004D01*
X84285341Y-60040659D01*
X84178996Y-59911078D01*
X84127863Y-59815414D01*
X84099976Y-59763242D01*
X84051313Y-59602823D01*
X84034883Y-59436000D01*
X84051313Y-59269177D01*
X84099976Y-59108758D01*
X84178995Y-58960924D01*
X84178996Y-58960922D01*
X84285341Y-58831341D01*
X84414922Y-58724996D01*
X84505450Y-58676608D01*
X84562758Y-58645976D01*
X84723177Y-58597313D01*
X84848196Y-58585000D01*
X85331804Y-58585000D01*
X85456823Y-58597313D01*
X85456823Y-58597313D01*
G37*
G36*
X62596823Y-58597313D02*
G01*
X62757242Y-58645976D01*
X62814550Y-58676608D01*
X62905078Y-58724996D01*
X63034659Y-58831341D01*
X63141004Y-58960922D01*
X63141005Y-58960924D01*
X63220024Y-59108758D01*
X63268687Y-59269177D01*
X63285117Y-59436000D01*
X63268687Y-59602823D01*
X63220024Y-59763242D01*
X63192137Y-59815414D01*
X63141004Y-59911078D01*
X63034659Y-60040659D01*
X62905078Y-60147004D01*
X62905076Y-60147005D01*
X62757242Y-60226024D01*
X62596823Y-60274687D01*
X62471804Y-60287000D01*
X61988196Y-60287000D01*
X61863177Y-60274687D01*
X61702758Y-60226024D01*
X61554924Y-60147005D01*
X61554922Y-60147004D01*
X61425341Y-60040659D01*
X61318996Y-59911078D01*
X61267863Y-59815414D01*
X61239976Y-59763242D01*
X61191313Y-59602823D01*
X61174883Y-59436000D01*
X61191313Y-59269177D01*
X61239976Y-59108758D01*
X61318995Y-58960924D01*
X61318996Y-58960922D01*
X61425341Y-58831341D01*
X61554922Y-58724996D01*
X61645450Y-58676608D01*
X61702758Y-58645976D01*
X61863177Y-58597313D01*
X61988196Y-58585000D01*
X62471804Y-58585000D01*
X62596823Y-58597313D01*
X62596823Y-58597313D01*
G37*
G36*
X91419642Y-58665781D02*
G01*
X91562599Y-58724996D01*
X91565416Y-58726163D01*
X91696608Y-58813822D01*
X91808178Y-58925392D01*
X91835979Y-58967000D01*
X91895838Y-59056586D01*
X91956219Y-59202358D01*
X91987000Y-59357107D01*
X91987000Y-59514893D01*
X91956219Y-59669642D01*
X91917448Y-59763242D01*
X91895837Y-59815416D01*
X91808178Y-59946608D01*
X91696608Y-60058178D01*
X91565416Y-60145837D01*
X91565415Y-60145838D01*
X91565414Y-60145838D01*
X91419642Y-60206219D01*
X91264893Y-60237000D01*
X91107107Y-60237000D01*
X90952358Y-60206219D01*
X90806586Y-60145838D01*
X90806585Y-60145838D01*
X90806584Y-60145837D01*
X90675392Y-60058178D01*
X90563822Y-59946608D01*
X90476163Y-59815416D01*
X90454552Y-59763242D01*
X90415781Y-59669642D01*
X90385000Y-59514893D01*
X90385000Y-59357107D01*
X90415781Y-59202358D01*
X90476162Y-59056586D01*
X90536021Y-58967000D01*
X90563822Y-58925392D01*
X90675392Y-58813822D01*
X90806584Y-58726163D01*
X90809401Y-58724996D01*
X90952358Y-58665781D01*
X91107107Y-58635000D01*
X91264893Y-58635000D01*
X91419642Y-58665781D01*
X91419642Y-58665781D01*
G37*
G36*
X53827642Y-58665781D02*
G01*
X53970599Y-58724996D01*
X53973416Y-58726163D01*
X54104608Y-58813822D01*
X54216178Y-58925392D01*
X54243979Y-58967000D01*
X54303838Y-59056586D01*
X54364219Y-59202358D01*
X54395000Y-59357107D01*
X54395000Y-59514893D01*
X54364219Y-59669642D01*
X54325448Y-59763242D01*
X54303837Y-59815416D01*
X54216178Y-59946608D01*
X54104608Y-60058178D01*
X53973416Y-60145837D01*
X53973415Y-60145838D01*
X53973414Y-60145838D01*
X53827642Y-60206219D01*
X53672893Y-60237000D01*
X53515107Y-60237000D01*
X53360358Y-60206219D01*
X53214586Y-60145838D01*
X53214585Y-60145838D01*
X53214584Y-60145837D01*
X53083392Y-60058178D01*
X52971822Y-59946608D01*
X52884163Y-59815416D01*
X52862552Y-59763242D01*
X52823781Y-59669642D01*
X52793000Y-59514893D01*
X52793000Y-59357107D01*
X52823781Y-59202358D01*
X52884162Y-59056586D01*
X52944021Y-58967000D01*
X52971822Y-58925392D01*
X53083392Y-58813822D01*
X53214584Y-58726163D01*
X53217401Y-58724996D01*
X53360358Y-58665781D01*
X53515107Y-58635000D01*
X53672893Y-58635000D01*
X53827642Y-58665781D01*
X53827642Y-58665781D01*
G37*
G36*
X93959642Y-57395781D02*
G01*
X94105414Y-57456162D01*
X94105416Y-57456163D01*
X94236608Y-57543822D01*
X94348178Y-57655392D01*
X94409388Y-57747000D01*
X94435838Y-57786586D01*
X94496219Y-57932358D01*
X94527000Y-58087107D01*
X94527000Y-58244893D01*
X94496219Y-58399642D01*
X94435838Y-58545414D01*
X94435837Y-58545416D01*
X94348178Y-58676608D01*
X94236608Y-58788178D01*
X94105416Y-58875837D01*
X94105415Y-58875838D01*
X94105414Y-58875838D01*
X93959642Y-58936219D01*
X93804893Y-58967000D01*
X93647107Y-58967000D01*
X93492358Y-58936219D01*
X93346586Y-58875838D01*
X93346585Y-58875838D01*
X93346584Y-58875837D01*
X93215392Y-58788178D01*
X93103822Y-58676608D01*
X93016163Y-58545416D01*
X93016162Y-58545414D01*
X92955781Y-58399642D01*
X92925000Y-58244893D01*
X92925000Y-58087107D01*
X92955781Y-57932358D01*
X93016162Y-57786586D01*
X93042612Y-57747000D01*
X93103822Y-57655392D01*
X93215392Y-57543822D01*
X93346584Y-57456163D01*
X93346586Y-57456162D01*
X93492358Y-57395781D01*
X93647107Y-57365000D01*
X93804893Y-57365000D01*
X93959642Y-57395781D01*
X93959642Y-57395781D01*
G37*
G36*
X56367642Y-57395781D02*
G01*
X56513414Y-57456162D01*
X56513416Y-57456163D01*
X56644608Y-57543822D01*
X56756178Y-57655392D01*
X56817388Y-57747000D01*
X56843838Y-57786586D01*
X56904219Y-57932358D01*
X56935000Y-58087107D01*
X56935000Y-58244893D01*
X56904219Y-58399642D01*
X56843838Y-58545414D01*
X56843837Y-58545416D01*
X56756178Y-58676608D01*
X56644608Y-58788178D01*
X56513416Y-58875837D01*
X56513415Y-58875838D01*
X56513414Y-58875838D01*
X56367642Y-58936219D01*
X56212893Y-58967000D01*
X56055107Y-58967000D01*
X55900358Y-58936219D01*
X55754586Y-58875838D01*
X55754585Y-58875838D01*
X55754584Y-58875837D01*
X55623392Y-58788178D01*
X55511822Y-58676608D01*
X55424163Y-58545416D01*
X55424162Y-58545414D01*
X55363781Y-58399642D01*
X55333000Y-58244893D01*
X55333000Y-58087107D01*
X55363781Y-57932358D01*
X55424162Y-57786586D01*
X55450612Y-57747000D01*
X55511822Y-57655392D01*
X55623392Y-57543822D01*
X55754584Y-57456163D01*
X55754586Y-57456162D01*
X55900358Y-57395781D01*
X56055107Y-57365000D01*
X56212893Y-57365000D01*
X56367642Y-57395781D01*
X56367642Y-57395781D01*
G37*
G36*
X62596823Y-56057313D02*
G01*
X62757242Y-56105976D01*
X62814550Y-56136608D01*
X62905078Y-56184996D01*
X63034659Y-56291341D01*
X63141004Y-56420922D01*
X63141005Y-56420924D01*
X63220024Y-56568758D01*
X63268687Y-56729177D01*
X63285117Y-56896000D01*
X63268687Y-57062823D01*
X63220024Y-57223242D01*
X63192137Y-57275414D01*
X63141004Y-57371078D01*
X63034659Y-57500659D01*
X62905078Y-57607004D01*
X62905076Y-57607005D01*
X62757242Y-57686024D01*
X62596823Y-57734687D01*
X62471804Y-57747000D01*
X61988196Y-57747000D01*
X61863177Y-57734687D01*
X61702758Y-57686024D01*
X61554924Y-57607005D01*
X61554922Y-57607004D01*
X61425341Y-57500659D01*
X61318996Y-57371078D01*
X61267863Y-57275414D01*
X61239976Y-57223242D01*
X61191313Y-57062823D01*
X61174883Y-56896000D01*
X61191313Y-56729177D01*
X61239976Y-56568758D01*
X61318995Y-56420924D01*
X61318996Y-56420922D01*
X61425341Y-56291341D01*
X61554922Y-56184996D01*
X61645450Y-56136608D01*
X61702758Y-56105976D01*
X61863177Y-56057313D01*
X61988196Y-56045000D01*
X62471804Y-56045000D01*
X62596823Y-56057313D01*
X62596823Y-56057313D01*
G37*
G36*
X85456823Y-56057313D02*
G01*
X85617242Y-56105976D01*
X85674550Y-56136608D01*
X85765078Y-56184996D01*
X85894659Y-56291341D01*
X86001004Y-56420922D01*
X86001005Y-56420924D01*
X86080024Y-56568758D01*
X86128687Y-56729177D01*
X86145117Y-56896000D01*
X86128687Y-57062823D01*
X86080024Y-57223242D01*
X86052137Y-57275414D01*
X86001004Y-57371078D01*
X85894659Y-57500659D01*
X85765078Y-57607004D01*
X85765076Y-57607005D01*
X85617242Y-57686024D01*
X85456823Y-57734687D01*
X85331804Y-57747000D01*
X84848196Y-57747000D01*
X84723177Y-57734687D01*
X84562758Y-57686024D01*
X84414924Y-57607005D01*
X84414922Y-57607004D01*
X84285341Y-57500659D01*
X84178996Y-57371078D01*
X84127863Y-57275414D01*
X84099976Y-57223242D01*
X84051313Y-57062823D01*
X84034883Y-56896000D01*
X84051313Y-56729177D01*
X84099976Y-56568758D01*
X84178995Y-56420924D01*
X84178996Y-56420922D01*
X84285341Y-56291341D01*
X84414922Y-56184996D01*
X84505450Y-56136608D01*
X84562758Y-56105976D01*
X84723177Y-56057313D01*
X84848196Y-56045000D01*
X85331804Y-56045000D01*
X85456823Y-56057313D01*
X85456823Y-56057313D01*
G37*
G36*
X53827642Y-56125781D02*
G01*
X53970599Y-56184996D01*
X53973416Y-56186163D01*
X54104608Y-56273822D01*
X54216178Y-56385392D01*
X54243979Y-56427000D01*
X54303838Y-56516586D01*
X54364219Y-56662358D01*
X54395000Y-56817107D01*
X54395000Y-56974893D01*
X54364219Y-57129642D01*
X54325448Y-57223242D01*
X54303837Y-57275416D01*
X54216178Y-57406608D01*
X54104608Y-57518178D01*
X53973416Y-57605837D01*
X53973415Y-57605838D01*
X53973414Y-57605838D01*
X53827642Y-57666219D01*
X53672893Y-57697000D01*
X53515107Y-57697000D01*
X53360358Y-57666219D01*
X53214586Y-57605838D01*
X53214585Y-57605838D01*
X53214584Y-57605837D01*
X53083392Y-57518178D01*
X52971822Y-57406608D01*
X52884163Y-57275416D01*
X52862552Y-57223242D01*
X52823781Y-57129642D01*
X52793000Y-56974893D01*
X52793000Y-56817107D01*
X52823781Y-56662358D01*
X52884162Y-56516586D01*
X52944021Y-56427000D01*
X52971822Y-56385392D01*
X53083392Y-56273822D01*
X53214584Y-56186163D01*
X53217401Y-56184996D01*
X53360358Y-56125781D01*
X53515107Y-56095000D01*
X53672893Y-56095000D01*
X53827642Y-56125781D01*
X53827642Y-56125781D01*
G37*
G36*
X91419642Y-56125781D02*
G01*
X91562599Y-56184996D01*
X91565416Y-56186163D01*
X91696608Y-56273822D01*
X91808178Y-56385392D01*
X91835979Y-56427000D01*
X91895838Y-56516586D01*
X91956219Y-56662358D01*
X91987000Y-56817107D01*
X91987000Y-56974893D01*
X91956219Y-57129642D01*
X91917448Y-57223242D01*
X91895837Y-57275416D01*
X91808178Y-57406608D01*
X91696608Y-57518178D01*
X91565416Y-57605837D01*
X91565415Y-57605838D01*
X91565414Y-57605838D01*
X91419642Y-57666219D01*
X91264893Y-57697000D01*
X91107107Y-57697000D01*
X90952358Y-57666219D01*
X90806586Y-57605838D01*
X90806585Y-57605838D01*
X90806584Y-57605837D01*
X90675392Y-57518178D01*
X90563822Y-57406608D01*
X90476163Y-57275416D01*
X90454552Y-57223242D01*
X90415781Y-57129642D01*
X90385000Y-56974893D01*
X90385000Y-56817107D01*
X90415781Y-56662358D01*
X90476162Y-56516586D01*
X90536021Y-56427000D01*
X90563822Y-56385392D01*
X90675392Y-56273822D01*
X90806584Y-56186163D01*
X90809401Y-56184996D01*
X90952358Y-56125781D01*
X91107107Y-56095000D01*
X91264893Y-56095000D01*
X91419642Y-56125781D01*
X91419642Y-56125781D01*
G37*
G36*
X56367642Y-54855781D02*
G01*
X56513414Y-54916162D01*
X56513416Y-54916163D01*
X56644608Y-55003822D01*
X56756178Y-55115392D01*
X56817388Y-55207000D01*
X56843838Y-55246586D01*
X56904219Y-55392358D01*
X56935000Y-55547107D01*
X56935000Y-55704893D01*
X56904219Y-55859642D01*
X56843838Y-56005414D01*
X56843837Y-56005416D01*
X56756178Y-56136608D01*
X56644608Y-56248178D01*
X56513416Y-56335837D01*
X56513415Y-56335838D01*
X56513414Y-56335838D01*
X56367642Y-56396219D01*
X56212893Y-56427000D01*
X56055107Y-56427000D01*
X55900358Y-56396219D01*
X55754586Y-56335838D01*
X55754585Y-56335838D01*
X55754584Y-56335837D01*
X55623392Y-56248178D01*
X55511822Y-56136608D01*
X55424163Y-56005416D01*
X55424162Y-56005414D01*
X55363781Y-55859642D01*
X55333000Y-55704893D01*
X55333000Y-55547107D01*
X55363781Y-55392358D01*
X55424162Y-55246586D01*
X55450612Y-55207000D01*
X55511822Y-55115392D01*
X55623392Y-55003822D01*
X55754584Y-54916163D01*
X55754586Y-54916162D01*
X55900358Y-54855781D01*
X56055107Y-54825000D01*
X56212893Y-54825000D01*
X56367642Y-54855781D01*
X56367642Y-54855781D01*
G37*
G36*
X93959642Y-54855781D02*
G01*
X94105414Y-54916162D01*
X94105416Y-54916163D01*
X94236608Y-55003822D01*
X94348178Y-55115392D01*
X94409388Y-55207000D01*
X94435838Y-55246586D01*
X94496219Y-55392358D01*
X94527000Y-55547107D01*
X94527000Y-55704893D01*
X94496219Y-55859642D01*
X94435838Y-56005414D01*
X94435837Y-56005416D01*
X94348178Y-56136608D01*
X94236608Y-56248178D01*
X94105416Y-56335837D01*
X94105415Y-56335838D01*
X94105414Y-56335838D01*
X93959642Y-56396219D01*
X93804893Y-56427000D01*
X93647107Y-56427000D01*
X93492358Y-56396219D01*
X93346586Y-56335838D01*
X93346585Y-56335838D01*
X93346584Y-56335837D01*
X93215392Y-56248178D01*
X93103822Y-56136608D01*
X93016163Y-56005416D01*
X93016162Y-56005414D01*
X92955781Y-55859642D01*
X92925000Y-55704893D01*
X92925000Y-55547107D01*
X92955781Y-55392358D01*
X93016162Y-55246586D01*
X93042612Y-55207000D01*
X93103822Y-55115392D01*
X93215392Y-55003822D01*
X93346584Y-54916163D01*
X93346586Y-54916162D01*
X93492358Y-54855781D01*
X93647107Y-54825000D01*
X93804893Y-54825000D01*
X93959642Y-54855781D01*
X93959642Y-54855781D01*
G37*
G36*
X62596823Y-53517313D02*
G01*
X62757242Y-53565976D01*
X62814550Y-53596608D01*
X62905078Y-53644996D01*
X63034659Y-53751341D01*
X63141004Y-53880922D01*
X63141005Y-53880924D01*
X63220024Y-54028758D01*
X63268687Y-54189177D01*
X63285117Y-54356000D01*
X63268687Y-54522823D01*
X63220024Y-54683242D01*
X63192137Y-54735414D01*
X63141004Y-54831078D01*
X63034659Y-54960659D01*
X62905078Y-55067004D01*
X62905076Y-55067005D01*
X62757242Y-55146024D01*
X62596823Y-55194687D01*
X62471804Y-55207000D01*
X61988196Y-55207000D01*
X61863177Y-55194687D01*
X61702758Y-55146024D01*
X61554924Y-55067005D01*
X61554922Y-55067004D01*
X61425341Y-54960659D01*
X61318996Y-54831078D01*
X61267863Y-54735414D01*
X61239976Y-54683242D01*
X61191313Y-54522823D01*
X61174883Y-54356000D01*
X61191313Y-54189177D01*
X61239976Y-54028758D01*
X61318995Y-53880924D01*
X61318996Y-53880922D01*
X61425341Y-53751341D01*
X61554922Y-53644996D01*
X61645450Y-53596608D01*
X61702758Y-53565976D01*
X61863177Y-53517313D01*
X61988196Y-53505000D01*
X62471804Y-53505000D01*
X62596823Y-53517313D01*
X62596823Y-53517313D01*
G37*
G36*
X85456823Y-53517313D02*
G01*
X85617242Y-53565976D01*
X85674550Y-53596608D01*
X85765078Y-53644996D01*
X85894659Y-53751341D01*
X86001004Y-53880922D01*
X86001005Y-53880924D01*
X86080024Y-54028758D01*
X86128687Y-54189177D01*
X86145117Y-54356000D01*
X86128687Y-54522823D01*
X86080024Y-54683242D01*
X86052137Y-54735414D01*
X86001004Y-54831078D01*
X85894659Y-54960659D01*
X85765078Y-55067004D01*
X85765076Y-55067005D01*
X85617242Y-55146024D01*
X85456823Y-55194687D01*
X85331804Y-55207000D01*
X84848196Y-55207000D01*
X84723177Y-55194687D01*
X84562758Y-55146024D01*
X84414924Y-55067005D01*
X84414922Y-55067004D01*
X84285341Y-54960659D01*
X84178996Y-54831078D01*
X84127863Y-54735414D01*
X84099976Y-54683242D01*
X84051313Y-54522823D01*
X84034883Y-54356000D01*
X84051313Y-54189177D01*
X84099976Y-54028758D01*
X84178995Y-53880924D01*
X84178996Y-53880922D01*
X84285341Y-53751341D01*
X84414922Y-53644996D01*
X84505450Y-53596608D01*
X84562758Y-53565976D01*
X84723177Y-53517313D01*
X84848196Y-53505000D01*
X85331804Y-53505000D01*
X85456823Y-53517313D01*
X85456823Y-53517313D01*
G37*
G36*
X91419642Y-53585781D02*
G01*
X91562599Y-53644996D01*
X91565416Y-53646163D01*
X91696608Y-53733822D01*
X91808178Y-53845392D01*
X91835979Y-53887000D01*
X91895838Y-53976586D01*
X91956219Y-54122358D01*
X91987000Y-54277107D01*
X91987000Y-54434893D01*
X91956219Y-54589642D01*
X91917448Y-54683242D01*
X91895837Y-54735416D01*
X91808178Y-54866608D01*
X91696608Y-54978178D01*
X91565416Y-55065837D01*
X91565415Y-55065838D01*
X91565414Y-55065838D01*
X91419642Y-55126219D01*
X91264893Y-55157000D01*
X91107107Y-55157000D01*
X90952358Y-55126219D01*
X90806586Y-55065838D01*
X90806585Y-55065838D01*
X90806584Y-55065837D01*
X90675392Y-54978178D01*
X90563822Y-54866608D01*
X90476163Y-54735416D01*
X90454552Y-54683242D01*
X90415781Y-54589642D01*
X90385000Y-54434893D01*
X90385000Y-54277107D01*
X90415781Y-54122358D01*
X90476162Y-53976586D01*
X90536021Y-53887000D01*
X90563822Y-53845392D01*
X90675392Y-53733822D01*
X90806584Y-53646163D01*
X90809401Y-53644996D01*
X90952358Y-53585781D01*
X91107107Y-53555000D01*
X91264893Y-53555000D01*
X91419642Y-53585781D01*
X91419642Y-53585781D01*
G37*
G36*
X53827642Y-53585781D02*
G01*
X53970599Y-53644996D01*
X53973416Y-53646163D01*
X54104608Y-53733822D01*
X54216178Y-53845392D01*
X54243979Y-53887000D01*
X54303838Y-53976586D01*
X54364219Y-54122358D01*
X54395000Y-54277107D01*
X54395000Y-54434893D01*
X54364219Y-54589642D01*
X54325448Y-54683242D01*
X54303837Y-54735416D01*
X54216178Y-54866608D01*
X54104608Y-54978178D01*
X53973416Y-55065837D01*
X53973415Y-55065838D01*
X53973414Y-55065838D01*
X53827642Y-55126219D01*
X53672893Y-55157000D01*
X53515107Y-55157000D01*
X53360358Y-55126219D01*
X53214586Y-55065838D01*
X53214585Y-55065838D01*
X53214584Y-55065837D01*
X53083392Y-54978178D01*
X52971822Y-54866608D01*
X52884163Y-54735416D01*
X52862552Y-54683242D01*
X52823781Y-54589642D01*
X52793000Y-54434893D01*
X52793000Y-54277107D01*
X52823781Y-54122358D01*
X52884162Y-53976586D01*
X52944021Y-53887000D01*
X52971822Y-53845392D01*
X53083392Y-53733822D01*
X53214584Y-53646163D01*
X53217401Y-53644996D01*
X53360358Y-53585781D01*
X53515107Y-53555000D01*
X53672893Y-53555000D01*
X53827642Y-53585781D01*
X53827642Y-53585781D01*
G37*
G36*
X93959642Y-52315781D02*
G01*
X94105414Y-52376162D01*
X94105416Y-52376163D01*
X94236608Y-52463822D01*
X94348178Y-52575392D01*
X94409388Y-52667000D01*
X94435838Y-52706586D01*
X94496219Y-52852358D01*
X94527000Y-53007107D01*
X94527000Y-53164893D01*
X94496219Y-53319642D01*
X94435838Y-53465414D01*
X94435837Y-53465416D01*
X94348178Y-53596608D01*
X94236608Y-53708178D01*
X94105416Y-53795837D01*
X94105415Y-53795838D01*
X94105414Y-53795838D01*
X93959642Y-53856219D01*
X93804893Y-53887000D01*
X93647107Y-53887000D01*
X93492358Y-53856219D01*
X93346586Y-53795838D01*
X93346585Y-53795838D01*
X93346584Y-53795837D01*
X93215392Y-53708178D01*
X93103822Y-53596608D01*
X93016163Y-53465416D01*
X93016162Y-53465414D01*
X92955781Y-53319642D01*
X92925000Y-53164893D01*
X92925000Y-53007107D01*
X92955781Y-52852358D01*
X93016162Y-52706586D01*
X93042612Y-52667000D01*
X93103822Y-52575392D01*
X93215392Y-52463822D01*
X93346584Y-52376163D01*
X93346586Y-52376162D01*
X93492358Y-52315781D01*
X93647107Y-52285000D01*
X93804893Y-52285000D01*
X93959642Y-52315781D01*
X93959642Y-52315781D01*
G37*
G36*
X56367642Y-52315781D02*
G01*
X56513414Y-52376162D01*
X56513416Y-52376163D01*
X56644608Y-52463822D01*
X56756178Y-52575392D01*
X56817388Y-52667000D01*
X56843838Y-52706586D01*
X56904219Y-52852358D01*
X56935000Y-53007107D01*
X56935000Y-53164893D01*
X56904219Y-53319642D01*
X56843838Y-53465414D01*
X56843837Y-53465416D01*
X56756178Y-53596608D01*
X56644608Y-53708178D01*
X56513416Y-53795837D01*
X56513415Y-53795838D01*
X56513414Y-53795838D01*
X56367642Y-53856219D01*
X56212893Y-53887000D01*
X56055107Y-53887000D01*
X55900358Y-53856219D01*
X55754586Y-53795838D01*
X55754585Y-53795838D01*
X55754584Y-53795837D01*
X55623392Y-53708178D01*
X55511822Y-53596608D01*
X55424163Y-53465416D01*
X55424162Y-53465414D01*
X55363781Y-53319642D01*
X55333000Y-53164893D01*
X55333000Y-53007107D01*
X55363781Y-52852358D01*
X55424162Y-52706586D01*
X55450612Y-52667000D01*
X55511822Y-52575392D01*
X55623392Y-52463822D01*
X55754584Y-52376163D01*
X55754586Y-52376162D01*
X55900358Y-52315781D01*
X56055107Y-52285000D01*
X56212893Y-52285000D01*
X56367642Y-52315781D01*
X56367642Y-52315781D01*
G37*
G36*
X85456823Y-50977313D02*
G01*
X85617242Y-51025976D01*
X85654296Y-51045782D01*
X85765078Y-51104996D01*
X85894659Y-51211341D01*
X86001004Y-51340922D01*
X86001005Y-51340924D01*
X86080024Y-51488758D01*
X86128687Y-51649177D01*
X86145117Y-51816000D01*
X86128687Y-51982823D01*
X86080024Y-52143242D01*
X86009114Y-52275906D01*
X86001004Y-52291078D01*
X85894659Y-52420659D01*
X85765078Y-52527004D01*
X85765076Y-52527005D01*
X85617242Y-52606024D01*
X85456823Y-52654687D01*
X85331804Y-52667000D01*
X84848196Y-52667000D01*
X84723177Y-52654687D01*
X84562758Y-52606024D01*
X84414924Y-52527005D01*
X84414922Y-52527004D01*
X84285341Y-52420659D01*
X84178996Y-52291078D01*
X84170886Y-52275906D01*
X84099976Y-52143242D01*
X84051313Y-51982823D01*
X84034883Y-51816000D01*
X84051313Y-51649177D01*
X84099976Y-51488758D01*
X84178995Y-51340924D01*
X84178996Y-51340922D01*
X84285341Y-51211341D01*
X84414922Y-51104996D01*
X84525704Y-51045782D01*
X84562758Y-51025976D01*
X84723177Y-50977313D01*
X84848196Y-50965000D01*
X85331804Y-50965000D01*
X85456823Y-50977313D01*
X85456823Y-50977313D01*
G37*
G36*
X62596823Y-50977313D02*
G01*
X62757242Y-51025976D01*
X62794296Y-51045782D01*
X62905078Y-51104996D01*
X63034659Y-51211341D01*
X63141004Y-51340922D01*
X63141005Y-51340924D01*
X63220024Y-51488758D01*
X63268687Y-51649177D01*
X63285117Y-51816000D01*
X63268687Y-51982823D01*
X63220024Y-52143242D01*
X63149114Y-52275906D01*
X63141004Y-52291078D01*
X63034659Y-52420659D01*
X62905078Y-52527004D01*
X62905076Y-52527005D01*
X62757242Y-52606024D01*
X62596823Y-52654687D01*
X62471804Y-52667000D01*
X61988196Y-52667000D01*
X61863177Y-52654687D01*
X61702758Y-52606024D01*
X61554924Y-52527005D01*
X61554922Y-52527004D01*
X61425341Y-52420659D01*
X61318996Y-52291078D01*
X61310886Y-52275906D01*
X61239976Y-52143242D01*
X61191313Y-51982823D01*
X61174883Y-51816000D01*
X61191313Y-51649177D01*
X61239976Y-51488758D01*
X61318995Y-51340924D01*
X61318996Y-51340922D01*
X61425341Y-51211341D01*
X61554922Y-51104996D01*
X61665704Y-51045782D01*
X61702758Y-51025976D01*
X61863177Y-50977313D01*
X61988196Y-50965000D01*
X62471804Y-50965000D01*
X62596823Y-50977313D01*
X62596823Y-50977313D01*
G37*
G36*
X54395000Y-52617000D02*
G01*
X52793000Y-52617000D01*
X52793000Y-51015000D01*
X54395000Y-51015000D01*
X54395000Y-52617000D01*
X54395000Y-52617000D01*
G37*
G36*
X91419642Y-51045781D02*
G01*
X91562599Y-51104996D01*
X91565416Y-51106163D01*
X91696608Y-51193822D01*
X91808178Y-51305392D01*
X91895837Y-51436584D01*
X91895838Y-51436586D01*
X91956219Y-51582358D01*
X91987000Y-51737107D01*
X91987000Y-51894893D01*
X91956219Y-52049642D01*
X91917448Y-52143242D01*
X91895837Y-52195416D01*
X91808178Y-52326608D01*
X91696608Y-52438178D01*
X91565416Y-52525837D01*
X91565415Y-52525838D01*
X91565414Y-52525838D01*
X91419642Y-52586219D01*
X91264893Y-52617000D01*
X91107107Y-52617000D01*
X90952358Y-52586219D01*
X90806586Y-52525838D01*
X90806585Y-52525838D01*
X90806584Y-52525837D01*
X90675392Y-52438178D01*
X90563822Y-52326608D01*
X90476163Y-52195416D01*
X90454552Y-52143242D01*
X90415781Y-52049642D01*
X90385000Y-51894893D01*
X90385000Y-51737107D01*
X90415781Y-51582358D01*
X90476162Y-51436586D01*
X90476163Y-51436584D01*
X90563822Y-51305392D01*
X90675392Y-51193822D01*
X90806584Y-51106163D01*
X90809401Y-51104996D01*
X90952358Y-51045781D01*
X91107107Y-51015000D01*
X91264893Y-51015000D01*
X91419642Y-51045781D01*
X91419642Y-51045781D01*
G37*
G36*
X100451256Y-48937298D02*
G01*
X100557579Y-48958447D01*
X100858042Y-49082903D01*
X101128451Y-49263585D01*
X101358415Y-49493549D01*
X101539097Y-49763958D01*
X101663553Y-50064421D01*
X101727000Y-50383391D01*
X101727000Y-50708609D01*
X101663553Y-51027579D01*
X101539097Y-51328042D01*
X101358415Y-51598451D01*
X101128451Y-51828415D01*
X100858042Y-52009097D01*
X100557579Y-52133553D01*
X100508884Y-52143239D01*
X100238611Y-52197000D01*
X99913389Y-52197000D01*
X99643116Y-52143239D01*
X99594421Y-52133553D01*
X99293958Y-52009097D01*
X99023549Y-51828415D01*
X98793585Y-51598451D01*
X98612903Y-51328042D01*
X98488447Y-51027579D01*
X98425000Y-50708609D01*
X98425000Y-50383391D01*
X98488447Y-50064421D01*
X98612903Y-49763958D01*
X98793585Y-49493549D01*
X99023549Y-49263585D01*
X99293958Y-49082903D01*
X99594421Y-48958447D01*
X99700744Y-48937298D01*
X99913389Y-48895000D01*
X100238611Y-48895000D01*
X100451256Y-48937298D01*
X100451256Y-48937298D01*
G37*
G36*
X47619256Y-48937298D02*
G01*
X47725579Y-48958447D01*
X48026042Y-49082903D01*
X48296451Y-49263585D01*
X48526415Y-49493549D01*
X48707097Y-49763958D01*
X48831553Y-50064421D01*
X48895000Y-50383391D01*
X48895000Y-50708609D01*
X48831553Y-51027579D01*
X48707097Y-51328042D01*
X48526415Y-51598451D01*
X48296451Y-51828415D01*
X48026042Y-52009097D01*
X47725579Y-52133553D01*
X47676884Y-52143239D01*
X47406611Y-52197000D01*
X47081389Y-52197000D01*
X46811116Y-52143239D01*
X46762421Y-52133553D01*
X46461958Y-52009097D01*
X46191549Y-51828415D01*
X45961585Y-51598451D01*
X45780903Y-51328042D01*
X45656447Y-51027579D01*
X45593000Y-50708609D01*
X45593000Y-50383391D01*
X45656447Y-50064421D01*
X45780903Y-49763958D01*
X45961585Y-49493549D01*
X46191549Y-49263585D01*
X46461958Y-49082903D01*
X46762421Y-48958447D01*
X46868744Y-48937298D01*
X47081389Y-48895000D01*
X47406611Y-48895000D01*
X47619256Y-48937298D01*
X47619256Y-48937298D01*
G37*
G36*
X85456823Y-48437313D02*
G01*
X85617242Y-48485976D01*
X85749906Y-48556886D01*
X85765078Y-48564996D01*
X85894659Y-48671341D01*
X86001004Y-48800922D01*
X86001005Y-48800924D01*
X86080024Y-48948758D01*
X86128687Y-49109177D01*
X86145117Y-49276000D01*
X86128687Y-49442823D01*
X86080024Y-49603242D01*
X86009114Y-49735906D01*
X86001004Y-49751078D01*
X85894659Y-49880659D01*
X85765078Y-49987004D01*
X85765076Y-49987005D01*
X85617242Y-50066024D01*
X85456823Y-50114687D01*
X85331804Y-50127000D01*
X84848196Y-50127000D01*
X84723177Y-50114687D01*
X84562758Y-50066024D01*
X84414924Y-49987005D01*
X84414922Y-49987004D01*
X84285341Y-49880659D01*
X84178996Y-49751078D01*
X84170886Y-49735906D01*
X84099976Y-49603242D01*
X84051313Y-49442823D01*
X84034883Y-49276000D01*
X84051313Y-49109177D01*
X84099976Y-48948758D01*
X84178995Y-48800924D01*
X84178996Y-48800922D01*
X84285341Y-48671341D01*
X84414922Y-48564996D01*
X84430094Y-48556886D01*
X84562758Y-48485976D01*
X84723177Y-48437313D01*
X84848196Y-48425000D01*
X85331804Y-48425000D01*
X85456823Y-48437313D01*
X85456823Y-48437313D01*
G37*
G36*
X62596823Y-48437313D02*
G01*
X62757242Y-48485976D01*
X62889906Y-48556886D01*
X62905078Y-48564996D01*
X63034659Y-48671341D01*
X63141004Y-48800922D01*
X63141005Y-48800924D01*
X63220024Y-48948758D01*
X63268687Y-49109177D01*
X63285117Y-49276000D01*
X63268687Y-49442823D01*
X63220024Y-49603242D01*
X63149114Y-49735906D01*
X63141004Y-49751078D01*
X63034659Y-49880659D01*
X62905078Y-49987004D01*
X62905076Y-49987005D01*
X62757242Y-50066024D01*
X62596823Y-50114687D01*
X62471804Y-50127000D01*
X61988196Y-50127000D01*
X61863177Y-50114687D01*
X61702758Y-50066024D01*
X61554924Y-49987005D01*
X61554922Y-49987004D01*
X61425341Y-49880659D01*
X61318996Y-49751078D01*
X61310886Y-49735906D01*
X61239976Y-49603242D01*
X61191313Y-49442823D01*
X61174883Y-49276000D01*
X61191313Y-49109177D01*
X61239976Y-48948758D01*
X61318995Y-48800924D01*
X61318996Y-48800922D01*
X61425341Y-48671341D01*
X61554922Y-48564996D01*
X61570094Y-48556886D01*
X61702758Y-48485976D01*
X61863177Y-48437313D01*
X61988196Y-48425000D01*
X62471804Y-48425000D01*
X62596823Y-48437313D01*
X62596823Y-48437313D01*
G37*
G36*
X63281000Y-47787000D02*
G01*
X61179000Y-47787000D01*
X61179000Y-45685000D01*
X63281000Y-45685000D01*
X63281000Y-47787000D01*
X63281000Y-47787000D01*
G37*
G36*
X85456823Y-45897313D02*
G01*
X85617242Y-45945976D01*
X85749906Y-46016886D01*
X85765078Y-46024996D01*
X85894659Y-46131341D01*
X86001004Y-46260922D01*
X86001005Y-46260924D01*
X86080024Y-46408758D01*
X86128687Y-46569177D01*
X86145117Y-46736000D01*
X86128687Y-46902823D01*
X86080024Y-47063242D01*
X86009114Y-47195906D01*
X86001004Y-47211078D01*
X85894659Y-47340659D01*
X85765078Y-47447004D01*
X85765076Y-47447005D01*
X85617242Y-47526024D01*
X85456823Y-47574687D01*
X85331804Y-47587000D01*
X84848196Y-47587000D01*
X84723177Y-47574687D01*
X84562758Y-47526024D01*
X84414924Y-47447005D01*
X84414922Y-47447004D01*
X84285341Y-47340659D01*
X84178996Y-47211078D01*
X84170886Y-47195906D01*
X84099976Y-47063242D01*
X84051313Y-46902823D01*
X84034883Y-46736000D01*
X84051313Y-46569177D01*
X84099976Y-46408758D01*
X84178995Y-46260924D01*
X84178996Y-46260922D01*
X84285341Y-46131341D01*
X84414922Y-46024996D01*
X84430094Y-46016886D01*
X84562758Y-45945976D01*
X84723177Y-45897313D01*
X84848196Y-45885000D01*
X85331804Y-45885000D01*
X85456823Y-45897313D01*
X85456823Y-45897313D01*
G37*
G36*
X104785256Y-40412298D02*
G01*
X104891579Y-40433447D01*
X105192042Y-40557903D01*
X105462451Y-40738585D01*
X105692415Y-40968549D01*
X105873097Y-41238958D01*
X105997553Y-41539421D01*
X106061000Y-41858391D01*
X106061000Y-42183609D01*
X105997553Y-42502579D01*
X105873097Y-42803042D01*
X105692415Y-43073451D01*
X105462451Y-43303415D01*
X105192042Y-43484097D01*
X104891579Y-43608553D01*
X104785256Y-43629702D01*
X104572611Y-43672000D01*
X104247389Y-43672000D01*
X104034744Y-43629702D01*
X103928421Y-43608553D01*
X103627958Y-43484097D01*
X103357549Y-43303415D01*
X103127585Y-43073451D01*
X102946903Y-42803042D01*
X102822447Y-42502579D01*
X102759000Y-42183609D01*
X102759000Y-41858391D01*
X102822447Y-41539421D01*
X102946903Y-41238958D01*
X103127585Y-40968549D01*
X103357549Y-40738585D01*
X103627958Y-40557903D01*
X103928421Y-40433447D01*
X104034744Y-40412298D01*
X104247389Y-40370000D01*
X104572611Y-40370000D01*
X104785256Y-40412298D01*
X104785256Y-40412298D01*
G37*
G36*
X43920256Y-40412298D02*
G01*
X44026579Y-40433447D01*
X44327042Y-40557903D01*
X44597451Y-40738585D01*
X44827415Y-40968549D01*
X45008097Y-41238958D01*
X45132553Y-41539421D01*
X45196000Y-41858391D01*
X45196000Y-42183609D01*
X45132553Y-42502579D01*
X45008097Y-42803042D01*
X44827415Y-43073451D01*
X44597451Y-43303415D01*
X44327042Y-43484097D01*
X44026579Y-43608553D01*
X43920256Y-43629702D01*
X43707611Y-43672000D01*
X43382389Y-43672000D01*
X43169744Y-43629702D01*
X43063421Y-43608553D01*
X42762958Y-43484097D01*
X42492549Y-43303415D01*
X42262585Y-43073451D01*
X42081903Y-42803042D01*
X41957447Y-42502579D01*
X41894000Y-42183609D01*
X41894000Y-41858391D01*
X41957447Y-41539421D01*
X42081903Y-41238958D01*
X42262585Y-40968549D01*
X42492549Y-40738585D01*
X42762958Y-40557903D01*
X43063421Y-40433447D01*
X43169744Y-40412298D01*
X43382389Y-40370000D01*
X43707611Y-40370000D01*
X43920256Y-40412298D01*
X43920256Y-40412298D01*
G37*
M02*
