M48
; DRILL file {KiCad (5.1.4-0-10_14)} date Friday 20 December 2019 at 01:32:53
; FORMAT={-:-/ absolute / inch / decimal}
; #@! TF.CreationDate,2019-12-20T01:32:53-08:00
; #@! TF.GenerationSoftware,Kicad,Pcbnew,(5.1.4-0-10_14)
; #@! TF.FileFunction,Plated,1,2,PTH
FMAT,2
INCH
T1C0.0150
T2C0.0197
T3C0.0299
T4C0.0315
T5C0.0394
T6C0.0472
%
G90
G05
T1
X3.934Y-2.855
X3.934Y-3.284
X3.971Y-2.855
X3.971Y-3.284
T3
X3.59Y-2.04
X3.59Y-2.14
X3.59Y-2.24
X3.59Y-2.34
X3.69Y-2.09
X3.69Y-2.19
X3.69Y-2.29
X3.69Y-2.39
X2.11Y-2.04
X2.11Y-2.14
X2.11Y-2.24
X2.11Y-2.34
X2.21Y-2.09
X2.21Y-2.19
X2.21Y-2.29
X2.21Y-2.39
T4
X3.36Y-3.11
X3.46Y-3.11
X3.14Y-2.95
X3.14Y-3.05
X2.32Y-3.46
X2.42Y-3.46
X2.32Y-3.12
X2.42Y-3.12
X2.55Y-3.16
X2.55Y-3.46
X2.65Y-3.16
X2.65Y-3.46
X2.75Y-3.16
X2.75Y-3.46
X2.85Y-3.16
X2.85Y-3.46
X2.95Y-3.16
X2.95Y-3.46
X3.05Y-3.16
X3.05Y-3.46
X3.15Y-3.16
X3.15Y-3.46
X2.55Y-2.94
X2.55Y-3.0384
X2.32Y-3.29
X2.42Y-3.29
X2.66Y-2.94
X2.66Y-3.0384
T5
X2.45Y-1.84
X2.45Y-1.94
X2.45Y-2.04
X2.45Y-2.14
X2.45Y-2.24
X2.45Y-2.34
X2.45Y-2.44
X2.45Y-2.54
X3.35Y-1.84
X3.35Y-1.94
X3.35Y-2.04
X3.35Y-2.14
X3.35Y-2.24
X3.35Y-2.34
X3.35Y-2.44
X3.35Y-2.54
T6
X3.4Y-3.3031
X3.4Y-3.5
X3.4984Y-3.3031
X3.4984Y-3.5
X3.5969Y-3.3031
X3.5969Y-3.5
X3.6953Y-3.3031
X3.6953Y-3.5
X3.7937Y-3.3031
X3.7937Y-3.5
T2
G00X4.1262Y-2.7901
M15
G01X4.1538Y-2.7901
M16
G05
G00X4.1262Y-3.0499
M15
G01X4.1538Y-3.0499
M16
G05
G00X4.1262Y-3.2201
M15
G01X4.1538Y-3.2201
M16
G05
G00X4.1262Y-3.4799
M15
G01X4.1538Y-3.4799
M16
G05
T0
M30
